NeutonAlt-Italic.ufo
<glyph name="exclam" format="1">
  <advance width="494"/>
  <unicode hex="0021"/>
  <outline>
    <contour>
      <point x="187.399" y="210" type="curve" smooth="yes"/>
      <point x="248.299" y="210"/>
      <point x="294.827" y="156.213"/>
      <point x="294.827" y="97.9248" type="curve" smooth="yes"/>
      <point x="294.827" y="16.043"/>
      <point x="220.884" y="-36"/>
      <point x="148.437" y="-36" type="curve" smooth="yes"/>
      <point x="85.7021" y="-36"/>
      <point x="44" y="20.585"/>
      <point x="44" y="80.6436" type="curve" smooth="yes"/>
      <point x="44" y="162.083"/>
      <point x="116.189" y="210"/>
    </contour>
    <contour>
      <point x="254.327" y="1245" type="curve" smooth="yes"/>
      <point x="260.188" y="1282"/>
      <point x="329.771" y="1292"/>
      <point x="372.771" y="1292" type="curve" smooth="yes"/>
      <point x="398.077" y="1292"/>
      <point x="451.051" y="1284.97"/>
      <point x="451.051" y="1258.57" type="curve" smooth="yes"/>
      <point x="451.051" y="1212"/>
      <point x="323.139" y="591"/>
      <point x="253.682" y="357" type="curve"/>
      <point x="169.691" y="376" type="line"/>
      <point x="201.098" y="669"/>
      <point x="226.927" y="1072"/>
    </contour>
  </outline>
</glyph>
<glyph name="quotedbl" format="1">
  <advance width="523"/>
  <unicode hex="0022"/>
  <outline>
    <contour>
      <point x="291" y="1303" type="line"/>
      <point x="471" y="1286" type="line"/>
      <point x="375" y="903" type="line"/>
      <point x="280" y="892" type="line"/>
    </contour>
    <contour>
      <point x="83" y="1303" type="line"/>
      <point x="263" y="1286" type="line"/>
      <point x="167" y="903" type="line"/>
      <point x="71" y="892" type="line"/>
    </contour>
  </outline>
</glyph>
<glyph name="dollar" format="1">
  <advance width="938"/>
  <unicode hex="0024"/>
  <outline>
    <contour>
      <point x="832" y="887" type="curve"/>
      <point x="735" y="898" type="line"/>
      <point x="738" y="1090" type="line"/>
      <point x="731" y="1118"/>
      <point x="668" y="1184"/>
      <point x="584" y="1184" type="curve" smooth="yes"/>
      <point x="470" y="1184"/>
      <point x="371" y="1113"/>
      <point x="371" y="968" type="curve" smooth="yes"/>
      <point x="371" y="724.949"/>
      <point x="862" y="714"/>
      <point x="862" y="400" type="curve" smooth="yes"/>
      <point x="862" y="146.951"/>
      <point x="603" y="-25"/>
      <point x="352" y="-25" type="curve" smooth="yes"/>
      <point x="208" y="-25"/>
      <point x="80" y="41"/>
      <point x="39" y="122" type="curve"/>
      <point x="96" y="390" type="line"/>
      <point x="195" y="375" type="line"/>
      <point x="201" y="187" type="line"/>
      <point x="229" y="123"/>
      <point x="294" y="78"/>
      <point x="391" y="78" type="curve" smooth="yes"/>
      <point x="507" y="78"/>
      <point x="665" y="148.972"/>
      <point x="665" y="312" type="curve" smooth="yes"/>
      <point x="665" y="528"/>
      <point x="186" y="555.96"/>
      <point x="186" y="870" type="curve" smooth="yes"/>
      <point x="186" y="1128"/>
      <point x="414" y="1270"/>
      <point x="632" y="1270" type="curve" smooth="yes"/>
      <point x="720" y="1270"/>
      <point x="832" y="1247"/>
      <point x="898" y="1169" type="curve"/>
      <point x="896" y="1161"/>
      <point x="832" y="887"/>
    </contour>
    <contour>
      <point x="284.649" y="-179" type="line"/>
      <point x="326.426" y="9" type="line"/>
      <point x="370.553" y="54" type="line"/>
      <point x="461.94" y="631" type="line"/>
      <point x="477.869" y="700" type="line"/>
      <point x="558.17" y="1207" type="line"/>
      <point x="527.714" y="1242" type="line"/>
      <point x="536.788" y="1394" type="line"/>
      <point x="704.164" y="1409" type="line"/>
      <point x="660.714" y="1242" type="line"/>
      <point x="619.378" y="1202" type="line"/>
      <point x="534.484" y="666" type="line"/>
      <point x="524.18" y="582" type="line"/>
      <point x="440.553" y="54" type="line"/>
      <point x="476.168" y="20" type="line"/>
      <point x="460.025" y="-164" type="line"/>
    </contour>
  </outline>
</glyph>
<glyph name="percent" format="1">
  <advance width="1241"/>
  <unicode hex="0025"/>
  <outline>
    <contour>
      <point x="413.388" y="1211" type="curve" smooth="yes"/>
      <point x="431.388" y="1211"/>
      <point x="436.23" y="1210"/>
      <point x="441.912" y="1208" type="curve"/>
      <point x="441.459" y="1142" type="line"/>
      <point x="427.409" y="1148"/>
      <point x="417.359" y="1154"/>
      <point x="398.359" y="1154" type="curve" smooth="yes"/>
      <point x="300.839" y="1154"/>
      <point x="248.366" y="934.095"/>
      <point x="248.366" y="796.972" type="curve" smooth="yes"/>
      <point x="248.366" y="716.072"/>
      <point x="267.626" y="649"/>
      <point x="320.375" y="649" type="curve" smooth="yes"/>
      <point x="446.541" y="649"/>
      <point x="482.072" y="945.283"/>
      <point x="482.072" y="1093.98" type="curve" smooth="yes"/>
      <point x="482.072" y="1136.38"/>
      <point x="478.956" y="1170.7"/>
      <point x="474.328" y="1198" type="curve"/>
      <point x="1033.23" y="1210" type="line"/>
      <point x="1029.13" y="1121" type="line"/>
      <point x="591.667" y="1137" type="line"/>
      <point x="622.297" y="1098.86"/>
      <point x="632.238" y="1015.01"/>
      <point x="632.238" y="953.281" type="curve" smooth="yes"/>
      <point x="632.238" y="747.959"/>
      <point x="439.47" y="583"/>
      <point x="309.922" y="583" type="curve" smooth="yes"/>
      <point x="196.313" y="583"/>
      <point x="87.0898" y="681.43"/>
      <point x="87.0898" y="839.632" type="curve" smooth="yes"/>
      <point x="87.0898" y="1042.76"/>
      <point x="276.181" y="1211"/>
    </contour>
    <contour>
      <point x="42" y="-10" type="line"/>
      <point x="543.714" y="588" type="line"/>
      <point x="1033.23" y="1210" type="line"/>
      <point x="1198.75" y="1207" type="line"/>
      <point x="1192.16" y="1178" type="line"/>
      <point x="698.189" y="591" type="line"/>
      <point x="228.516" y="-32" type="line"/>
    </contour>
    <contour>
      <point x="931.034" y="590" type="curve" smooth="yes"/>
      <point x="1056.75" y="590"/>
      <point x="1149.79" y="482.607"/>
      <point x="1149.79" y="333.754" type="curve" smooth="yes"/>
      <point x="1149.79" y="131.021"/>
      <point x="966.384" y="-36"/>
      <point x="834.882" y="-36" type="curve" smooth="yes"/>
      <point x="720.73" y="-36"/>
      <point x="606.97" y="63.3691"/>
      <point x="606.97" y="221.445" type="curve" smooth="yes"/>
      <point x="606.97" y="422.848"/>
      <point x="795.593" y="590"/>
    </contour>
    <contour>
      <point x="769.036" y="186.543" type="curve" smooth="yes"/>
      <point x="769.036" y="102.422"/>
      <point x="790.764" y="32"/>
      <point x="845.652" y="32" type="curve" smooth="yes"/>
      <point x="948.364" y="32"/>
      <point x="994.784" y="242.168"/>
      <point x="994.784" y="385.624" type="curve" smooth="yes"/>
      <point x="994.784" y="467.098"/>
      <point x="975.664" y="534"/>
      <point x="922.164" y="534" type="curve" smooth="yes"/>
      <point x="821.389" y="534"/>
      <point x="769.036" y="323.373"/>
    </contour>
  </outline>
</glyph>
<glyph name="ampersand" format="1">
  <advance width="1454"/>
  <unicode hex="0026"/>
  <outline>
    <contour>
      <point x="1213.09" y="723" type="line"/>
      <point x="947.093" y="353" type="line"/>
      <point x="998.093" y="287"/>
      <point x="1145.09" y="105"/>
      <point x="1231.09" y="79" type="curve" smooth="yes"/>
      <point x="1263.09" y="69" type="line"/>
      <point x="1236.09" y="0" type="line"/>
      <point x="1191.09" y="-15"/>
      <point x="1150.09" y="-20"/>
      <point x="1112.09" y="-20" type="curve" smooth="yes"/>
      <point x="1001.09" y="-20"/>
      <point x="903.093" y="92"/>
      <point x="807.093" y="218" type="curve"/>
      <point x="726.093" y="126"/>
      <point x="584.093" y="-20"/>
      <point x="359.093" y="-20" type="curve" smooth="yes"/>
      <point x="159.729" y="-20"/>
      <point x="45" y="106.948"/>
      <point x="45" y="262.476" type="curve" smooth="yes"/>
      <point x="45" y="493.899"/>
      <point x="256.829" y="627.754"/>
      <point x="400.093" y="702" type="curve"/>
      <point x="354.747" y="746.457"/>
      <point x="295.171" y="832.812"/>
      <point x="295.171" y="935.061" type="curve" smooth="yes"/>
      <point x="295.171" y="1112.42"/>
      <point x="481.841" y="1272"/>
      <point x="661.093" y="1272" type="curve" smooth="yes"/>
      <point x="806.708" y="1272"/>
      <point x="943.212" y="1219.82"/>
      <point x="943.212" y="1061.18" type="curve" smooth="yes"/>
      <point x="943.212" y="888.156"/>
      <point x="786.098" y="790.768"/>
      <point x="653.093" y="717" type="curve"/>
      <point x="651.093" y="705" type="line"/>
      <point x="888.093" y="423" type="line"/>
      <point x="1102.09" y="720" type="line"/>
      <point x="941.093" y="761" type="line"/>
      <point x="962.093" y="837" type="line"/>
      <point x="1411.09" y="837" type="line"/>
      <point x="1390.09" y="761" type="line"/>
    </contour>
    <contour>
      <point x="453.093" y="629" type="line"/>
      <point x="438.093" y="631" type="line"/>
      <point x="349.094" y="575.677"/>
      <point x="245.893" y="484.398"/>
      <point x="245.893" y="337.557" type="curve" smooth="yes"/>
      <point x="245.893" y="217.328"/>
      <point x="306.263" y="106"/>
      <point x="438.093" y="106" type="curve" smooth="yes"/>
      <point x="588.093" y="106"/>
      <point x="720.093" y="244"/>
      <point x="746.093" y="282" type="curve"/>
    </contour>
    <contour>
      <point x="594.093" y="773" type="curve"/>
      <point x="706.365" y="841.011"/>
      <point x="768.443" y="901.708"/>
      <point x="768.443" y="1029.02" type="curve" smooth="yes"/>
      <point x="768.443" y="1116.88"/>
      <point x="720.132" y="1187"/>
      <point x="628.093" y="1187" type="curve" smooth="yes"/>
      <point x="534.297" y="1187"/>
      <point x="465.397" y="1091.22"/>
      <point x="465.397" y="1001.79" type="curve" smooth="yes"/>
      <point x="465.397" y="912.352"/>
      <point x="544.236" y="820.087"/>
    </contour>
  </outline>
</glyph>
<glyph name="parenleft" format="1">
  <advance width="611"/>
  <unicode hex="0028"/>
  <outline>
    <contour>
      <point x="346.627" y="-317" type="curve"/>
      <point x="267.627" y="-375" type="line"/>
      <point x="230.779" y="-333.867"/>
      <point x="50" y="-118.523"/>
      <point x="50" y="260.608" type="curve" smooth="yes"/>
      <point x="50" y="830.997"/>
      <point x="447.87" y="1192.37"/>
      <point x="530.627" y="1255" type="curve"/>
      <point x="569.627" y="1189" type="line"/>
      <point x="461.051" y="1072.07"/>
      <point x="228.501" y="712.894"/>
      <point x="228.501" y="249.21" type="curve" smooth="yes"/>
      <point x="228.501" y="-42.3223"/>
      <point x="320.034" y="-258.173"/>
    </contour>
  </outline>
</glyph>
<glyph name="parenright" format="1">
  <advance width="634"/>
  <unicode hex="0029"/>
  <outline>
    <contour>
      <point x="40" y="-317" type="curve"/>
      <point x="100" y="-375" type="line"/>
      <point x="171.976" y="-316.443"/>
      <point x="579.561" y="12"/>
      <point x="579.561" y="629.219" type="curve" smooth="yes"/>
      <point x="579.561" y="1004.48"/>
      <point x="401.45" y="1207.26"/>
      <point x="352" y="1255" type="curve"/>
      <point x="293" y="1189" type="line"/>
      <point x="344.149" y="1104.75"/>
      <point x="408.877" y="942.418"/>
      <point x="408.877" y="701.556" type="curve" smooth="yes"/>
      <point x="408.877" y="132"/>
      <point x="114.04" y="-220.484"/>
    </contour>
  </outline>
</glyph>
<glyph name="hyphen" format="1">
  <advance width="558"/>
  <unicode hex="002D"/>
  <outline>
    <contour>
      <point x="87" y="499" type="line"/>
      <point x="497" y="517" type="line"/>
      <point x="470" y="416" type="line"/>
      <point x="59" y="398" type="line"/>
    </contour>
  </outline>
</glyph>
<glyph name="period" format="1">
  <advance width="364"/>
  <unicode hex="002E"/>
  <outline>
    <contour>
      <point x="200" y="215" type="curve" smooth="yes"/>
      <point x="263" y="215"/>
      <point x="300" y="161"/>
      <point x="300" y="107" type="curve" smooth="yes"/>
      <point x="300" y="23"/>
      <point x="239" y="-33"/>
      <point x="163" y="-33" type="curve" smooth="yes"/>
      <point x="110" y="-33"/>
      <point x="57" y="23"/>
      <point x="57" y="74" type="curve" smooth="yes"/>
      <point x="57" y="153"/>
      <point x="122" y="215"/>
    </contour>
  </outline>
</glyph>
<glyph name="zero" format="1">
  <advance width="971"/>
  <unicode hex="0030"/>
  <outline>
    <contour>
      <point x="592.422" y="1203" type="curve" smooth="yes"/>
      <point x="790.87" y="1203"/>
      <point x="920.276" y="1067.88"/>
      <point x="920.276" y="779.202" type="curve" smooth="yes"/>
      <point x="920.276" y="245.153"/>
      <point x="632.881" y="-27"/>
      <point x="392.61" y="-27" type="curve" smooth="yes"/>
      <point x="205.319" y="-27"/>
      <point x="51" y="67.5908"/>
      <point x="51" y="382.903" type="curve" smooth="yes"/>
      <point x="51" y="884.802"/>
      <point x="319.752" y="1203"/>
    </contour>
    <contour>
      <point x="255.917" y="334.998" type="curve" smooth="yes"/>
      <point x="255.917" y="183.525"/>
      <point x="299.168" y="70"/>
      <point x="412.973" y="70" type="curve" smooth="yes"/>
      <point x="599.202" y="70"/>
      <point x="714.807" y="489.55"/>
      <point x="714.807" y="834.531" type="curve" smooth="yes"/>
      <point x="714.807" y="983.703"/>
      <point x="673.906" y="1098"/>
      <point x="568.792" y="1098" type="curve" smooth="yes"/>
      <point x="365.829" y="1098"/>
      <point x="255.917" y="680.352"/>
    </contour>
  </outline>
</glyph>
<glyph name="one" format="1">
  <advance width="837"/>
  <unicode hex="0031"/>
  <outline>
    <contour>
      <point x="43" y="0" type="line"/>
      <point x="61.7207" y="74" type="line"/>
      <point x="333.164" y="121" type="line"/>
      <point x="477.294" y="1031" type="line"/>
      <point x="227.294" y="1031" type="line"/>
      <point x="245.49" y="1108" type="line"/>
      <point x="678.686" y="1185" type="line"/>
      <point x="705.686" y="1185" type="line"/>
      <point x="536.056" y="114" type="line"/>
      <point x="793.146" y="83" type="line"/>
      <point x="770" y="0" type="line"/>
    </contour>
  </outline>
</glyph>
<glyph name="two" format="1">
  <advance width="1014"/>
  <unicode hex="0032"/>
  <outline>
    <contour>
      <point x="54.1553" y="102" type="line"/>
      <point x="320.357" y="299" type="line" smooth="yes"/>
      <point x="552.224" y="469.525"/>
      <point x="740.572" y="636.511"/>
      <point x="740.572" y="926.631" type="curve" smooth="yes"/>
      <point x="740.572" y="1024.45"/>
      <point x="707.933" y="1105"/>
      <point x="588.015" y="1105" type="curve" smooth="yes"/>
      <point x="504.015" y="1105"/>
      <point x="424.62" y="1052"/>
      <point x="389.325" y="987" type="curve"/>
      <point x="310.987" y="726" type="line"/>
      <point x="235.571" y="736" type="line"/>
      <point x="253.552" y="1020" type="line"/>
      <point x="327.391" y="1120"/>
      <point x="529.486" y="1209"/>
      <point x="672.486" y="1209" type="curve" smooth="yes"/>
      <point x="863.224" y="1209"/>
      <point x="967.612" y="1113.31"/>
      <point x="967.612" y="943.362" type="curve" smooth="yes"/>
      <point x="967.612" y="597.833"/>
      <point x="579.451" y="352.115"/>
      <point x="351.469" y="205" type="curve" smooth="yes"/>
      <point x="267.916" y="151" type="line"/>
      <point x="721.916" y="151" type="line"/>
      <point x="860.285" y="368" type="line"/>
      <point x="928.701" y="358" type="line"/>
      <point x="824" y="0" type="line"/>
      <point x="44" y="0" type="line"/>
    </contour>
  </outline>
</glyph>
<glyph name="three" format="1">
  <advance width="962"/>
  <unicode hex="0033"/>
  <outline>
    <contour>
      <point x="43" y="74" type="curve"/>
      <point x="141.356" y="373" type="line"/>
      <point x="224.298" y="360" type="line"/>
      <point x="205.146" y="157" type="line"/>
      <point x="221.493" y="115"/>
      <point x="284.683" y="72"/>
      <point x="354.683" y="72" type="curve" smooth="yes"/>
      <point x="510.285" y="72"/>
      <point x="640.56" y="136.854"/>
      <point x="640.56" y="305.312" type="curve" smooth="yes"/>
      <point x="640.56" y="420.662"/>
      <point x="528.781" y="545"/>
      <point x="346.599" y="545" type="curve"/>
      <point x="347.052" y="611" type="line"/>
      <point x="438.623" y="638.646"/>
      <point x="698.766" y="732.322"/>
      <point x="698.766" y="936.801" type="curve" smooth="yes"/>
      <point x="698.766" y="1023.61"/>
      <point x="651.29" y="1124"/>
      <point x="543.304" y="1124" type="curve" smooth="yes"/>
      <point x="489.304" y="1124"/>
      <point x="431.66" y="1101"/>
      <point x="390.434" y="1068" type="curve"/>
      <point x="303.888" y="812" type="line"/>
      <point x="220.63" y="823" type="line"/>
      <point x="244.918" y="1090" type="line"/>
      <point x="296.521" y="1138"/>
      <point x="470.399" y="1213"/>
      <point x="615.399" y="1213" type="curve" smooth="yes"/>
      <point x="789.562" y="1213"/>
      <point x="917.564" y="1119.06"/>
      <point x="917.564" y="979.648" type="curve" smooth="yes"/>
      <point x="917.564" y="787.492"/>
      <point x="713.742" y="694.961"/>
      <point x="580.07" y="649" type="curve"/>
      <point x="578.17" y="637" type="line"/>
      <point x="738.006" y="614.979"/>
      <point x="867.019" y="516.551"/>
      <point x="867.019" y="376.308" type="curve" smooth="yes"/>
      <point x="867.019" y="126.964"/>
      <point x="582.101" y="-30"/>
      <point x="317.527" y="-30" type="curve" smooth="yes"/>
      <point x="183.527" y="-30"/>
      <point x="63.8721" y="29"/>
    </contour>
  </outline>
</glyph>
<glyph name="four" format="1">
  <advance width="1051"/>
  <unicode hex="0034"/>
  <outline>
    <contour>
      <point x="45" y="431" type="line"/>
      <point x="807.848" y="1194" type="line"/>
      <point x="869.996" y="1176" type="line"/>
      <point x="845.148" y="1057"/>
      <point x="810.58" y="864"/>
      <point x="781.913" y="683" type="curve" smooth="yes"/>
      <point x="749.603" y="479" type="line"/>
      <point x="1004.61" y="479" type="line"/>
      <point x="967.537" y="346" type="line"/>
      <point x="728.537" y="346" type="line"/>
      <point x="690.367" y="105" type="line"/>
      <point x="874.299" y="73" type="line"/>
      <point x="852.736" y="0" type="line"/>
      <point x="271.736" y="0" type="line"/>
      <point x="289.189" y="66" type="line"/>
      <point x="511.317" y="111" type="line"/>
      <point x="549.013" y="349" type="line"/>
      <point x="55.0127" y="349" type="line"/>
    </contour>
    <contour>
      <point x="237.603" y="479" type="line"/>
      <point x="566.603" y="479" type="line"/>
      <point x="635.183" y="912" type="line"/>
    </contour>
  </outline>
</glyph>
<glyph name="five" format="1">
  <advance width="928"/>
  <unicode hex="0035"/>
  <outline>
    <contour>
      <point x="43" y="74" type="curve"/>
      <point x="118.574" y="387" type="line"/>
      <point x="200.564" y="368" type="line"/>
      <point x="187.829" y="155" type="line"/>
      <point x="218.008" y="93"/>
      <point x="282.891" y="67"/>
      <point x="364.891" y="67" type="curve" smooth="yes"/>
      <point x="506.143" y="67"/>
      <point x="613.717" y="158.457"/>
      <point x="613.717" y="324.019" type="curve" smooth="yes"/>
      <point x="613.717" y="489.802"/>
      <point x="471.813" y="583.863"/>
      <point x="202.627" y="602" type="curve"/>
      <point x="411.431" y="1169" type="line"/>
      <point x="885.023" y="1198" type="line"/>
      <point x="830.198" y="1016" type="line"/>
      <point x="440.664" y="1000" type="line"/>
      <point x="366.967" y="762" type="line"/>
      <point x="698.626" y="742.925"/>
      <point x="812.205" y="588.078"/>
      <point x="812.205" y="415.676" type="curve" smooth="yes"/>
      <point x="812.205" y="158.311"/>
      <point x="578.934" y="-25"/>
      <point x="306.319" y="-25" type="curve" smooth="yes"/>
      <point x="197.319" y="-25"/>
      <point x="104.804" y="-3"/>
    </contour>
  </outline>
</glyph>
<glyph name="six" format="1">
  <advance width="894"/>
  <unicode hex="0036"/>
  <outline>
    <contour>
      <point x="787.184" y="1214" type="curve"/>
      <point x="814.84" y="1155" type="line"/>
      <point x="534.992" y="1036"/>
      <point x="368.722" y="807"/>
      <point x="297.362" y="609" type="curve"/>
      <point x="308.362" y="609" type="line"/>
      <point x="360.281" y="659"/>
      <point x="451.201" y="709"/>
      <point x="559.201" y="709" type="curve" smooth="yes"/>
      <point x="730.497" y="709"/>
      <point x="842.536" y="585.443"/>
      <point x="842.536" y="412.787" type="curve" smooth="yes"/>
      <point x="842.536" y="128.104"/>
      <point x="601.119" y="-21"/>
      <point x="367.58" y="-21" type="curve" smooth="yes"/>
      <point x="137.782" y="-21"/>
      <point x="48" y="138"/>
      <point x="48" y="344.711" type="curve" smooth="yes"/>
      <point x="48" y="732"/>
      <point x="437.749" y="1106.04"/>
    </contour>
    <contour>
      <point x="246.86" y="312.752" type="curve" smooth="yes"/>
      <point x="246.86" y="168"/>
      <point x="290.387" y="61"/>
      <point x="387.567" y="61" type="curve" smooth="yes"/>
      <point x="562.837" y="61"/>
      <point x="630.683" y="192.969"/>
      <point x="630.683" y="379.679" type="curve" smooth="yes"/>
      <point x="630.683" y="489.188"/>
      <point x="586.724" y="606"/>
      <point x="469.886" y="606" type="curve" smooth="yes"/>
      <point x="395.886" y="606"/>
      <point x="311.077" y="563"/>
      <point x="281.375" y="527" type="curve"/>
      <point x="259.906" y="477"/>
      <point x="246.86" y="405"/>
    </contour>
  </outline>
</glyph>
<glyph name="seven" format="1">
  <advance width="961"/>
  <unicode hex="0037"/>
  <outline>
    <contour>
      <point x="47" y="809" type="line"/>
      <point x="130.077" y="1182" type="line"/>
      <point x="918.077" y="1182" type="line"/>
      <point x="909.842" y="1130" type="line"/>
      <point x="308.64" y="-33" type="line"/>
      <point x="105.125" y="-11" type="line"/>
      <point x="736.627" y="1015" type="line"/>
      <point x="223.627" y="1015" type="line"/>
      <point x="113.941" y="796" type="line"/>
    </contour>
  </outline>
</glyph>
<glyph name="eight" format="1">
  <advance width="914"/>
  <unicode hex="0038"/>
  <outline>
    <contour>
      <point x="327.884" y="575" type="curve"/>
      <point x="329.309" y="584" type="line"/>
      <point x="253.933" y="640.183"/>
      <point x="184.852" y="721.779"/>
      <point x="184.852" y="837.878" type="curve" smooth="yes"/>
      <point x="184.852" y="1042.77"/>
      <point x="384.888" y="1201"/>
      <point x="591.032" y="1201" type="curve" smooth="yes"/>
      <point x="763.672" y="1201"/>
      <point x="869.734" y="1098.62"/>
      <point x="869.734" y="966.641" type="curve" smooth="yes"/>
      <point x="869.734" y="821.381"/>
      <point x="745.367" y="681.685"/>
      <point x="618.021" y="639" type="curve"/>
      <point x="613.437" y="629" type="line"/>
      <point x="728.178" y="534.328"/>
      <point x="809.657" y="437.319"/>
      <point x="809.657" y="321.859" type="curve" smooth="yes"/>
      <point x="809.657" y="97.833"/>
      <point x="618.183" y="-27"/>
      <point x="341.537" y="-27" type="curve" smooth="yes"/>
      <point x="175.29" y="-27"/>
      <point x="44" y="67.5264"/>
      <point x="44" y="228.834" type="curve" smooth="yes"/>
      <point x="44" y="389.372"/>
      <point x="138.424" y="474.16"/>
    </contour>
    <contour>
      <point x="238.358" y="272.577" type="curve" smooth="yes"/>
      <point x="238.358" y="149.498"/>
      <point x="328.812" y="61"/>
      <point x="420.474" y="61" type="curve" smooth="yes"/>
      <point x="512.973" y="61"/>
      <point x="616.773" y="123.098"/>
      <point x="616.773" y="256.194" type="curve" smooth="yes"/>
      <point x="616.773" y="362.003"/>
      <point x="489.107" y="463.417"/>
      <point x="388.231" y="533" type="curve"/>
      <point x="316.033" y="476.465"/>
      <point x="238.358" y="423.662"/>
    </contour>
    <contour>
      <point x="365.134" y="930.291" type="curve" smooth="yes"/>
      <point x="365.134" y="844.371"/>
      <point x="433.941" y="753.699"/>
      <point x="554.197" y="678" type="curve"/>
      <point x="641.922" y="724.679"/>
      <point x="696.681" y="792.797"/>
      <point x="696.681" y="939.233" type="curve" smooth="yes"/>
      <point x="696.681" y="1046.46"/>
      <point x="643.316" y="1124"/>
      <point x="553.837" y="1124" type="curve" smooth="yes"/>
      <point x="435.69" y="1124"/>
      <point x="365.134" y="1026.76"/>
    </contour>
  </outline>
</glyph>
<glyph name="nine" format="1">
  <advance width="873"/>
  <unicode hex="0039"/>
  <outline>
    <contour>
      <point x="517.957" y="1211" type="curve" smooth="yes"/>
      <point x="742.142" y="1211"/>
      <point x="824.456" y="1046.23"/>
      <point x="824.456" y="855.614" type="curve" smooth="yes"/>
      <point x="824.456" y="432"/>
      <point x="480.727" y="40.0928"/>
      <point x="87.877" y="-27" type="curve"/>
      <point x="76.5967" y="47" type="line"/>
      <point x="342.153" y="123"/>
      <point x="522.153" y="345"/>
      <point x="582.224" y="575" type="curve"/>
      <point x="569.224" y="575" type="line"/>
      <point x="491.662" y="502"/>
      <point x="399.961" y="466"/>
      <point x="307.961" y="466" type="curve" smooth="yes"/>
      <point x="143.675" y="466"/>
      <point x="54" y="574.04"/>
      <point x="54" y="736.757" type="curve" smooth="yes"/>
      <point x="54" y="1032.3"/>
      <point x="304.742" y="1211"/>
    </contour>
    <contour>
      <point x="261.354" y="765.698" type="curve" smooth="yes"/>
      <point x="261.354" y="661.744"/>
      <point x="300.398" y="575"/>
      <point x="414.224" y="575" type="curve" smooth="yes"/>
      <point x="484.224" y="575"/>
      <point x="560.085" y="612"/>
      <point x="599.004" y="662" type="curve"/>
      <point x="624.379" y="738.365"/>
      <point x="638.246" y="811.892"/>
      <point x="638.246" y="898.086" type="curve" smooth="yes"/>
      <point x="638.246" y="1025.08"/>
      <point x="593.061" y="1130"/>
      <point x="499.128" y="1130" type="curve" smooth="yes"/>
      <point x="338.997" y="1130"/>
      <point x="261.354" y="972.947"/>
    </contour>
  </outline>
</glyph>
<glyph name="colon" format="1">
  <advance width="428"/>
  <unicode hex="003A"/>
  <outline>
    <contour>
      <point x="281.499" y="852" type="curve" smooth="yes"/>
      <point x="336.553" y="852"/>
      <point x="376.945" y="814.531"/>
      <point x="376.945" y="762.382" type="curve" smooth="yes"/>
      <point x="376.945" y="687.222"/>
      <point x="309.32" y="629"/>
      <point x="245.499" y="629" type="curve" smooth="yes"/>
      <point x="188.979" y="629"/>
      <point x="150.971" y="671.658"/>
      <point x="150.971" y="726.646" type="curve" smooth="yes"/>
      <point x="150.971" y="800.857"/>
      <point x="216.032" y="852"/>
    </contour>
    <contour>
      <point x="182.499" y="225" type="curve" smooth="yes"/>
      <point x="237.553" y="225"/>
      <point x="277.945" y="185.087"/>
      <point x="277.945" y="133.932" type="curve" smooth="yes"/>
      <point x="277.945" y="58.9453"/>
      <point x="209.152" y="2"/>
      <point x="145.499" y="2" type="curve" smooth="yes"/>
      <point x="88.8584" y="2"/>
      <point x="50" y="44.8408"/>
      <point x="50" y="100" type="curve" smooth="yes"/>
      <point x="50" y="172.315"/>
      <point x="117.097" y="225"/>
    </contour>
  </outline>
</glyph>
<glyph name="semicolon" format="1">
  <advance width="488"/>
  <unicode hex="003B"/>
  <outline>
    <contour>
      <point x="45" y="-216.4" type="line"/>
      <point x="166.5" y="-184.9"/>
      <point x="234" y="-109.3"/>
      <point x="234" y="-51.7002" type="curve" smooth="yes"/>
      <point x="234" y="7.0127"/>
      <point x="188.274" y="48.2441"/>
      <point x="116.1" y="30.2002" type="curve"/>
      <point x="92.6445" y="128.711"/>
      <point x="150.3" y="199.4"/>
      <point x="239.399" y="199.4" type="curve" smooth="yes"/>
      <point x="301.5" y="199.4"/>
      <point x="376.199" y="167"/>
      <point x="376.199" y="30.2002" type="curve" smooth="yes"/>
      <point x="376.199" y="-56.2002"/>
      <point x="301.5" y="-217.3"/>
      <point x="54.8994" y="-279.4" type="curve"/>
    </contour>
    <contour>
      <point x="341.6" y="852" type="curve" smooth="yes"/>
      <point x="396.653" y="852"/>
      <point x="437.046" y="814.531"/>
      <point x="437.046" y="762.382" type="curve" smooth="yes"/>
      <point x="437.046" y="687.222"/>
      <point x="369.421" y="629"/>
      <point x="305.6" y="629" type="curve" smooth="yes"/>
      <point x="249.08" y="629"/>
      <point x="211.071" y="671.658"/>
      <point x="211.071" y="726.646" type="curve" smooth="yes"/>
      <point x="211.071" y="800.857"/>
      <point x="276.133" y="852"/>
    </contour>
  </outline>
</glyph>
<glyph name="equal" format="1">
  <advance width="792"/>
  <unicode hex="003D"/>
  <outline>
    <contour>
      <point x="60" y="319" type="line"/>
      <point x="70" y="424" type="line"/>
      <point x="725" y="424" type="line"/>
      <point x="714" y="319" type="line"/>
    </contour>
    <contour>
      <point x="63" y="559" type="line"/>
      <point x="73" y="663" type="line"/>
      <point x="729" y="663" type="line"/>
      <point x="717" y="559" type="line"/>
    </contour>
  </outline>
</glyph>
<glyph name="question" format="1">
  <advance width="648"/>
  <unicode hex="003F"/>
  <outline>
    <contour>
      <point x="320.871" y="1288" type="curve" smooth="yes"/>
      <point x="459.565" y="1288"/>
      <point x="603.062" y="1148.68"/>
      <point x="603.062" y="937.398" type="curve" smooth="yes"/>
      <point x="603.062" y="561"/>
      <point x="249.094" y="744"/>
      <point x="249.094" y="454.049" type="curve" smooth="yes"/>
      <point x="249.094" y="432.538"/>
      <point x="251.122" y="409.777"/>
      <point x="254.871" y="383" type="curve"/>
      <point x="177.871" y="367" type="line"/>
      <point x="160.811" y="401.121"/>
      <point x="132.108" y="476.717"/>
      <point x="132.108" y="548.479" type="curve" smooth="yes"/>
      <point x="132.108" y="827.999"/>
      <point x="499.516" y="715.657"/>
      <point x="499.516" y="960.31" type="curve" smooth="yes"/>
      <point x="499.516" y="1043.6"/>
      <point x="417.484" y="1113"/>
      <point x="362.871" y="1113" type="curve" smooth="yes"/>
      <point x="286.871" y="1113"/>
      <point x="209.871" y="1088"/>
      <point x="159.871" y="1042" type="curve"/>
      <point x="131.992" y="1053.69"/>
      <point x="101.686" y="1090.46"/>
      <point x="101.686" y="1137.02" type="curve" smooth="yes"/>
      <point x="101.686" y="1204.97"/>
      <point x="159.587" y="1288"/>
    </contour>
    <contour>
      <point x="149.871" y="-36" type="curve" smooth="yes"/>
      <point x="88.127" y="-36"/>
      <point x="44" y="9.6416"/>
      <point x="44" y="70.1152" type="curve" smooth="yes"/>
      <point x="44" y="152.712"/>
      <point x="115.89" y="210"/>
      <point x="187.871" y="210" type="curve" smooth="yes"/>
      <point x="249.932" y="210"/>
      <point x="296.168" y="167.519"/>
      <point x="296.168" y="108.404" type="curve" smooth="yes"/>
      <point x="296.168" y="25.8486"/>
      <point x="220.335" y="-36"/>
    </contour>
  </outline>
</glyph>
<glyph name="at" format="1">
  <advance width="1362"/>
  <unicode hex="0040"/>
  <outline>
    <contour>
      <point x="799" y="692" type="line"/>
      <point x="779" y="697"/>
      <point x="743" y="704"/>
      <point x="712" y="704" type="curve" smooth="yes"/>
      <point x="596" y="704"/>
      <point x="512" y="502"/>
      <point x="512" y="350" type="curve" smooth="yes"/>
      <point x="512" y="200"/>
      <point x="538" y="180"/>
      <point x="589" y="180" type="curve" smooth="yes"/>
      <point x="642" y="180"/>
      <point x="694" y="214"/>
      <point x="730" y="254" type="curve"/>
    </contour>
    <contour>
      <point x="817" y="69" type="curve" smooth="yes"/>
      <point x="759" y="69"/>
      <point x="716" y="109"/>
      <point x="726" y="187" type="curve"/>
      <point x="718" y="187" type="line"/>
      <point x="677" y="128"/>
      <point x="601" y="59"/>
      <point x="525" y="59" type="curve" smooth="yes"/>
      <point x="419" y="59"/>
      <point x="353" y="137"/>
      <point x="353" y="307" type="curve" smooth="yes"/>
      <point x="353" y="594"/>
      <point x="600" y="789"/>
      <point x="768" y="789" type="curve" smooth="yes"/>
      <point x="821" y="789"/>
      <point x="873" y="786"/>
      <point x="931" y="773" type="curve"/>
      <point x="935" y="771" type="line"/>
      <point x="953" y="751" type="line"/>
      <point x="898" y="385" type="line" smooth="yes"/>
      <point x="880" y="266"/>
      <point x="863" y="168"/>
      <point x="903" y="168" type="curve" smooth="yes"/>
      <point x="1055" y="168"/>
      <point x="1176" y="355"/>
      <point x="1176" y="558" type="curve" smooth="yes"/>
      <point x="1176" y="822"/>
      <point x="1002" y="955"/>
      <point x="766" y="955" type="curve" smooth="yes"/>
      <point x="437" y="955"/>
      <point x="205" y="654"/>
      <point x="205" y="340" type="curve" smooth="yes"/>
      <point x="205" y="44"/>
      <point x="378" y="-135"/>
      <point x="705" y="-135" type="curve" smooth="yes"/>
      <point x="847" y="-135"/>
      <point x="1002" y="-61"/>
      <point x="1050" y="-28" type="curve"/>
      <point x="1062" y="-20" type="line"/>
      <point x="1095" y="-83" type="line"/>
      <point x="1086" y="-88" type="line"/>
      <point x="1005" y="-142"/>
      <point x="870" y="-228"/>
      <point x="665" y="-228" type="curve" smooth="yes"/>
      <point x="359" y="-228"/>
      <point x="49" y="-93"/>
      <point x="49" y="310" type="curve" smooth="yes"/>
      <point x="49" y="710"/>
      <point x="375" y="1044"/>
      <point x="806" y="1044" type="curve" smooth="yes"/>
      <point x="1087" y="1044"/>
      <point x="1311" y="872"/>
      <point x="1311" y="598" type="curve" smooth="yes"/>
      <point x="1311" y="327"/>
      <point x="1091" y="69"/>
    </contour>
  </outline>
</glyph>
<glyph name="A" format="1">
  <advance width="1379"/>
  <unicode hex="0041"/>
  <outline>
    <contour>
      <point x="984" y="1268" type="line"/>
      <point x="1203" y="124" type="line"/>
      <point x="1332" y="81" type="line"/>
      <point x="1310" y="0" type="line"/>
      <point x="795" y="0" type="line"/>
      <point x="818" y="74" type="line"/>
      <point x="1000" y="129" type="line"/>
      <point x="937" y="433" type="line"/>
      <point x="518" y="433" type="line"/>
      <point x="359" y="124" type="line"/>
      <point x="537" y="81" type="line"/>
      <point x="513" y="0" type="line"/>
      <point x="44" y="0" type="line"/>
      <point x="65" y="74" type="line"/>
      <point x="224" y="129" type="line"/>
      <point x="827" y="1237" type="line"/>
    </contour>
    <contour>
      <point x="570" y="533" type="line"/>
      <point x="922" y="533" type="line"/>
      <point x="836" y="1034" type="line"/>
    </contour>
  </outline>
</glyph>
<glyph name="B" format="1">
  <advance width="1219"/>
  <unicode hex="0042"/>
  <outline>
    <contour>
      <point x="742" y="604" type="curve" smooth="yes"/>
      <point x="519" y="604" type="line"/>
      <point x="430" y="96" type="line"/>
      <point x="633" y="96" type="line" smooth="yes"/>
      <point x="863" y="96"/>
      <point x="968" y="240"/>
      <point x="968" y="380" type="curve" smooth="yes"/>
      <point x="968" y="491"/>
      <point x="896" y="604"/>
    </contour>
    <contour>
      <point x="902" y="680" type="curve"/>
      <point x="900" y="672" type="line"/>
      <point x="1082" y="662"/>
      <point x="1169" y="532"/>
      <point x="1169" y="411" type="curve" smooth="yes"/>
      <point x="1169" y="219"/>
      <point x="970" y="0"/>
      <point x="527" y="0" type="curve" smooth="yes"/>
      <point x="43" y="0" type="line"/>
      <point x="66" y="74" type="line"/>
      <point x="243" y="121" type="line"/>
      <point x="415" y="1105" type="line"/>
      <point x="250" y="1135" type="line"/>
      <point x="273" y="1211" type="line"/>
      <point x="422" y="1232"/>
      <point x="596" y="1257"/>
      <point x="773" y="1257" type="curve" smooth="yes"/>
      <point x="1052" y="1257"/>
      <point x="1163" y="1127"/>
      <point x="1163" y="993" type="curve" smooth="yes"/>
      <point x="1163" y="889"/>
      <point x="1100" y="748"/>
    </contour>
    <contour>
      <point x="618" y="1164" type="curve"/>
      <point x="535" y="689" type="line"/>
      <point x="743" y="689" type="line" smooth="yes"/>
      <point x="878" y="689"/>
      <point x="965" y="787"/>
      <point x="965" y="946" type="curve" smooth="yes"/>
      <point x="965" y="1053"/>
      <point x="905" y="1171"/>
      <point x="699" y="1171" type="curve" smooth="yes"/>
      <point x="674" y="1171"/>
      <point x="646" y="1169"/>
    </contour>
  </outline>
</glyph>
<glyph name="C" format="1">
  <advance width="1190"/>
  <unicode hex="0043"/>
  <outline>
    <contour>
      <point x="662.142" y="106" type="curve" smooth="yes"/>
      <point x="778.142" y="106"/>
      <point x="894.142" y="128"/>
      <point x="1021.14" y="240" type="curve"/>
      <point x="1064.14" y="185" type="line"/>
      <point x="912.142" y="15"/>
      <point x="721.142" y="-25"/>
      <point x="558.142" y="-25" type="curve" smooth="yes"/>
      <point x="284.4" y="-25"/>
      <point x="53" y="197.654"/>
      <point x="53" y="535.259" type="curve" smooth="yes"/>
      <point x="53" y="858.501"/>
      <point x="304.154" y="1270"/>
      <point x="814.142" y="1270" type="curve" smooth="yes"/>
      <point x="946.142" y="1270"/>
      <point x="1064.14" y="1222"/>
      <point x="1148.14" y="1149" type="curve"/>
      <point x="1065.14" y="817" type="line"/>
      <point x="981.142" y="831" type="line"/>
      <point x="973.142" y="1050" type="line"/>
      <point x="937.142" y="1109"/>
      <point x="867.142" y="1174"/>
      <point x="738.142" y="1174" type="curve" smooth="yes"/>
      <point x="497.849" y="1174"/>
      <point x="275.983" y="950.569"/>
      <point x="275.983" y="575.454" type="curve" smooth="yes"/>
      <point x="275.983" y="268.503"/>
      <point x="450.911" y="106"/>
    </contour>
  </outline>
</glyph>
<glyph name="D" format="1">
  <advance width="1462"/>
  <unicode hex="0044"/>
  <outline>
    <contour>
      <point x="601" y="1149" type="curve"/>
      <point x="436" y="104" type="line"/>
      <point x="583" y="104" type="line" smooth="yes"/>
      <point x="956" y="104"/>
      <point x="1191" y="358.96"/>
      <point x="1191" y="674" type="curve" smooth="yes"/>
      <point x="1191" y="946"/>
      <point x="1042" y="1156"/>
      <point x="722" y="1156" type="curve" smooth="yes"/>
      <point x="681" y="1156"/>
      <point x="642" y="1154"/>
    </contour>
    <contour>
      <point x="1416" y="758" type="curve" smooth="yes"/>
      <point x="1416" y="374.936"/>
      <point x="1066" y="0"/>
      <point x="524" y="0" type="curve" smooth="yes"/>
      <point x="43" y="0" type="line"/>
      <point x="68" y="74" type="line"/>
      <point x="250" y="129" type="line"/>
      <point x="402" y="1103" type="line"/>
      <point x="235" y="1133" type="line"/>
      <point x="256" y="1209" type="line"/>
      <point x="457" y="1240"/>
      <point x="631" y="1258"/>
      <point x="776" y="1258" type="curve" smooth="yes"/>
      <point x="1257" y="1258"/>
      <point x="1416" y="1018"/>
    </contour>
  </outline>
</glyph>
<glyph name="E" format="1">
  <advance width="1259"/>
  <unicode hex="0045"/>
  <outline>
    <contour>
      <point x="242" y="1244" type="line"/>
      <point x="1217" y="1244" type="line"/>
      <point x="1148" y="925" type="line"/>
      <point x="1064" y="938" type="line"/>
      <point x="1044" y="1153" type="line"/>
      <point x="592" y="1153" type="line"/>
      <point x="519" y="677" type="line"/>
      <point x="810" y="677" type="line"/>
      <point x="861" y="796" type="line"/>
      <point x="957" y="809" type="line"/>
      <point x="874" y="421" type="line"/>
      <point x="787" y="408" type="line"/>
      <point x="780" y="583" type="line"/>
      <point x="504" y="583" type="line"/>
      <point x="427" y="96" type="line"/>
      <point x="934" y="96" type="line"/>
      <point x="1047" y="325" type="line"/>
      <point x="1130" y="314" type="line"/>
      <point x="1069" y="0" type="line"/>
      <point x="43" y="0" type="line"/>
      <point x="63" y="74" type="line"/>
      <point x="238" y="121" type="line"/>
      <point x="397" y="1126" type="line"/>
      <point x="220" y="1168" type="line"/>
    </contour>
  </outline>
</glyph>
<glyph name="F" format="1">
  <advance width="1116"/>
  <unicode hex="0046"/>
  <outline>
    <contour>
      <point x="242" y="1244" type="line"/>
      <point x="1236" y="1244" type="line"/>
      <point x="1167" y="923" type="line"/>
      <point x="1081" y="936" type="line"/>
      <point x="1057" y="1153" type="line"/>
      <point x="592" y="1153" type="line"/>
      <point x="517" y="670" type="line"/>
      <point x="805" y="670" type="line"/>
      <point x="856" y="791" type="line"/>
      <point x="947" y="804" type="line"/>
      <point x="872" y="413" type="line"/>
      <point x="781" y="398" type="line"/>
      <point x="777" y="578" type="line"/>
      <point x="502" y="578" type="line"/>
      <point x="430" y="122" type="line"/>
      <point x="661" y="84" type="line"/>
      <point x="635" y="0" type="line"/>
      <point x="43" y="0" type="line"/>
      <point x="63" y="74" type="line"/>
      <point x="238" y="121" type="line"/>
      <point x="397" y="1126" type="line"/>
      <point x="220" y="1168" type="line"/>
    </contour>
  </outline>
</glyph>
<glyph name="G" format="1">
  <advance width="1319"/>
  <unicode hex="0047"/>
  <outline>
    <contour>
      <point x="1236.12" y="1163" type="curve"/>
      <point x="1160.12" y="841" type="line"/>
      <point x="1074.12" y="855" type="line"/>
      <point x="1069.12" y="1047" type="line"/>
      <point x="1034.12" y="1100"/>
      <point x="941.116" y="1161"/>
      <point x="759.116" y="1161" type="curve" smooth="yes"/>
      <point x="526.805" y="1161"/>
      <point x="280.929" y="1004.03"/>
      <point x="280.929" y="559.401" type="curve" smooth="yes"/>
      <point x="280.929" y="298.411"/>
      <point x="407.513" y="76"/>
      <point x="686.116" y="76" type="curve" smooth="yes"/>
      <point x="790.116" y="76"/>
      <point x="848.116" y="99"/>
      <point x="876.116" y="122" type="curve"/>
      <point x="924.116" y="434" type="line"/>
      <point x="694.116" y="472" type="line"/>
      <point x="719.116" y="555" type="line"/>
      <point x="1276.12" y="555" type="line"/>
      <point x="1252.12" y="481" type="line"/>
      <point x="1120.12" y="439" type="line"/>
      <point x="1066.12" y="88" type="line"/>
      <point x="954.116" y="15"/>
      <point x="770.116" y="-31"/>
      <point x="549.116" y="-31" type="curve" smooth="yes"/>
      <point x="200.686" y="-31"/>
      <point x="53" y="213.56"/>
      <point x="53" y="489.476" type="curve" smooth="yes"/>
      <point x="53" y="980.67"/>
      <point x="455.73" y="1260"/>
      <point x="825.116" y="1260" type="curve" smooth="yes"/>
      <point x="1018.12" y="1260"/>
      <point x="1145.12" y="1229"/>
    </contour>
  </outline>
</glyph>
<glyph name="H" format="1">
  <advance width="1650"/>
  <unicode hex="0048"/>
  <outline>
    <contour>
      <point x="585" y="0" type="line"/>
      <point x="43" y="0" type="line"/>
      <point x="63" y="74" type="line"/>
      <point x="238" y="121" type="line"/>
      <point x="397" y="1126" type="line"/>
      <point x="220" y="1168" type="line"/>
      <point x="242" y="1244" type="line"/>
      <point x="787" y="1244" type="line"/>
      <point x="765" y="1168" type="line"/>
      <point x="592" y="1130" type="line"/>
      <point x="522" y="692" type="line"/>
      <point x="1150" y="692" type="line"/>
      <point x="1219" y="1126" type="line"/>
      <point x="1041" y="1168" type="line"/>
      <point x="1064" y="1244" type="line"/>
      <point x="1609" y="1244" type="line"/>
      <point x="1586" y="1168" type="line"/>
      <point x="1414" y="1130" type="line"/>
      <point x="1254" y="114" type="line"/>
      <point x="1431" y="81" type="line"/>
      <point x="1407" y="0" type="line"/>
      <point x="864" y="0" type="line"/>
      <point x="887" y="74" type="line"/>
      <point x="1061" y="121" type="line"/>
      <point x="1135" y="590" type="line"/>
      <point x="506" y="590" type="line"/>
      <point x="431" y="114" type="line"/>
      <point x="611" y="81" type="line"/>
    </contour>
  </outline>
</glyph>
<glyph name="I" format="1">
  <advance width="828"/>
  <unicode hex="0049"/>
  <outline>
    <contour>
      <point x="583" y="0" type="line"/>
      <point x="43" y="0" type="line"/>
      <point x="63" y="74" type="line"/>
      <point x="238" y="121" type="line"/>
      <point x="397" y="1126" type="line"/>
      <point x="220" y="1168" type="line"/>
      <point x="242" y="1244" type="line"/>
      <point x="787" y="1244" type="line"/>
      <point x="765" y="1168" type="line"/>
      <point x="590" y="1130" type="line"/>
      <point x="430" y="114" type="line"/>
      <point x="607" y="81" type="line"/>
    </contour>
  </outline>
</glyph>
<glyph name="L" format="1">
  <advance width="1149"/>
  <unicode hex="004C"/>
  <outline>
    <contour>
      <point x="788" y="1244" type="line"/>
      <point x="766" y="1168" type="line"/>
      <point x="588" y="1121" type="line"/>
      <point x="426" y="96" type="line"/>
      <point x="879" y="96" type="line"/>
      <point x="1017" y="344" type="line"/>
      <point x="1101" y="330" type="line"/>
      <point x="1042" y="0" type="line"/>
      <point x="43" y="0" type="line"/>
      <point x="63" y="74" type="line"/>
      <point x="238" y="121" type="line"/>
      <point x="395" y="1118" type="line"/>
      <point x="213" y="1168" type="line"/>
      <point x="238" y="1244" type="line"/>
    </contour>
  </outline>
</glyph>
<glyph name="N" format="1">
  <advance width="1580"/>
  <unicode hex="004E"/>
  <outline>
    <contour>
      <point x="1004" y="-30" type="line"/>
      <point x="499" y="961" type="line"/>
      <point x="365" y="114" type="line"/>
      <point x="543" y="81" type="line"/>
      <point x="520" y="0" type="line"/>
      <point x="44" y="0" type="line"/>
      <point x="64" y="74" type="line"/>
      <point x="239" y="121" type="line"/>
      <point x="396" y="1118" type="line"/>
      <point x="221" y="1168" type="line"/>
      <point x="243" y="1244" type="line"/>
      <point x="591" y="1244" type="line"/>
      <point x="1085" y="262" type="line"/>
      <point x="1220" y="1126" type="line"/>
      <point x="1040" y="1168" type="line"/>
      <point x="1063" y="1244" type="line"/>
      <point x="1539" y="1244" type="line"/>
      <point x="1514" y="1168" type="line"/>
      <point x="1342" y="1130" type="line"/>
      <point x="1164" y="2" type="line"/>
    </contour>
  </outline>
</glyph>
<glyph name="O" format="1">
  <advance width="1344"/>
  <unicode hex="004F"/>
  <outline>
    <contour>
      <point x="737" y="1176" type="curve" smooth="yes"/>
      <point x="321" y="1176"/>
      <point x="283" y="800"/>
      <point x="283" y="547" type="curve" smooth="yes"/>
      <point x="283" y="313.946"/>
      <point x="386" y="79"/>
      <point x="614" y="79" type="curve" smooth="yes"/>
      <point x="1025" y="79"/>
      <point x="1073" y="466.98"/>
      <point x="1073" y="693" type="curve" smooth="yes"/>
      <point x="1073" y="924"/>
      <point x="967" y="1176"/>
    </contour>
    <contour>
      <point x="1297" y="725" type="curve" smooth="yes"/>
      <point x="1297" y="326.938"/>
      <point x="1039" y="-26"/>
      <point x="568" y="-26" type="curve" smooth="yes"/>
      <point x="211" y="-26"/>
      <point x="54" y="213.958"/>
      <point x="54" y="515" type="curve" smooth="yes"/>
      <point x="54" y="958"/>
      <point x="328" y="1273"/>
      <point x="782" y="1273" type="curve" smooth="yes"/>
      <point x="1131" y="1273"/>
      <point x="1297" y="1016"/>
    </contour>
  </outline>
</glyph>
<glyph name="Q" format="1">
  <advance width="1362"/>
  <unicode hex="0051"/>
  <outline>
    <contour>
      <point x="754" y="1168" type="curve" smooth="yes"/>
      <point x="453" y="1168"/>
      <point x="267" y="924"/>
      <point x="267" y="560" type="curve" smooth="yes"/>
      <point x="267" y="344.979"/>
      <point x="360" y="86"/>
      <point x="666" y="68" type="curve"/>
      <point x="1051" y="162"/>
      <point x="1099" y="461.979"/>
      <point x="1099" y="680" type="curve" smooth="yes"/>
      <point x="1099" y="928"/>
      <point x="977" y="1168"/>
    </contour>
    <contour>
      <point x="605" y="-21" type="curve"/>
      <point x="595" y="-24"/>
      <point x="566" y="-26"/>
      <point x="551" y="-26" type="curve" smooth="yes"/>
      <point x="250" y="-26"/>
      <point x="54" y="213.958"/>
      <point x="54" y="515" type="curve" smooth="yes"/>
      <point x="54" y="964"/>
      <point x="349" y="1273"/>
      <point x="797" y="1273" type="curve" smooth="yes"/>
      <point x="1141" y="1273"/>
      <point x="1315" y="1008"/>
      <point x="1315" y="723" type="curve" smooth="yes"/>
      <point x="1315" y="375.929"/>
      <point x="1084" y="77"/>
      <point x="724" y="-7" type="curve"/>
      <point x="760" y="-142"/>
      <point x="835" y="-228"/>
      <point x="1116" y="-276" type="curve"/>
      <point x="1111" y="-301"/>
      <point x="1102" y="-332"/>
      <point x="1092" y="-350" type="curve"/>
      <point x="1024" y="-380"/>
      <point x="965" y="-385"/>
      <point x="909" y="-385" type="curve" smooth="yes"/>
      <point x="727" y="-385"/>
      <point x="587" y="-249"/>
    </contour>
  </outline>
</glyph>
<glyph name="R" format="1">
  <advance width="1296"/>
  <unicode hex="0052"/>
  <outline>
    <contour>
      <point x="1160" y="978" type="curve" smooth="yes"/>
      <point x="1160" y="822.971"/>
      <point x="1048" y="675"/>
      <point x="827" y="599" type="curve"/>
      <point x="829" y="598" type="line"/>
      <point x="967" y="348" type="line" smooth="yes"/>
      <point x="1059" y="186"/>
      <point x="1101" y="118"/>
      <point x="1218" y="78" type="curve" smooth="yes"/>
      <point x="1248" y="68" type="line"/>
      <point x="1223" y="-2" type="line"/>
      <point x="1178" y="-17"/>
      <point x="1137" y="-21"/>
      <point x="1099" y="-21" type="curve" smooth="yes"/>
      <point x="940" y="-21"/>
      <point x="851" y="98"/>
      <point x="787" y="253" type="curve" smooth="yes"/>
      <point x="672" y="537" type="line"/>
      <point x="498" y="537" type="line"/>
      <point x="436" y="126" type="line"/>
      <point x="616" y="83" type="line"/>
      <point x="592" y="0" type="line"/>
      <point x="44" y="0" type="line"/>
      <point x="66" y="74" type="line"/>
      <point x="242" y="121" type="line"/>
      <point x="396" y="1102" type="line"/>
      <point x="229" y="1131" type="line"/>
      <point x="252" y="1207" type="line"/>
      <point x="402" y="1230"/>
      <point x="567" y="1253"/>
      <point x="716" y="1253" type="curve" smooth="yes"/>
      <point x="984" y="1253"/>
      <point x="1160" y="1174"/>
    </contour>
    <contour>
      <point x="677" y="628" type="line" smooth="yes"/>
      <point x="811" y="628"/>
      <point x="956" y="765.975"/>
      <point x="956" y="943" type="curve" smooth="yes"/>
      <point x="956" y="1086"/>
      <point x="871" y="1169"/>
      <point x="719" y="1169" type="curve" smooth="yes"/>
      <point x="648" y="1169"/>
      <point x="597" y="1164"/>
      <point x="597" y="1164" type="curve"/>
      <point x="511" y="628" type="line"/>
    </contour>
  </outline>
</glyph>
<glyph name="backslash" format="1">
  <advance width="433"/>
  <unicode hex="005C"/>
  <outline>
    <contour>
      <point x="179" y="1235" type="line"/>
      <point x="389" y="-363" type="line"/>
      <point x="261" y="-355" type="line"/>
      <point x="48" y="1244" type="line"/>
    </contour>
  </outline>
</glyph>
<glyph name="bracketright" format="1">
  <advance width="616"/>
  <unicode hex="005D"/>
  <outline>
    <contour>
      <point x="41" y="-375" type="line"/>
      <point x="46" y="-279" type="line"/>
      <point x="191" y="-259" type="line"/>
      <point x="414" y="1146" type="line"/>
      <point x="277" y="1166" type="line"/>
      <point x="302" y="1255" type="line"/>
      <point x="573" y="1255" type="line"/>
      <point x="317" y="-377" type="line"/>
    </contour>
  </outline>
</glyph>
<glyph name="underscore" format="1">
  <advance width="970"/>
  <unicode hex="005F"/>
  <outline>
    <contour>
      <point x="63" y="-132" type="line"/>
      <point x="75" y="-27" type="line"/>
      <point x="903" y="-27" type="line"/>
      <point x="892" y="-132" type="line"/>
    </contour>
  </outline>
</glyph>
<glyph name="grave" format="1">
  <advance width="406"/>
  <unicode hex="0060"/>
  <outline>
    <contour>
      <point x="79" y="1659" type="line"/>
      <point x="194" y="1697" type="line"/>
      <point x="326" y="1364" type="line"/>
      <point x="270" y="1329" type="line"/>
    </contour>
  </outline>
</glyph>
<glyph name="a" format="1">
  <advance width="839"/>
  <unicode hex="0061"/>
  <outline>
    <contour>
      <point x="714" y="96" type="curve" smooth="yes"/>
      <point x="790" y="84" type="line" smooth="yes"/>
      <point x="772" y="15" type="line"/>
      <point x="737" y="2"/>
      <point x="681" y="-17"/>
      <point x="621" y="-17" type="curve" smooth="yes"/>
      <point x="527.899" y="-17"/>
      <point x="472" y="44"/>
      <point x="496" y="132" type="curve"/>
      <point x="484" y="132" type="line"/>
      <point x="438" y="49"/>
      <point x="349" y="-21"/>
      <point x="248" y="-21" type="curve" smooth="yes"/>
      <point x="126" y="-21"/>
      <point x="47" y="91"/>
      <point x="47" y="274" type="curve" smooth="yes"/>
      <point x="47" y="667"/>
      <point x="336" y="885"/>
      <point x="557" y="885" type="curve" smooth="yes"/>
      <point x="634.276" y="885"/>
      <point x="723.328" y="875.918"/>
      <point x="758" y="832" type="curve"/>
      <point x="686" y="378" type="line" smooth="yes"/>
      <point x="651" y="153"/>
      <point x="655" y="105"/>
    </contour>
    <contour>
      <point x="587" y="746" type="line"/>
      <point x="559" y="772"/>
      <point x="514" y="781"/>
      <point x="468" y="781" type="curve" smooth="yes"/>
      <point x="308" y="781"/>
      <point x="208" y="533"/>
      <point x="208" y="320" type="curve" smooth="yes"/>
      <point x="208" y="171"/>
      <point x="250" y="106"/>
      <point x="329" y="106" type="curve" smooth="yes"/>
      <point x="405" y="106"/>
      <point x="455" y="150"/>
      <point x="501" y="201" type="curve"/>
    </contour>
  </outline>
</glyph>
<glyph name="b" format="1">
  <advance width="843"/>
  <unicode hex="0062"/>
  <outline>
    <contour>
      <point x="216" y="1126" type="line"/>
      <point x="82" y="1149" type="line"/>
      <point x="92" y="1225" type="line"/>
      <point x="365" y="1250" type="line"/>
      <point x="385" y="1227" type="line"/>
      <point x="323" y="842" type="line"/>
      <point x="297" y="722" type="line"/>
      <point x="309" y="722" type="line"/>
      <point x="362" y="813"/>
      <point x="473" y="890"/>
      <point x="565" y="890" type="curve" smooth="yes"/>
      <point x="702" y="890"/>
      <point x="794" y="720"/>
      <point x="794" y="535" type="curve" smooth="yes"/>
      <point x="794" y="228"/>
      <point x="573" y="-23"/>
      <point x="276" y="-23" type="curve" smooth="yes"/>
      <point x="203" y="-23"/>
      <point x="100" y="-1"/>
      <point x="44" y="50" type="curve"/>
    </contour>
    <contour>
      <point x="626" y="505" type="curve" smooth="yes"/>
      <point x="626" y="604"/>
      <point x="579" y="748"/>
      <point x="485" y="748" type="curve" smooth="yes"/>
      <point x="397" y="748"/>
      <point x="348" y="711"/>
      <point x="300" y="666" type="curve"/>
      <point x="214" y="155" type="line"/>
      <point x="240" y="114"/>
      <point x="304" y="89"/>
      <point x="375" y="89" type="curve" smooth="yes"/>
      <point x="466" y="89"/>
      <point x="626" y="178"/>
    </contour>
  </outline>
</glyph>
<glyph name="c" format="1">
  <advance width="708"/>
  <unicode hex="0063"/>
  <outline>
    <contour>
      <point x="371" y="92" type="curve" smooth="yes"/>
      <point x="454" y="92"/>
      <point x="504" y="122"/>
      <point x="554" y="157" type="curve"/>
      <point x="578" y="106" type="line"/>
      <point x="517" y="30"/>
      <point x="407" y="-30"/>
      <point x="310" y="-30" type="curve" smooth="yes"/>
      <point x="148" y="-30"/>
      <point x="47" y="92"/>
      <point x="47" y="307" type="curve" smooth="yes"/>
      <point x="47" y="674"/>
      <point x="325" y="900"/>
      <point x="497" y="900" type="curve" smooth="yes"/>
      <point x="604" y="900"/>
      <point x="665" y="842"/>
      <point x="665" y="756" type="curve" smooth="yes"/>
      <point x="665" y="687"/>
      <point x="600" y="649"/>
      <point x="526" y="642" type="curve"/>
      <point x="521" y="710"/>
      <point x="503" y="806"/>
      <point x="447" y="806" type="curve" smooth="yes"/>
      <point x="350" y="806"/>
      <point x="219" y="621"/>
      <point x="219" y="330" type="curve" smooth="yes"/>
      <point x="219" y="191"/>
      <point x="264" y="92"/>
    </contour>
  </outline>
</glyph>
<glyph name="d" format="1">
  <advance width="861"/>
  <unicode hex="0064"/>
  <outline>
    <contour>
      <point x="700" y="97" type="curve" smooth="yes"/>
      <point x="766" y="86" type="line"/>
      <point x="747" y="17" type="line"/>
      <point x="714" y="4"/>
      <point x="664" y="-15"/>
      <point x="608" y="-15" type="curve" smooth="yes"/>
      <point x="522" y="-15"/>
      <point x="491" y="26"/>
      <point x="489" y="74" type="curve" smooth="yes"/>
      <point x="489" y="97"/>
      <point x="492" y="120"/>
      <point x="494" y="132" type="curve"/>
      <point x="481" y="132" type="line"/>
      <point x="435" y="49"/>
      <point x="346" y="-21"/>
      <point x="245" y="-21" type="curve" smooth="yes"/>
      <point x="123" y="-21"/>
      <point x="46" y="61"/>
      <point x="46" y="271" type="curve" smooth="yes"/>
      <point x="46" y="634"/>
      <point x="302" y="885"/>
      <point x="520" y="885" type="curve" smooth="yes"/>
      <point x="563" y="885"/>
      <point x="595" y="860"/>
      <point x="613" y="835" type="curve"/>
      <point x="619" y="835" type="line"/>
      <point x="651" y="1140" type="line"/>
      <point x="511" y="1166" type="line"/>
      <point x="524" y="1239" type="line"/>
      <point x="798" y="1263" type="line"/>
      <point x="818" y="1240" type="line"/>
      <point x="684" y="380" type="line" smooth="yes"/>
      <point x="646" y="132"/>
      <point x="646" y="107"/>
    </contour>
    <contour>
      <point x="496" y="201" type="curve"/>
      <point x="581" y="735" type="line"/>
      <point x="556" y="756"/>
      <point x="525" y="781"/>
      <point x="466" y="781" type="curve" smooth="yes"/>
      <point x="306" y="781"/>
      <point x="208" y="538"/>
      <point x="208" y="330" type="curve" smooth="yes"/>
      <point x="208" y="168"/>
      <point x="253" y="106"/>
      <point x="332" y="106" type="curve" smooth="yes"/>
      <point x="410" y="106"/>
      <point x="451" y="150"/>
    </contour>
  </outline>
</glyph>
<glyph name="e" format="1">
  <advance width="696"/>
  <unicode hex="0065"/>
  <outline>
    <contour>
      <point x="221.174" y="469" type="curve"/>
      <point x="356.759" y="452.859"/>
      <point x="500.807" y="498"/>
      <point x="500.807" y="663.138" type="curve" smooth="yes"/>
      <point x="500.807" y="734.63"/>
      <point x="467.434" y="798"/>
      <point x="409.174" y="798" type="curve" smooth="yes"/>
      <point x="333" y="798"/>
      <point x="234" y="732"/>
    </contour>
    <contour>
      <point x="47.1738" y="289" type="curve" smooth="yes"/>
      <point x="40.1738" y="608"/>
      <point x="246.174" y="890"/>
      <point x="469.174" y="890" type="curve" smooth="yes"/>
      <point x="580.351" y="890"/>
      <point x="651.402" y="813.355"/>
      <point x="651.402" y="691.778" type="curve" smooth="yes"/>
      <point x="651.402" y="455.35"/>
      <point x="370.174" y="372"/>
      <point x="212.174" y="396" type="curve"/>
      <point x="200.402" y="210"/>
      <point x="237.775" y="102"/>
      <point x="359.174" y="102" type="curve" smooth="yes"/>
      <point x="471" y="102"/>
      <point x="550.226" y="152"/>
      <point x="579.174" y="177" type="curve"/>
      <point x="605.174" y="132" type="line"/>
      <point x="560.174" y="63"/>
      <point x="431.174" y="-30"/>
      <point x="295.174" y="-30" type="curve" smooth="yes"/>
      <point x="137.174" y="-30"/>
      <point x="50.1738" y="68"/>
    </contour>
  </outline>
</glyph>
<glyph name="f" format="1">
  <advance width="656"/>
  <unicode hex="0066"/>
  <outline>
    <contour>
      <point x="826" y="1193" type="curve" smooth="yes"/>
      <point x="826" y="1157"/>
      <point x="808.622" y="1112"/>
      <point x="769" y="1090" type="curve"/>
      <point x="736.027" y="1125.64"/>
      <point x="668.873" y="1188"/>
      <point x="603" y="1188" type="curve" smooth="yes"/>
      <point x="499.149" y="1188"/>
      <point x="487" y="1002"/>
      <point x="459" y="858" type="curve"/>
      <point x="639" y="858" type="line"/>
      <point x="621" y="768" type="line"/>
      <point x="446" y="768" type="line"/>
      <point x="342" y="109" type="line"/>
      <point x="550" y="79" type="line"/>
      <point x="532" y="2" type="line"/>
      <point x="43" y="2" type="line"/>
      <point x="60" y="76" type="line"/>
      <point x="184" y="109" type="line"/>
      <point x="285" y="768" type="line"/>
      <point x="136" y="768" type="line"/>
      <point x="150" y="836" type="line"/>
      <point x="307" y="872" type="line"/>
      <point x="355" y="1126"/>
      <point x="531" y="1306"/>
      <point x="674" y="1306" type="curve" smooth="yes"/>
      <point x="779.47" y="1306"/>
      <point x="826" y="1265"/>
    </contour>
  </outline>
</glyph>
<glyph name="g" format="1">
  <advance width="839"/>
  <unicode hex="0067"/>
  <outline>
    <contour>
      <point x="371.209" y="542" type="curve" smooth="yes"/>
      <point x="371.209" y="462.527"/>
      <point x="409.487" y="380"/>
      <point x="481.209" y="380" type="curve" smooth="yes"/>
      <point x="593.439" y="380"/>
      <point x="642.209" y="533.332"/>
      <point x="642.209" y="661" type="curve" smooth="yes"/>
      <point x="642.209" y="740.931"/>
      <point x="619.271" y="822"/>
      <point x="549.209" y="822" type="curve" smooth="yes"/>
      <point x="434.132" y="822"/>
      <point x="371.209" y="667.387"/>
    </contour>
    <contour>
      <point x="473.209" y="169" type="curve" smooth="yes"/>
      <point x="653.743" y="161"/>
      <point x="810" y="130.337"/>
      <point x="810" y="-69" type="curve" smooth="yes"/>
      <point x="810" y="-240.68"/>
      <point x="570.269" y="-375"/>
      <point x="339" y="-375" type="curve" smooth="yes"/>
      <point x="185.377" y="-375"/>
      <point x="26.3493" y="-324.852"/>
      <point x="24" y="-177" type="curve"/>
      <point x="24" y="-73.7544"/>
      <point x="140.541" y="11.0335"/>
      <point x="234.209" y="37" type="curve"/>
      <point x="234.209" y="45" type="line"/>
      <point x="193.474" y="61.1367"/>
      <point x="148.209" y="88.3675"/>
      <point x="148.209" y="163" type="curve" smooth="yes"/>
      <point x="148.209" y="234.571"/>
      <point x="258.209" y="307.097"/>
      <point x="330.209" y="330" type="curve"/>
      <point x="325.209" y="338" type="line"/>
      <point x="286.733" y="354.302"/>
      <point x="219.209" y="443.962"/>
      <point x="219.209" y="530" type="curve" smooth="yes"/>
      <point x="219.209" y="725.403"/>
      <point x="396.816" y="897"/>
      <point x="582.209" y="897" type="curve" smooth="yes"/>
      <point x="648.209" y="897"/>
      <point x="700.542" y="876"/>
      <point x="739.209" y="834" type="curve"/>
      <point x="940.209" y="859" type="line"/>
      <point x="957.209" y="836" type="line"/>
      <point x="912.209" y="715" type="line"/>
      <point x="896.209" y="715" type="line"/>
      <point x="777.209" y="755" type="line"/>
      <point x="775.209" y="738" type="line"/>
      <point x="789" y="720"/>
      <point x="790.209" y="667.667"/>
      <point x="790.209" y="631" type="curve" smooth="yes"/>
      <point x="790.209" y="438"/>
      <point x="581" y="278"/>
      <point x="408.209" y="311" type="curve"/>
      <point x="370.482" y="299"/>
      <point x="325.209" y="259.962"/>
      <point x="325.209" y="220" type="curve" smooth="yes"/>
      <point x="325.209" y="175.12"/>
      <point x="376" y="173"/>
    </contour>
    <contour>
      <point x="309.209" y="22" type="curve"/>
      <point x="257.097" y="8.2676"/>
      <point x="173.209" y="-54"/>
      <point x="173.209" y="-128" type="curve" smooth="yes"/>
      <point x="173.209" y="-220.012"/>
      <point x="281.227" y="-279"/>
      <point x="399.209" y="-279" type="curve" smooth="yes"/>
      <point x="530.847" y="-279"/>
      <point x="639" y="-219.479"/>
      <point x="639" y="-132" type="curve" smooth="yes"/>
      <point x="639" y="21"/>
      <point x="495.607" y="22"/>
    </contour>
  </outline>
</glyph>
<glyph name="h" format="1">
  <advance width="954"/>
  <unicode hex="0068"/>
  <outline>
    <contour>
      <point x="866" y="613" type="curve" smooth="yes"/>
      <point x="783" y="101" type="line"/>
      <point x="907" y="73" type="line"/>
      <point x="886" y="0" type="line"/>
      <point x="615" y="0" type="line"/>
      <point x="699" y="525" type="line" smooth="yes"/>
      <point x="720" y="662"/>
      <point x="703" y="745"/>
      <point x="620" y="745" type="curve" smooth="yes"/>
      <point x="526" y="745"/>
      <point x="471" y="698"/>
      <point x="433" y="662" type="curve"/>
      <point x="344" y="102" type="line"/>
      <point x="466" y="71" type="line"/>
      <point x="448" y="0" type="line"/>
      <point x="43" y="0" type="line"/>
      <point x="65" y="74" type="line"/>
      <point x="185" y="107" type="line"/>
      <point x="347" y="1126" type="line"/>
      <point x="213" y="1149" type="line"/>
      <point x="225" y="1225" type="line"/>
      <point x="499" y="1250" type="line"/>
      <point x="521" y="1227" type="line"/>
      <point x="459" y="846" type="line"/>
      <point x="431" y="722" type="line"/>
      <point x="443" y="722" type="line"/>
      <point x="499" y="796"/>
      <point x="606" y="893"/>
      <point x="727" y="893" type="curve" smooth="yes"/>
      <point x="844" y="893"/>
      <point x="897" y="811"/>
    </contour>
  </outline>
</glyph>
<glyph name="i" format="1">
  <advance width="579"/>
  <unicode hex="0069"/>
  <outline>
    <contour>
      <point x="185" y="106" type="line"/>
      <point x="285" y="746" type="line"/>
      <point x="155" y="768" type="line"/>
      <point x="165" y="844" type="line"/>
      <point x="439" y="869" type="line"/>
      <point x="459" y="846" type="line"/>
      <point x="343" y="102" type="line"/>
      <point x="469" y="71" type="line"/>
      <point x="452" y="-2" type="line"/>
      <point x="44" y="-2" type="line"/>
      <point x="62" y="73" type="line"/>
    </contour>
    <contour>
      <point x="444" y="1291" type="curve" smooth="yes"/>
      <point x="495" y="1291"/>
      <point x="534" y="1244"/>
      <point x="534" y="1194" type="curve" smooth="yes"/>
      <point x="534" y="1118"/>
      <point x="480" y="1067"/>
      <point x="411" y="1067" type="curve" smooth="yes"/>
      <point x="361" y="1067"/>
      <point x="313" y="1118"/>
      <point x="313" y="1164" type="curve" smooth="yes"/>
      <point x="313" y="1237"/>
      <point x="373" y="1291"/>
    </contour>
  </outline>
</glyph>
<glyph name="j" format="1">
  <advance width="703"/>
  <unicode hex="006A"/>
  <outline>
    <contour>
      <point x="561" y="1293" type="curve" smooth="yes"/>
      <point x="615" y="1293"/>
      <point x="658" y="1243"/>
      <point x="658" y="1192" type="curve" smooth="yes"/>
      <point x="658" y="1113"/>
      <point x="601" y="1057"/>
      <point x="528" y="1057" type="curve" smooth="yes"/>
      <point x="475" y="1057"/>
      <point x="427" y="1108"/>
      <point x="427" y="1159" type="curve" smooth="yes"/>
      <point x="427" y="1230"/>
      <point x="487" y="1293"/>
    </contour>
    <contour>
      <point x="42" y="-307" type="line"/>
      <point x="191" y="-198"/>
      <point x="275" y="-69"/>
      <point x="300" y="99" type="curve" smooth="yes"/>
      <point x="402" y="748" type="line"/>
      <point x="270" y="770" type="line"/>
      <point x="280" y="846" type="line"/>
      <point x="554" y="870" type="line"/>
      <point x="576" y="847" type="line"/>
      <point x="455" y="86" type="line" smooth="yes"/>
      <point x="410" y="-196"/>
      <point x="196" y="-336"/>
      <point x="92" y="-386" type="curve"/>
    </contour>
  </outline>
</glyph>
<glyph name="k" format="1">
  <advance width="1000"/>
  <unicode hex="006B"/>
  <outline>
    <contour>
      <point x="419" y="434" type="line"/>
      <point x="422" y="451" type="line"/>
      <point x="685" y="770" type="line"/>
      <point x="563" y="803" type="line"/>
      <point x="578" y="874" type="line"/>
      <point x="958" y="874" type="line"/>
      <point x="936" y="798" type="line"/>
      <point x="804" y="765" type="line"/>
      <point x="565" y="487" type="line"/>
      <point x="614" y="383" type="line" smooth="yes"/>
      <point x="700" y="196"/>
      <point x="734" y="90"/>
      <point x="860" y="73" type="curve" smooth="yes"/>
      <point x="895" y="68" type="line"/>
      <point x="873" y="-2" type="line"/>
      <point x="853" y="-7"/>
      <point x="781" y="-20"/>
      <point x="740" y="-20" type="curve" smooth="yes"/>
      <point x="621" y="-20"/>
      <point x="574" y="64"/>
      <point x="480" y="287" type="curve"/>
    </contour>
    <contour>
      <point x="185" y="107" type="line"/>
      <point x="347" y="1126" type="line"/>
      <point x="214" y="1148" type="line"/>
      <point x="226" y="1224" type="line"/>
      <point x="498" y="1249" type="line"/>
      <point x="520" y="1225" type="line"/>
      <point x="343" y="104" type="line"/>
      <point x="469" y="73" type="line"/>
      <point x="452" y="0" type="line"/>
      <point x="44" y="0" type="line"/>
      <point x="61" y="74" type="line"/>
    </contour>
  </outline>
</glyph>
<glyph name="l" format="1">
  <advance width="562"/>
  <unicode hex="006C"/>
  <outline>
    <contour>
      <point x="184" y="107" type="line"/>
      <point x="346" y="1126" type="line"/>
      <point x="213" y="1148" type="line"/>
      <point x="225" y="1224" type="line"/>
      <point x="497" y="1249" type="line"/>
      <point x="519" y="1225" type="line"/>
      <point x="342" y="104" type="line"/>
      <point x="469" y="73" type="line"/>
      <point x="451" y="0" type="line"/>
      <point x="43" y="0" type="line"/>
      <point x="61" y="74" type="line"/>
    </contour>
  </outline>
</glyph>
<glyph name="m" format="1">
  <advance width="1391"/>
  <unicode hex="006D"/>
  <outline>
    <contour>
      <point x="1293" y="613" type="curve" smooth="yes"/>
      <point x="1218" y="101" type="line"/>
      <point x="1342" y="73" type="line"/>
      <point x="1321" y="0" type="line"/>
      <point x="1058" y="0" type="line"/>
      <point x="1047" y="13" type="line"/>
      <point x="1126" y="525" type="line" smooth="yes"/>
      <point x="1147" y="665"/>
      <point x="1131" y="746"/>
      <point x="1062" y="746" type="curve" smooth="yes"/>
      <point x="968" y="746"/>
      <point x="906" y="698"/>
      <point x="870" y="662" type="curve"/>
      <point x="867" y="637"/>
      <point x="854" y="549"/>
      <point x="847" y="509" type="curve" smooth="yes"/>
      <point x="822" y="352" type="line"/>
      <point x="783" y="102" type="line"/>
      <point x="906" y="74" type="line"/>
      <point x="885" y="2" type="line"/>
      <point x="622" y="2" type="line"/>
      <point x="611" y="15" type="line"/>
      <point x="693" y="525" type="line" smooth="yes"/>
      <point x="713" y="652"/>
      <point x="709" y="746"/>
      <point x="626" y="746" type="curve" smooth="yes"/>
      <point x="542" y="746"/>
      <point x="475" y="698"/>
      <point x="437" y="662" type="curve"/>
      <point x="350" y="104" type="line"/>
      <point x="472" y="73" type="line"/>
      <point x="454" y="0" type="line"/>
      <point x="44" y="0" type="line"/>
      <point x="66" y="76" type="line"/>
      <point x="186" y="109" type="line"/>
      <point x="282" y="742" type="line"/>
      <point x="152" y="763" type="line"/>
      <point x="165" y="846" type="line"/>
      <point x="446" y="870" type="line"/>
      <point x="467" y="847" type="line"/>
      <point x="436" y="722" type="line"/>
      <point x="447" y="722" type="line"/>
      <point x="477" y="768"/>
      <point x="589" y="893"/>
      <point x="731" y="893" type="curve" smooth="yes"/>
      <point x="815" y="893"/>
      <point x="878" y="846"/>
      <point x="873" y="730" type="curve"/>
      <point x="885" y="730" type="line"/>
      <point x="941" y="804"/>
      <point x="1036" y="893"/>
      <point x="1162" y="893" type="curve" smooth="yes"/>
      <point x="1286" y="893"/>
      <point x="1319" y="801"/>
    </contour>
  </outline>
</glyph>
<glyph name="n" format="1">
  <advance width="952"/>
  <unicode hex="006E"/>
  <outline>
    <contour>
      <point x="858" y="613" type="curve" smooth="yes"/>
      <point x="779" y="104" type="line"/>
      <point x="903" y="76" type="line"/>
      <point x="882" y="3" type="line"/>
      <point x="616" y="3" type="line"/>
      <point x="604" y="17" type="line"/>
      <point x="687" y="525" type="line" smooth="yes"/>
      <point x="715" y="702"/>
      <point x="689" y="743"/>
      <point x="616" y="743" type="curve" smooth="yes"/>
      <point x="533" y="743"/>
      <point x="477" y="707"/>
      <point x="432" y="664" type="curve"/>
      <point x="343" y="106" type="line"/>
      <point x="465" y="74" type="line"/>
      <point x="447" y="2" type="line"/>
      <point x="44" y="2" type="line"/>
      <point x="66" y="74" type="line"/>
      <point x="186" y="107" type="line"/>
      <point x="282" y="742" type="line"/>
      <point x="152" y="763" type="line"/>
      <point x="165" y="846" type="line"/>
      <point x="442" y="870" type="line"/>
      <point x="464" y="847" type="line"/>
      <point x="429" y="722" type="line"/>
      <point x="441" y="722" type="line"/>
      <point x="497" y="796"/>
      <point x="619" y="893"/>
      <point x="728" y="893" type="curve" smooth="yes"/>
      <point x="834" y="893"/>
      <point x="891" y="834"/>
    </contour>
  </outline>
</glyph>
<glyph name="o" format="1">
  <advance width="814"/>
  <unicode hex="006F"/>
  <outline>
    <contour>
      <point x="589" y="552" type="curve" smooth="yes"/>
      <point x="589" y="654"/>
      <point x="557" y="816"/>
      <point x="469" y="816" type="curve" smooth="yes"/>
      <point x="304" y="816"/>
      <point x="229" y="569"/>
      <point x="229" y="320" type="curve" smooth="yes"/>
      <point x="229" y="185"/>
      <point x="271" y="48"/>
      <point x="360" y="48" type="curve" smooth="yes"/>
      <point x="507" y="48"/>
      <point x="589" y="304"/>
    </contour>
    <contour>
      <point x="327" y="-26" type="curve" smooth="yes"/>
      <point x="144" y="-26"/>
      <point x="48" y="129"/>
      <point x="48" y="327" type="curve" smooth="yes"/>
      <point x="48" y="608"/>
      <point x="241" y="893"/>
      <point x="512" y="893" type="curve" smooth="yes"/>
      <point x="695" y="893"/>
      <point x="765" y="715"/>
      <point x="765" y="537" type="curve" smooth="yes"/>
      <point x="765" y="261"/>
      <point x="586" y="-26"/>
    </contour>
  </outline>
</glyph>
<glyph name="p" format="1">
  <advance width="1023"/>
  <unicode hex="0070"/>
  <outline>
    <contour>
      <point x="182" y="-258" type="line"/>
      <point x="328" y="748" type="line"/>
      <point x="196" y="770" type="line"/>
      <point x="207" y="846" type="line"/>
      <point x="489" y="870" type="line"/>
      <point x="509" y="847" type="line"/>
      <point x="478" y="720" type="line"/>
      <point x="489" y="720" type="line"/>
      <point x="530" y="799"/>
      <point x="644" y="890"/>
      <point x="736" y="890" type="curve" smooth="yes"/>
      <point x="868" y="890"/>
      <point x="973" y="733"/>
      <point x="973" y="532" type="curve" smooth="yes"/>
      <point x="973" y="185"/>
      <point x="736" y="-18"/>
      <point x="498" y="-18" type="curve" smooth="yes"/>
      <point x="472" y="-18"/>
      <point x="423" y="-17"/>
      <point x="405" y="-7" type="curve"/>
      <point x="427" y="107" type="line"/>
      <point x="447" y="97"/>
      <point x="494" y="89"/>
      <point x="514" y="89" type="curve" smooth="yes"/>
      <point x="616" y="89"/>
      <point x="798" y="111"/>
      <point x="798" y="486" type="curve" smooth="yes"/>
      <point x="798" y="651"/>
      <point x="734" y="746"/>
      <point x="666" y="746" type="curve" smooth="yes"/>
      <point x="585" y="746"/>
      <point x="546" y="720"/>
      <point x="480" y="661" type="curve"/>
      <point x="341" y="-263" type="line"/>
      <point x="496" y="-294" type="line"/>
      <point x="478" y="-365" type="line"/>
      <point x="42" y="-365" type="line"/>
      <point x="62" y="-291" type="line"/>
    </contour>
  </outline>
</glyph>
<glyph name="q" format="1">
  <advance width="808"/>
  <unicode hex="0071"/>
  <outline>
    <contour>
      <point x="441" y="-258" type="line"/>
      <point x="588" y="745" type="line"/>
      <point x="552" y="766"/>
      <point x="520" y="779"/>
      <point x="474" y="779" type="curve" smooth="yes"/>
      <point x="301" y="779"/>
      <point x="215" y="518"/>
      <point x="215" y="330" type="curve" smooth="yes"/>
      <point x="215" y="209"/>
      <point x="252" y="102"/>
      <point x="330" y="102" type="curve" smooth="yes"/>
      <point x="384" y="102"/>
      <point x="440" y="121"/>
      <point x="471" y="147" type="curve"/>
      <point x="479" y="96" type="line"/>
      <point x="431" y="33"/>
      <point x="368" y="-21"/>
      <point x="241" y="-21" type="curve" smooth="yes"/>
      <point x="114" y="-21"/>
      <point x="46" y="102"/>
      <point x="46" y="264" type="curve" smooth="yes"/>
      <point x="46" y="598"/>
      <point x="291" y="884"/>
      <point x="535" y="884" type="curve" smooth="yes"/>
      <point x="571" y="884"/>
      <point x="617" y="860"/>
      <point x="636" y="848" type="curve"/>
      <point x="748" y="879" type="line"/>
      <point x="765" y="872" type="line"/>
      <point x="596" y="-263" type="line"/>
      <point x="732" y="-294" type="line"/>
      <point x="713" y="-365" type="line"/>
      <point x="267" y="-365" type="line"/>
      <point x="287" y="-291" type="line"/>
    </contour>
  </outline>
</glyph>
<glyph name="r" format="1">
  <advance width="677"/>
  <unicode hex="0072"/>
  <outline>
    <contour>
      <point x="185" y="107" type="line"/>
      <point x="284" y="742" type="line"/>
      <point x="152" y="763" type="line"/>
      <point x="163" y="846" type="line"/>
      <point x="441" y="870" type="line"/>
      <point x="462" y="847" type="line"/>
      <point x="403" y="607" type="line"/>
      <point x="414" y="607" type="line"/>
      <point x="455.643" y="738.39"/>
      <point x="546" y="892"/>
      <point x="647" y="892" type="curve" smooth="yes"/>
      <point x="759.018" y="892"/>
      <point x="777" y="753"/>
      <point x="677" y="672" type="curve"/>
      <point x="652.54" y="700.823"/>
      <point x="630.773" y="707"/>
      <point x="601" y="707" type="curve" smooth="yes"/>
      <point x="512.298" y="707"/>
      <point x="436.652" y="578"/>
      <point x="404" y="508" type="curve"/>
      <point x="342" y="106" type="line"/>
      <point x="535" y="74" type="line"/>
      <point x="517" y="2" type="line"/>
      <point x="44" y="2" type="line"/>
      <point x="66" y="74" type="line"/>
    </contour>
  </outline>
</glyph>
<glyph name="s" format="1">
  <advance width="685"/>
  <unicode hex="0073"/>
  <outline>
    <contour>
      <point x="642" y="763" type="curve" smooth="yes"/>
      <point x="642" y="675"/>
      <point x="594" y="622"/>
      <point x="513" y="614" type="curve"/>
      <point x="510" y="637" type="line" smooth="yes"/>
      <point x="498" y="787"/>
      <point x="457" y="826"/>
      <point x="411" y="826" type="curve" smooth="yes"/>
      <point x="347" y="826"/>
      <point x="288" y="786"/>
      <point x="288" y="697" type="curve" smooth="yes"/>
      <point x="288" y="512"/>
      <point x="592" y="439"/>
      <point x="592" y="244" type="curve" smooth="yes"/>
      <point x="592" y="72"/>
      <point x="398" y="-35"/>
      <point x="268" y="-35" type="curve" smooth="yes"/>
      <point x="123" y="-35"/>
      <point x="44" y="43"/>
      <point x="44" y="122" type="curve" smooth="yes"/>
      <point x="44" y="185"/>
      <point x="87" y="240"/>
      <point x="166" y="248" type="curve"/>
      <point x="201" y="106"/>
      <point x="249" y="54"/>
      <point x="308" y="54" type="curve" smooth="yes"/>
      <point x="369" y="54"/>
      <point x="447" y="98"/>
      <point x="447" y="182" type="curve" smooth="yes"/>
      <point x="447" y="314"/>
      <point x="143" y="379"/>
      <point x="143" y="614" type="curve" smooth="yes"/>
      <point x="143" y="759"/>
      <point x="284" y="902"/>
      <point x="462" y="902" type="curve" smooth="yes"/>
      <point x="563" y="902"/>
      <point x="642" y="859"/>
    </contour>
  </outline>
</glyph>
<glyph name="t" format="1">
  <advance width="588"/>
  <unicode hex="0074"/>
  <outline>
    <contour>
      <point x="302" y="1080" type="curve"/>
      <point x="366" y="1080" type="line"/>
      <point x="332" y="872" type="line"/>
      <point x="546" y="872" type="line"/>
      <point x="527" y="776" type="line"/>
      <point x="312" y="776" type="line"/>
      <point x="244" y="347" type="line" smooth="yes"/>
      <point x="231.321" y="266.172"/>
      <point x="213" y="122"/>
      <point x="304" y="122" type="curve" smooth="yes"/>
      <point x="362" y="122"/>
      <point x="413" y="138"/>
      <point x="449" y="155" type="curve"/>
      <point x="462" y="102" type="line"/>
      <point x="408" y="41"/>
      <point x="310" y="-21"/>
      <point x="216" y="-21" type="curve" smooth="yes"/>
      <point x="83.7598" y="-21"/>
      <point x="52" y="106"/>
      <point x="77" y="259" type="curve" smooth="yes"/>
      <point x="160" y="776" type="line"/>
      <point x="49" y="776" type="line"/>
      <point x="59" y="824" type="line"/>
      <point x="160" y="895"/>
      <point x="236" y="992"/>
    </contour>
  </outline>
</glyph>
<glyph name="u" format="1">
  <advance width="862"/>
  <unicode hex="0075"/>
  <outline>
    <contour>
      <point x="746" y="96" type="curve" smooth="yes"/>
      <point x="812" y="84" type="line"/>
      <point x="794" y="15" type="line"/>
      <point x="759" y="2"/>
      <point x="707" y="-17"/>
      <point x="653" y="-17" type="curve" smooth="yes"/>
      <point x="565" y="-17"/>
      <point x="514" y="26"/>
      <point x="526" y="130" type="curve"/>
      <point x="516" y="130" type="line"/>
      <point x="488" y="77"/>
      <point x="385" y="-20"/>
      <point x="253" y="-20" type="curve" smooth="yes"/>
      <point x="154" y="-20"/>
      <point x="72" y="31"/>
      <point x="108" y="264" type="curve" smooth="yes"/>
      <point x="181" y="746" type="line"/>
      <point x="50" y="770" type="line"/>
      <point x="60" y="844" type="line"/>
      <point x="343" y="869" type="line"/>
      <point x="362" y="846" type="line"/>
      <point x="283" y="375" type="line" smooth="yes"/>
      <point x="253" y="197"/>
      <point x="257" y="117"/>
      <point x="348" y="117" type="curve" smooth="yes"/>
      <point x="440" y="117"/>
      <point x="495" y="167"/>
      <point x="528" y="200" type="curve"/>
      <point x="610" y="746" type="line"/>
      <point x="476" y="770" type="line"/>
      <point x="486" y="844" type="line"/>
      <point x="772" y="869" type="line"/>
      <point x="792" y="846" type="line"/>
      <point x="716" y="370" type="line" smooth="yes"/>
      <point x="678" y="132"/>
      <point x="700" y="104"/>
    </contour>
  </outline>
</glyph>
<glyph name="v" format="1">
  <advance width="883"/>
  <unicode hex="0076"/>
  <outline>
    <contour>
      <point x="273" y="-28" type="line"/>
      <point x="146" y="771" type="line"/>
      <point x="50" y="803" type="line"/>
      <point x="68" y="874" type="line"/>
      <point x="416" y="874" type="line"/>
      <point x="398" y="804" type="line"/>
      <point x="306" y="766" type="line"/>
      <point x="375" y="215" type="line"/>
      <point x="615" y="770" type="line"/>
      <point x="493" y="803" type="line"/>
      <point x="509" y="874" type="line"/>
      <point x="841" y="874" type="line"/>
      <point x="821" y="799" type="line"/>
      <point x="722" y="765" type="line"/>
      <point x="377" y="-10" type="line"/>
    </contour>
  </outline>
</glyph>
<glyph name="w" format="1">
  <advance width="1276"/>
  <unicode hex="0077"/>
  <outline>
    <contour>
      <point x="585" y="809" type="line"/>
      <point x="719" y="827" type="line"/>
      <point x="778" y="347" type="line"/>
      <point x="783" y="215" type="line"/>
      <point x="1013" y="771" type="line"/>
      <point x="892" y="803" type="line"/>
      <point x="909" y="874" type="line"/>
      <point x="1234" y="874" type="line"/>
      <point x="1214" y="799" type="line"/>
      <point x="1119" y="766" type="line"/>
      <point x="782" y="-12" type="line"/>
      <point x="676" y="-30" type="line"/>
      <point x="597" y="603" type="line"/>
      <point x="338" y="-12" type="line"/>
      <point x="222" y="-30" type="line"/>
      <point x="146" y="771" type="line"/>
      <point x="49" y="803" type="line"/>
      <point x="67" y="874" type="line"/>
      <point x="420" y="874" type="line"/>
      <point x="402" y="799" type="line"/>
      <point x="281" y="766" type="line"/>
      <point x="331" y="362" type="line"/>
      <point x="339" y="226" type="line"/>
    </contour>
  </outline>
</glyph>
<glyph name="x" format="1">
  <advance width="1024"/>
  <unicode hex="0078"/>
  <outline>
    <contour>
      <point x="773" y="104" type="line"/>
      <point x="868" y="69" type="line"/>
      <point x="849" y="0" type="line"/>
      <point x="455" y="0" type="line"/>
      <point x="475" y="69" type="line"/>
      <point x="597" y="104" type="line"/>
      <point x="483" y="352" type="line"/>
      <point x="283" y="106" type="line"/>
      <point x="410" y="71" type="line"/>
      <point x="390" y="0" type="line"/>
      <point x="44" y="0" type="line"/>
      <point x="63" y="69" type="line"/>
      <point x="159" y="104" type="line"/>
      <point x="445" y="434" type="line"/>
      <point x="291" y="771" type="line"/>
      <point x="195" y="801" type="line"/>
      <point x="214" y="872" type="line"/>
      <point x="593" y="872" type="line"/>
      <point x="574" y="803" type="line"/>
      <point x="456" y="771" type="line"/>
      <point x="569" y="535" type="line"/>
      <point x="755" y="768" type="line"/>
      <point x="651" y="801" type="line"/>
      <point x="669" y="872" type="line"/>
      <point x="982" y="872" type="line"/>
      <point x="960" y="801" type="line"/>
      <point x="861" y="765" type="line"/>
      <point x="602" y="464" type="line"/>
    </contour>
  </outline>
</glyph>
<glyph name="y" format="1">
  <advance width="1120"/>
  <unicode hex="0079"/>
  <outline>
    <contour>
      <point x="565" y="204" type="line"/>
      <point x="846" y="770" type="line"/>
      <point x="724" y="803" type="line"/>
      <point x="744" y="874" type="line"/>
      <point x="1078" y="874" type="line"/>
      <point x="1058" y="799" type="line"/>
      <point x="962" y="768" type="line"/>
      <point x="534" y="-53" type="line" smooth="yes"/>
      <point x="405" y="-302"/>
      <point x="311" y="-380"/>
      <point x="174" y="-380" type="curve" smooth="yes"/>
      <point x="82" y="-380"/>
      <point x="42" y="-331"/>
      <point x="42" y="-268" type="curve" smooth="yes"/>
      <point x="42" y="-228"/>
      <point x="60" y="-176"/>
      <point x="101" y="-155" type="curve"/>
      <point x="143" y="-195"/>
      <point x="182" y="-228"/>
      <point x="235" y="-228" type="curve" smooth="yes"/>
      <point x="327" y="-228"/>
      <point x="368" y="-162"/>
      <point x="454" y="9" type="curve"/>
      <point x="316" y="771" type="line"/>
      <point x="222" y="803" type="line"/>
      <point x="239" y="874" type="line"/>
      <point x="623" y="874" type="line"/>
      <point x="605" y="804" type="line"/>
      <point x="481" y="765" type="line"/>
    </contour>
  </outline>
</glyph>
<glyph name="z" format="1">
  <advance width="824"/>
  <unicode hex="007A"/>
  <outline>
    <contour>
      <point x="158" y="634" type="line"/>
      <point x="204" y="874" type="line"/>
      <point x="782" y="874" type="line"/>
      <point x="772" y="806" type="line"/>
      <point x="222" y="88" type="line"/>
      <point x="524" y="88" type="line"/>
      <point x="640" y="251" type="line"/>
      <point x="703" y="243" type="line"/>
      <point x="624" y="-2" type="line"/>
      <point x="46" y="-2" type="line"/>
      <point x="54" y="79" type="line"/>
      <point x="595" y="789" type="line"/>
      <point x="310" y="789" type="line"/>
      <point x="222" y="621" type="line"/>
    </contour>
  </outline>
</glyph>
<glyph name="braceright" format="1">
  <advance width="709"/>
  <unicode hex="007D"/>
  <outline>
    <contour>
      <point x="98" y="-272" type="line" smooth="yes"/>
      <point x="286" y="-244"/>
      <point x="153" y="352"/>
      <point x="465" y="438" type="curve"/>
      <point x="466" y="444" type="line"/>
      <point x="179" y="530"/>
      <point x="501" y="1121"/>
      <point x="334" y="1149" type="curve" smooth="yes"/>
      <point x="296" y="1156" type="line"/>
      <point x="303" y="1255" type="line"/>
      <point x="362" y="1255" type="line" smooth="yes"/>
      <point x="772" y="1255"/>
      <point x="332" y="548"/>
      <point x="616" y="497" type="curve" smooth="yes"/>
      <point x="663" y="489" type="line"/>
      <point x="646" y="390" type="line"/>
      <point x="595" y="381" type="line" smooth="yes"/>
      <point x="301" y="335"/>
      <point x="516" y="-378"/>
      <point x="101" y="-378" type="curve" smooth="yes"/>
      <point x="40" y="-378" type="line"/>
      <point x="63" y="-277" type="line"/>
    </contour>
  </outline>
</glyph>
<glyph name="asciitilde" format="1">
  <advance width="896"/>
  <unicode hex="007E"/>
  <outline>
    <contour>
      <point x="55" y="412" type="line" smooth="yes"/>
      <point x="55" y="412"/>
      <point x="114" y="624"/>
      <point x="246" y="611" type="curve" smooth="yes"/>
      <point x="696" y="566" type="line" smooth="yes"/>
      <point x="733" y="563"/>
      <point x="778" y="628"/>
      <point x="778" y="628" type="curve"/>
      <point x="842" y="626" type="line" smooth="yes"/>
      <point x="842" y="626"/>
      <point x="780" y="409"/>
      <point x="644" y="424" type="curve" smooth="yes"/>
      <point x="194" y="469" type="line" smooth="yes"/>
      <point x="154" y="473"/>
      <point x="110" y="399"/>
      <point x="110" y="399" type="curve"/>
    </contour>
  </outline>
</glyph>
<glyph name="cent" format="1">
  <advance width="712"/>
  <unicode hex="00A2"/>
  <outline>
    <contour>
      <point x="372" y="92" type="curve" smooth="yes"/>
      <point x="455" y="92"/>
      <point x="505" y="122"/>
      <point x="555" y="157" type="curve"/>
      <point x="579" y="106" type="line"/>
      <point x="518" y="30"/>
      <point x="408" y="-30"/>
      <point x="311" y="-30" type="curve" smooth="yes"/>
      <point x="149" y="-30"/>
      <point x="48" y="92"/>
      <point x="48" y="307" type="curve" smooth="yes"/>
      <point x="48" y="674"/>
      <point x="326" y="900"/>
      <point x="498" y="900" type="curve" smooth="yes"/>
      <point x="605" y="900"/>
      <point x="666" y="842"/>
      <point x="666" y="756" type="curve" smooth="yes"/>
      <point x="666" y="687"/>
      <point x="601" y="649"/>
      <point x="527" y="642" type="curve"/>
      <point x="522" y="710"/>
      <point x="504" y="806"/>
      <point x="448" y="806" type="curve" smooth="yes"/>
      <point x="351" y="806"/>
      <point x="220" y="621"/>
      <point x="220" y="330" type="curve" smooth="yes"/>
      <point x="220" y="191"/>
      <point x="265" y="92"/>
    </contour>
    <contour>
      <point x="453.595" y="1114" type="line"/>
      <point x="602.275" y="1131" type="line"/>
      <point x="536.011" y="863" type="line"/>
      <point x="445.011" y="863" type="line"/>
    </contour>
    <contour>
      <point x="181.05" y="-266" type="line"/>
      <point x="249" y="0" type="line"/>
      <point x="338" y="0" type="line"/>
      <point x="331.573" y="-250" type="line"/>
    </contour>
  </outline>
</glyph>
<glyph name="sterling" format="1">
  <advance width="1167"/>
  <unicode hex="00A3"/>
  <outline>
    <contour>
      <point x="43" y="0" type="line"/>
      <point x="61.7207" y="74" type="line"/>
      <point x="237.164" y="121" type="line"/>
      <point x="284.003" y="221"/>
      <point x="303.574" y="313"/>
      <point x="330.016" y="461" type="curve" smooth="yes"/>
      <point x="346.953" y="549" type="line"/>
      <point x="165.211" y="538" type="line"/>
      <point x="193.208" y="639" type="line"/>
      <point x="365.791" y="649" type="line"/>
      <point x="390.49" y="786" type="line"/>
      <point x="451.49" y="1108"/>
      <point x="643.98" y="1250"/>
      <point x="870.98" y="1250" type="curve" smooth="yes"/>
      <point x="950.98" y="1250"/>
      <point x="1024.03" y="1244"/>
      <point x="1097.8" y="1211" type="curve"/>
      <point x="1016.75" y="895" type="line"/>
      <point x="932.654" y="907" type="line"/>
      <point x="925.549" y="1121" type="line"/>
      <point x="906.291" y="1132"/>
      <point x="880.033" y="1143"/>
      <point x="844.033" y="1143" type="curve" smooth="yes"/>
      <point x="677.033" y="1143"/>
      <point x="628.244" y="1037"/>
      <point x="569.344" y="703" type="curve"/>
      <point x="561.742" y="655" type="line"/>
      <point x="781.959" y="669" type="line"/>
      <point x="755.962" y="568" type="line"/>
      <point x="542.903" y="555" type="line"/>
      <point x="535.568" y="515" type="line"/>
      <point x="507.385" y="356"/>
      <point x="471.043" y="196"/>
      <point x="408.68" y="99" type="curve"/>
      <point x="868.205" y="96" type="line"/>
      <point x="1039.28" y="349" type="line"/>
      <point x="1122.43" y="331" type="line"/>
      <point x="1032" y="0" type="line"/>
    </contour>
  </outline>
</glyph>
<glyph name="currency" format="1">
  <advance width="789"/>
  <unicode hex="00A4"/>
  <outline>
    <contour>
      <point x="48" y="746" type="line"/>
      <point x="131.5" y="827.3" type="line"/>
      <point x="241.45" y="709" type="line"/>
      <point x="284.45" y="745"/>
      <point x="346.45" y="768"/>
      <point x="395.45" y="768" type="curve" smooth="yes"/>
      <point x="449.45" y="768"/>
      <point x="512.45" y="748"/>
      <point x="552.45" y="718" type="curve"/>
      <point x="663" y="829.5" type="line"/>
      <point x="736.601" y="741.6" type="line"/>
      <point x="622.45" y="636" type="line"/>
      <point x="643.45" y="599"/>
      <point x="658.45" y="538"/>
      <point x="658.45" y="491" type="curve" smooth="yes"/>
      <point x="658.45" y="441"/>
      <point x="642.45" y="379"/>
      <point x="615.45" y="342" type="curve"/>
      <point x="739.9" y="223.3" type="line"/>
      <point x="655.3" y="143.1" type="line"/>
      <point x="542.45" y="264" type="line"/>
      <point x="496.45" y="236"/>
      <point x="434.45" y="217"/>
      <point x="387.45" y="217" type="curve" smooth="yes"/>
      <point x="347.45" y="217"/>
      <point x="293.45" y="233"/>
      <point x="253.45" y="257" type="curve"/>
      <point x="144.7" y="136.5" type="line"/>
      <point x="61.2002" y="221.1" type="line"/>
      <point x="176.45" y="332" type="line"/>
      <point x="149.45" y="372"/>
      <point x="131.45" y="435"/>
      <point x="131.45" y="488" type="curve" smooth="yes"/>
      <point x="131.45" y="534"/>
      <point x="147.45" y="592"/>
      <point x="170.45" y="628" type="curve"/>
    </contour>
    <contour>
      <point x="236.45" y="494" type="curve" smooth="yes"/>
      <point x="236.45" y="386"/>
      <point x="300.45" y="313"/>
      <point x="392.45" y="313" type="curve" smooth="yes"/>
      <point x="488.45" y="313"/>
      <point x="552.45" y="383"/>
      <point x="552.45" y="487" type="curve" smooth="yes"/>
      <point x="552.45" y="598"/>
      <point x="488.45" y="670"/>
      <point x="391.45" y="670" type="curve" smooth="yes"/>
      <point x="299.45" y="670"/>
      <point x="236.45" y="599"/>
    </contour>
  </outline>
</glyph>
<glyph name="yen" format="1">
  <advance width="1159"/>
  <unicode hex="00A5"/>
  <outline>
    <contour>
      <point x="390" y="472" type="line"/>
      <point x="83" y="472" type="line"/>
      <point x="111" y="578" type="line"/>
      <point x="375" y="578" type="line"/>
      <point x="222" y="1126" type="line"/>
      <point x="91" y="1168" type="line"/>
      <point x="116" y="1244" type="line"/>
      <point x="583" y="1244" type="line"/>
      <point x="560" y="1168" type="line"/>
      <point x="422" y="1130" type="line"/>
      <point x="554" y="641" type="line"/>
      <point x="849" y="1126" type="line"/>
      <point x="699" y="1168" type="line"/>
      <point x="720" y="1244" type="line"/>
      <point x="1117" y="1244" type="line"/>
      <point x="1095" y="1168" type="line"/>
      <point x="965" y="1130" type="line"/>
      <point x="623" y="578" type="line"/>
      <point x="927" y="578" type="line"/>
      <point x="899" y="472" type="line"/>
      <point x="583" y="472" type="line"/>
      <point x="564" y="345" type="line"/>
      <point x="887" y="345" type="line"/>
      <point x="859" y="239" type="line"/>
      <point x="547" y="239" type="line"/>
      <point x="527" y="114" type="line"/>
      <point x="686" y="81" type="line"/>
      <point x="663" y="0" type="line"/>
      <point x="156" y="0" type="line"/>
      <point x="177" y="74" type="line"/>
      <point x="336" y="121" type="line"/>
      <point x="354" y="239" type="line"/>
      <point x="43" y="239" type="line"/>
      <point x="71" y="345" type="line"/>
      <point x="370" y="345" type="line"/>
    </contour>
  </outline>
</glyph>
<glyph name="section" format="1">
  <advance width="1006"/>
  <unicode hex="00A7"/>
  <outline>
    <contour>
      <point x="41" y="-236" type="curve"/>
      <point x="96.2891" y="31" type="line"/>
      <point x="197.913" y="16" type="line"/>
      <point x="205.137" y="-172" type="line"/>
      <point x="232.107" y="-229"/>
      <point x="300.715" y="-282"/>
      <point x="393.715" y="-282" type="curve" smooth="yes"/>
      <point x="498.715" y="-282"/>
      <point x="641.691" y="-219"/>
      <point x="665.134" y="-71" type="curve" smooth="yes"/>
      <point x="707.264" y="195"/>
      <point x="70.6299" y="191"/>
      <point x="202.36" y="606" type="curve"/>
      <point x="526.683" y="406" type="line" smooth="yes"/>
      <point x="683.479" y="310"/>
      <point x="895.808" y="230"/>
      <point x="858.745" y="-4" type="curve" smooth="yes"/>
      <point x="822.316" y="-234"/>
      <point x="583.718" y="-383"/>
      <point x="355.718" y="-383" type="curve" smooth="yes"/>
      <point x="211.718" y="-383"/>
      <point x="92.4883" y="-315"/>
    </contour>
    <contour>
      <point x="251.459" y="916" type="curve" smooth="yes"/>
      <point x="287.412" y="1143"/>
      <point x="497.369" y="1269"/>
      <point x="694.369" y="1269" type="curve" smooth="yes"/>
      <point x="802.369" y="1269"/>
      <point x="892.982" y="1235"/>
      <point x="961.53" y="1169" type="curve"/>
      <point x="960.264" y="1161"/>
      <point x="894.866" y="887"/>
      <point x="894.866" y="887" type="curve"/>
      <point x="797.767" y="899" type="line"/>
      <point x="802.018" y="1090" type="line"/>
      <point x="789.72" y="1126"/>
      <point x="729.064" y="1185"/>
      <point x="649.064" y="1185" type="curve" smooth="yes"/>
      <point x="549.064" y="1185"/>
      <point x="455.72" y="1126"/>
      <point x="434.972" y="995" type="curve" smooth="yes"/>
      <point x="387.932" y="698"/>
      <point x="1040.68" y="728"/>
      <point x="905.895" y="300" type="curve"/>
      <point x="535.848" y="527" type="line" smooth="yes"/>
      <point x="390.943" y="616"/>
      <point x="217.882" y="704"/>
    </contour>
  </outline>
</glyph>
<glyph name="dieresis" format="1">
  <advance width="603"/>
  <unicode hex="00A8"/>
  <outline>
    <contour>
      <point x="447.072" y="1542" type="curve" smooth="yes"/>
      <point x="492.072" y="1542"/>
      <point x="528.072" y="1511"/>
      <point x="521.072" y="1465" type="curve" smooth="yes"/>
      <point x="513.072" y="1415"/>
      <point x="467.072" y="1384"/>
      <point x="422.072" y="1384" type="curve" smooth="yes"/>
      <point x="379.072" y="1384"/>
      <point x="342.072" y="1415"/>
      <point x="350.072" y="1465" type="curve" smooth="yes"/>
      <point x="358.072" y="1513"/>
      <point x="406.072" y="1542"/>
    </contour>
    <contour>
      <point x="180.072" y="1542" type="curve" smooth="yes"/>
      <point x="225.072" y="1542"/>
      <point x="259.072" y="1511"/>
      <point x="252.072" y="1465" type="curve" smooth="yes"/>
      <point x="244.072" y="1415"/>
      <point x="200.072" y="1384"/>
      <point x="155.072" y="1384" type="curve" smooth="yes"/>
      <point x="112.072" y="1384"/>
      <point x="74.0723" y="1415"/>
      <point x="82.0723" y="1465" type="curve" smooth="yes"/>
      <point x="90.0723" y="1513"/>
      <point x="139.072" y="1542"/>
    </contour>
    <contour>
      <point x="267.072" y="1255" type="move" smooth="yes"/>
    </contour>
  </outline>
</glyph>
<glyph name="copyright" format="1">
  <advance width="1380"/>
  <unicode hex="00A9"/>
  <outline>
    <contour>
      <point x="345.5" y="643.75" type="curve" smooth="yes"/>
      <point x="345.5" y="896.2"/>
      <point x="522.3" y="1056"/>
      <point x="706.75" y="1056" type="curve" smooth="yes"/>
      <point x="848.7" y="1056"/>
      <point x="911.6" y="993.1"/>
      <point x="911.6" y="925.95" type="curve" smooth="yes"/>
      <point x="911.6" y="875.8"/>
      <point x="874.2" y="841.8"/>
      <point x="803.65" y="836.7" type="curve"/>
      <point x="779.85" y="893.65"/>
      <point x="740.75" y="976.1"/>
      <point x="666.8" y="976.1" type="curve" smooth="yes"/>
      <point x="565.65" y="976.1"/>
      <point x="499.35" y="875.8"/>
      <point x="499.35" y="721.95" type="curve" smooth="yes"/>
      <point x="499.35" y="580"/>
      <point x="575" y="367.5"/>
      <point x="751.8" y="367.5" type="curve" smooth="yes"/>
      <point x="835.95" y="367.5"/>
      <point x="883.55" y="393.85"/>
      <point x="923.5" y="419.35" type="curve"/>
      <point x="944.75" y="370.05" type="line"/>
      <point x="899.7" y="315.65"/>
      <point x="790.9" y="265.5"/>
      <point x="681.25" y="265.5" type="curve" smooth="yes"/>
      <point x="477.25" y="265.5"/>
      <point x="345.5" y="439.75"/>
    </contour>
    <contour>
      <point x="54" y="645" type="curve" smooth="yes"/>
      <point x="54" y="1026"/>
      <point x="347" y="1320"/>
      <point x="685" y="1320" type="curve" smooth="yes"/>
      <point x="1080" y="1320"/>
      <point x="1328" y="1033"/>
      <point x="1328" y="649" type="curve" smooth="yes"/>
      <point x="1328" y="292"/>
      <point x="1042" y="-15"/>
      <point x="676" y="-15" type="curve" smooth="yes"/>
      <point x="310" y="-15"/>
      <point x="54" y="270"/>
    </contour>
    <contour>
      <point x="177" y="657" type="curve" smooth="yes"/>
      <point x="177" y="329"/>
      <point x="388" y="92"/>
      <point x="684" y="92" type="curve" smooth="yes"/>
      <point x="972" y="92"/>
      <point x="1206" y="325"/>
      <point x="1206" y="639" type="curve" smooth="yes"/>
      <point x="1206" y="964"/>
      <point x="1020" y="1217"/>
      <point x="685" y="1217" type="curve" smooth="yes"/>
      <point x="397" y="1217"/>
      <point x="177" y="961"/>
    </contour>
  </outline>
</glyph>
<glyph name="ordfeminine" format="1">
  <advance width="761"/>
  <unicode hex="00AA"/>
  <outline>
    <contour>
      <point x="471.787" y="932" type="curve"/>
      <point x="477.172" y="966" type="line" smooth="yes"/>
      <point x="494.414" y="1074"/>
      <point x="501.83" y="1169.6"/>
      <point x="395.97" y="1169.6" type="curve" smooth="yes"/>
      <point x="325.919" y="1169.6"/>
      <point x="305.113" y="1114"/>
      <point x="271.21" y="977.6" type="curve"/>
      <point x="196.248" y="970"/>
      <point x="157.673" y="1004"/>
      <point x="157.673" y="1066" type="curve" smooth="yes"/>
      <point x="157.673" y="1168"/>
      <point x="353.548" y="1254"/>
      <point x="467.537" y="1254" type="curve" smooth="yes"/>
      <point x="615.299" y="1254"/>
      <point x="656.905" y="1164.44"/>
      <point x="634.588" y="1008.4" type="curve" smooth="yes"/>
      <point x="597.345" y="748" type="line" smooth="yes"/>
      <point x="587" y="674"/>
      <point x="601.306" y="648"/>
      <point x="674.615" y="634.8" type="curve" smooth="yes"/>
      <point x="715.975" y="627.6" type="line"/>
      <point x="695.137" y="565.8" type="line"/>
      <point x="648.458" y="529"/>
      <point x="622.369" y="519.6"/>
      <point x="572.22" y="519.6" type="curve" smooth="yes"/>
      <point x="464.19" y="519.6"/>
      <point x="430.447" y="582.606"/>
      <point x="439.349" y="638.8" type="curve"/>
      <point x="429.999" y="638.8" type="line"/>
      <point x="401.226" y="596.4"/>
      <point x="339.664" y="514.8"/>
      <point x="204.459" y="514.8" type="curve" smooth="yes"/>
      <point x="124.852" y="514.8"/>
      <point x="62" y="573.613"/>
      <point x="62" y="654.585" type="curve" smooth="yes"/>
      <point x="62" y="796.262"/>
      <point x="188.198" y="932"/>
    </contour>
    <contour>
      <point x="230.12" y="700.979" type="curve" smooth="yes"/>
      <point x="230.12" y="665.387"/>
      <point x="248.447" y="631.2"/>
      <point x="302.611" y="631.2" type="curve" smooth="yes"/>
      <point x="363.479" y="631.2"/>
      <point x="402.665" y="679.8"/>
      <point x="436.155" y="709.4" type="curve"/>
      <point x="461.506" y="874.4" type="line"/>
      <point x="300.794" y="846.688"/>
      <point x="230.12" y="793.795"/>
    </contour>
  </outline>
</glyph>
<glyph name="guillemotleft" format="1">
  <advance width="704"/>
  <unicode hex="00AB"/>
  <outline>
    <contour>
      <point x="298" y="469" type="line"/>
      <point x="622" y="821" type="line"/>
      <point x="657" y="761" type="line"/>
      <point x="444" y="461" type="line"/>
      <point x="561" y="140" type="line"/>
      <point x="498" y="78" type="line"/>
      <point x="297" y="449" type="line"/>
    </contour>
    <contour>
      <point x="51" y="469" type="line"/>
      <point x="374" y="821" type="line"/>
      <point x="409" y="761" type="line"/>
      <point x="196" y="461" type="line"/>
      <point x="313" y="140" type="line"/>
      <point x="250" y="78" type="line"/>
      <point x="49" y="449" type="line"/>
    </contour>
  </outline>
</glyph>
<glyph name="logicalnot" format="1">
  <advance width="886"/>
  <unicode hex="00AC"/>
  <outline>
    <contour>
      <point x="83" y="664" type="line"/>
      <point x="828" y="664" type="line"/>
      <point x="780" y="350" type="line"/>
      <point x="671" y="332" type="line"/>
      <point x="707" y="558" type="line"/>
      <point x="55" y="558" type="line"/>
    </contour>
  </outline>
</glyph>
<glyph name="registered" format="1">
  <advance width="1074"/>
  <unicode hex="00AE"/>
  <outline>
    <contour>
      <point x="255.15" y="776.9" type="line"/>
      <point x="261.9" y="824.601" type="line"/>
      <point x="342" y="852.95" type="line"/>
      <point x="342" y="1248.5" type="line"/>
      <point x="260.55" y="1265.6" type="line"/>
      <point x="265.5" y="1319.15" type="line"/>
      <point x="331.2" y="1329.5"/>
      <point x="444.6" y="1341.2"/>
      <point x="511.2" y="1341.2" type="curve" smooth="yes"/>
      <point x="663.75" y="1341.2"/>
      <point x="756" y="1304.3"/>
      <point x="756" y="1193.6" type="curve" smooth="yes"/>
      <point x="756" y="1123.4"/>
      <point x="697.15" y="1051.3"/>
      <point x="630.55" y="1027.9" type="curve"/>
      <point x="629.9" y="1026" type="line"/>
      <point x="707.5" y="935.2" type="line" smooth="yes"/>
      <point x="757.9" y="877"/>
      <point x="776.979" y="862.651"/>
      <point x="827.2" y="839.4" type="curve" smooth="yes"/>
      <point x="843.4" y="831.9" type="line"/>
      <point x="833.05" y="776.9" type="line"/>
      <point x="813.7" y="770.601"/>
      <point x="782.5" y="766.101"/>
      <point x="751" y="766.101" type="curve" smooth="yes"/>
      <point x="660.1" y="766.101"/>
      <point x="618.404" y="822.362"/>
      <point x="568.5" y="917.5" type="curve" smooth="yes"/>
      <point x="524.7" y="1001" type="line"/>
      <point x="468.9" y="1001" type="line"/>
      <point x="468.9" y="857" type="line"/>
      <point x="543.15" y="830.45" type="line"/>
      <point x="538.2" y="776.9" type="line"/>
    </contour>
    <contour>
      <point x="468.9" y="1068.5" type="line"/>
      <point x="547.65" y="1068.5" type="line"/>
      <point x="587.25" y="1085.6"/>
      <point x="619.2" y="1117.1"/>
      <point x="619.2" y="1170.2" type="curve" smooth="yes"/>
      <point x="619.2" y="1232.75"/>
      <point x="576" y="1271.8"/>
      <point x="503.1" y="1271.8" type="curve" smooth="yes"/>
      <point x="485.1" y="1271.8"/>
      <point x="471.6" y="1270.45"/>
      <point x="468.9" y="1270.45" type="curve"/>
    </contour>
    <contour>
      <point x="55" y="1022.5" type="curve" smooth="yes"/>
      <point x="55" y="1344"/>
      <point x="266" y="1522.5"/>
      <point x="534" y="1522.5" type="curve" smooth="yes"/>
      <point x="810" y="1522.5"/>
      <point x="1029" y="1352"/>
      <point x="1029" y="1026.5" type="curve" smooth="yes"/>
      <point x="1029" y="716"/>
      <point x="806" y="540.5"/>
      <point x="524" y="540.5" type="curve" smooth="yes"/>
      <point x="262" y="540.5"/>
      <point x="55" y="724"/>
    </contour>
    <contour>
      <point x="143" y="1036.5" type="curve" smooth="yes"/>
      <point x="143" y="776"/>
      <point x="314" y="616.5"/>
      <point x="532" y="616.5" type="curve" smooth="yes"/>
      <point x="760" y="616.5"/>
      <point x="941" y="784"/>
      <point x="941" y="1016.5" type="curve" smooth="yes"/>
      <point x="941" y="1280"/>
      <point x="760" y="1446.5"/>
      <point x="534" y="1446.5" type="curve" smooth="yes"/>
      <point x="312" y="1446.5"/>
      <point x="143" y="1300"/>
    </contour>
  </outline>
</glyph>
<glyph name="macron" format="1">
  <advance width="617"/>
  <unicode hex="00AF"/>
  <outline>
    <contour>
      <point x="81" y="1379" type="line"/>
      <point x="94" y="1479" type="line"/>
      <point x="536" y="1479" type="line"/>
      <point x="523" y="1379" type="line"/>
    </contour>
  </outline>
</glyph>
<glyph name="plusminus" format="1">
  <advance width="729"/>
  <unicode hex="00B1"/>
  <outline>
    <contour>
      <point x="67.5273" y="117" type="line"/>
      <point x="679.419" y="124" type="line"/>
      <point x="662.891" y="20" type="line"/>
      <point x="51" y="13" type="line"/>
    </contour>
    <component base="plus" yxScale="-4.47035e-07" xOffset="8.2295" yOffset="81"/>
  </outline>
</glyph>
<glyph name="two.superior" format="1">
  <advance width="728"/>
  <unicode hex="00B2"/>
  <outline>
    <contour>
      <point x="73.9463" y="638" type="line"/>
      <point x="248.427" y="761" type="line"/>
      <point x="385.842" y="860.438"/>
      <point x="474.742" y="928.414"/>
      <point x="474.742" y="1056.71" type="curve" smooth="yes"/>
      <point x="474.742" y="1109.26"/>
      <point x="455.824" y="1153"/>
      <point x="384.514" y="1153" type="curve" smooth="yes"/>
      <point x="335.514" y="1153"/>
      <point x="291.396" y="1127"/>
      <point x="271.328" y="1095" type="curve"/>
      <point x="228.896" y="966" type="line"/>
      <point x="161.688" y="971" type="line"/>
      <point x="173.614" y="1141" type="line"/>
      <point x="226.809" y="1218"/>
      <point x="363.986" y="1257"/>
      <point x="464.986" y="1257" type="curve" smooth="yes"/>
      <point x="602.925" y="1257"/>
      <point x="679.277" y="1201.73"/>
      <point x="679.277" y="1104.38" type="curve" smooth="yes"/>
      <point x="679.277" y="922.489"/>
      <point x="489.202" y="804.898"/>
      <point x="306.132" y="696" type="curve" smooth="yes"/>
      <point x="232.164" y="652" type="line"/>
      <point x="502.164" y="652" type="line"/>
      <point x="605.396" y="805" type="line"/>
      <point x="659.071" y="784" type="line"/>
      <point x="600" y="531" type="line"/>
      <point x="49" y="531" type="line"/>
    </contour>
  </outline>
</glyph>
<glyph name="three.superior" format="1">
  <advance width="701"/>
  <unicode hex="00B3"/>
  <outline>
    <contour>
      <point x="49" y="563" type="curve"/>
      <point x="110.517" y="762" type="line"/>
      <point x="184.251" y="754" type="line"/>
      <point x="170.869" y="619" type="line"/>
      <point x="185.543" y="598"/>
      <point x="220.534" y="579"/>
      <point x="263.534" y="579" type="curve" smooth="yes"/>
      <point x="357.181" y="579"/>
      <point x="437.836" y="639.22"/>
      <point x="437.836" y="733.142" type="curve" smooth="yes"/>
      <point x="437.836" y="797.666"/>
      <point x="366.164" y="849"/>
      <point x="253.298" y="849" type="curve"/>
      <point x="246.642" y="908" type="line"/>
      <point x="301.352" y="924.291"/>
      <point x="458.06" y="975.102"/>
      <point x="458.06" y="1092.15" type="curve" smooth="yes"/>
      <point x="458.06" y="1141.95"/>
      <point x="430.868" y="1189"/>
      <point x="368.148" y="1189" type="curve" smooth="yes"/>
      <point x="337.148" y="1189"/>
      <point x="305.673" y="1186"/>
      <point x="281.664" y="1167" type="curve"/>
      <point x="232.798" y="1010" type="line"/>
      <point x="157.748" y="1016" type="line"/>
      <point x="172.831" y="1187" type="line"/>
      <point x="210.801" y="1231"/>
      <point x="333.402" y="1279"/>
      <point x="436.402" y="1279" type="curve" smooth="yes"/>
      <point x="561.11" y="1279"/>
      <point x="652.648" y="1231.21"/>
      <point x="652.648" y="1140.37" type="curve" smooth="yes"/>
      <point x="652.648" y="1018.9"/>
      <point x="544.814" y="955.477"/>
      <point x="441.651" y="927" type="curve"/>
      <point x="440.543" y="920" type="line"/>
      <point x="568.426" y="906.55"/>
      <point x="631.93" y="852.098"/>
      <point x="631.93" y="766.735" type="curve" smooth="yes"/>
      <point x="631.93" y="604.157"/>
      <point x="439.867" y="495"/>
      <point x="246.229" y="495" type="curve" smooth="yes"/>
      <point x="151.229" y="495"/>
      <point x="62.3477" y="521"/>
    </contour>
  </outline>
</glyph>
<glyph name="acute" format="1">
  <advance width="393"/>
  <unicode hex="00B4"/>
  <outline>
    <contour>
      <point x="80" y="1380" type="line"/>
      <point x="203" y="1705" type="line"/>
      <point x="314" y="1666" type="line"/>
      <point x="131" y="1348" type="line"/>
    </contour>
  </outline>
</glyph>
<glyph name="micro" format="1">
  <advance width="945"/>
  <unicode hex="00B5"/>
  <outline>
    <contour>
      <point x="213.195" y="37" type="line"/>
      <point x="206.195" y="37" type="line"/>
      <point x="206.345" y="19"/>
      <point x="206.441" y="-28.0195"/>
      <point x="200.714" y="-86" type="curve" smooth="yes"/>
      <point x="170.882" y="-388" type="line"/>
      <point x="42" y="-362" type="line"/>
      <point x="56.248" y="-313"/>
      <point x="189.381" y="255.232"/>
      <point x="227.248" y="497" type="curve" smooth="yes"/>
      <point x="266.248" y="746" type="line"/>
      <point x="135.248" y="770" type="line"/>
      <point x="145.248" y="844" type="line"/>
      <point x="428.248" y="869" type="line"/>
      <point x="447.248" y="846" type="line"/>
      <point x="368.248" y="375" type="line" smooth="yes"/>
      <point x="338.248" y="197"/>
      <point x="342.248" y="117"/>
      <point x="433.248" y="117" type="curve" smooth="yes"/>
      <point x="525.248" y="117"/>
      <point x="580.248" y="167"/>
      <point x="613.248" y="200" type="curve"/>
      <point x="695.248" y="746" type="line"/>
      <point x="561.248" y="770" type="line"/>
      <point x="571.248" y="844" type="line"/>
      <point x="857.248" y="869" type="line"/>
      <point x="877.248" y="846" type="line"/>
      <point x="801.248" y="370" type="line" smooth="yes"/>
      <point x="763.248" y="132"/>
      <point x="785.248" y="104"/>
      <point x="831.248" y="96" type="curve" smooth="yes"/>
      <point x="897.248" y="84" type="line"/>
      <point x="879.248" y="15" type="line"/>
      <point x="844.248" y="2"/>
      <point x="792.248" y="-17"/>
      <point x="738.248" y="-17" type="curve" smooth="yes"/>
      <point x="650.248" y="-17"/>
      <point x="599.248" y="26"/>
      <point x="611.248" y="130" type="curve"/>
      <point x="601.248" y="130" type="line"/>
      <point x="573.248" y="77"/>
      <point x="470.248" y="-20"/>
      <point x="338.248" y="-20" type="curve" smooth="yes"/>
      <point x="287.605" y="-20"/>
      <point x="241.41" y="-6.6543"/>
      <point x="213.184" y="37.5723" type="curve"/>
    </contour>
  </outline>
</glyph>
<glyph name="paragraph" format="1">
  <advance width="1356"/>
  <unicode hex="00B6"/>
  <outline>
    <contour>
      <point x="569.112" y="1245" type="curve" smooth="yes"/>
      <point x="915.114" y="1245" type="line"/>
      <point x="717.924" y="0" type="line"/>
      <point x="311.924" y="0" type="line"/>
      <point x="330.645" y="74" type="line"/>
      <point x="579.088" y="121" type="line"/>
      <point x="742.383" y="1152" type="line"/>
      <point x="702.541" y="1153"/>
      <point x="645.699" y="1154"/>
      <point x="635.699" y="1154" type="curve" smooth="yes"/>
      <point x="403.019" y="1154"/>
      <point x="265.166" y="1039.23"/>
      <point x="265.166" y="816.553" type="curve" smooth="yes"/>
      <point x="265.166" y="675.835"/>
      <point x="344.32" y="546"/>
      <point x="533.402" y="546" type="curve"/>
      <point x="499.88" y="448" type="line"/>
      <point x="262.015" y="448"/>
      <point x="54" y="551.091"/>
      <point x="54" y="785.08" type="curve" smooth="yes"/>
      <point x="54" y="1071.96"/>
      <point x="309.218" y="1245"/>
    </contour>
    <contour>
      <point x="796.924" y="0" type="line"/>
      <point x="994.114" y="1245" type="line"/>
      <point x="1314.11" y="1245" type="line"/>
      <point x="1292.91" y="1168" type="line"/>
      <point x="1116.89" y="1130" type="line"/>
      <point x="955.984" y="114" type="line"/>
      <point x="1131.59" y="80" type="line"/>
      <point x="1108.92" y="0" type="line"/>
    </contour>
  </outline>
</glyph>
<glyph name="periodcentered" format="1">
  <advance width="362"/>
  <unicode hex="00B7"/>
  <outline>
    <contour>
      <point x="59" y="504" type="curve" smooth="yes"/>
      <point x="59" y="568"/>
      <point x="115" y="618"/>
      <point x="179" y="618" type="curve" smooth="yes"/>
      <point x="245" y="618"/>
      <point x="301" y="568"/>
      <point x="301" y="504" type="curve" smooth="yes"/>
      <point x="301" y="437"/>
      <point x="245" y="381"/>
      <point x="179" y="381" type="curve" smooth="yes"/>
      <point x="113" y="381"/>
      <point x="59" y="437"/>
    </contour>
  </outline>
</glyph>
<glyph name="cedilla" format="1">
  <advance width="339"/>
  <unicode hex="00B8"/>
  <outline>
    <contour>
      <point x="54" y="-331" type="line"/>
      <point x="111" y="-312"/>
      <point x="140" y="-278"/>
      <point x="140" y="-248" type="curve" smooth="yes"/>
      <point x="140" y="-214"/>
      <point x="102" y="-172"/>
      <point x="66" y="-138" type="curve"/>
      <point x="164" y="3" type="line"/>
      <point x="238" y="3" type="line"/>
      <point x="185" y="-76" type="line"/>
      <point x="222" y="-109"/>
      <point x="274" y="-160"/>
      <point x="274" y="-227" type="curve" smooth="yes"/>
      <point x="274" y="-306"/>
      <point x="189" y="-355"/>
      <point x="73" y="-389" type="curve"/>
    </contour>
  </outline>
</glyph>
<glyph name="one.superior" format="1">
  <advance width="599"/>
  <unicode hex="00B9"/>
  <outline>
    <contour>
      <point x="49" y="531" type="line"/>
      <point x="64.7188" y="605" type="line"/>
      <point x="221.679" y="630" type="line"/>
      <point x="299.604" y="1122" type="line"/>
      <point x="154.604" y="1122" type="line"/>
      <point x="170.8" y="1199" type="line"/>
      <point x="480.085" y="1245" type="line"/>
      <point x="499.085" y="1245" type="line"/>
      <point x="401.204" y="627" type="line"/>
      <point x="551.145" y="614" type="line"/>
      <point x="532" y="531" type="line"/>
    </contour>
  </outline>
</glyph>
<glyph name="ordmasculine" format="1">
  <advance width="826"/>
  <unicode hex="00BA"/>
  <outline>
    <contour>
      <point x="494.199" y="1258" type="curve" smooth="yes"/>
      <point x="676.466" y="1258"/>
      <point x="778.084" y="1144.33"/>
      <point x="778.084" y="969.448" type="curve" smooth="yes"/>
      <point x="778.084" y="697.528"/>
      <point x="574.487" y="514"/>
      <point x="355.961" y="514" type="curve" smooth="yes"/>
      <point x="159.206" y="514"/>
      <point x="58" y="634.545"/>
      <point x="58" y="802.837" type="curve" smooth="yes"/>
      <point x="58" y="1090.28"/>
      <point x="289.548" y="1258"/>
    </contour>
    <contour>
      <point x="233.628" y="810.639" type="curve" smooth="yes"/>
      <point x="233.628" y="691.238"/>
      <point x="261.446" y="593.6"/>
      <point x="387.152" y="593.6" type="curve" smooth="yes"/>
      <point x="544.234" y="593.6"/>
      <point x="600.444" y="784.34"/>
      <point x="600.444" y="948.204" type="curve" smooth="yes"/>
      <point x="600.444" y="1067.75"/>
      <point x="565.084" y="1175"/>
      <point x="445.195" y="1175" type="curve" smooth="yes"/>
      <point x="282.511" y="1175"/>
      <point x="233.628" y="984.086"/>
    </contour>
  </outline>
</glyph>
<glyph name="onequarter" format="1">
  <advance width="1397"/>
  <unicode hex="00BC"/>
  <outline>
    <contour>
      <point x="747.661" y="270" type="line"/>
      <point x="1231.63" y="737" type="line"/>
      <point x="1286.89" y="726" type="line"/>
      <point x="1270.64" y="655"/>
      <point x="1248.27" y="539"/>
      <point x="1231.01" y="430" type="curve" smooth="yes"/>
      <point x="1205.98" y="272" type="line"/>
      <point x="1353.98" y="272" type="line"/>
      <point x="1329.62" y="175" type="line"/>
      <point x="1190.62" y="175" type="line"/>
      <point x="1176.05" y="83" type="line"/>
      <point x="1294.19" y="65" type="line"/>
      <point x="1277.9" y="0" type="line"/>
      <point x="863.897" y="0" type="line"/>
      <point x="877.085" y="58" type="line"/>
      <point x="1018.36" y="85" type="line"/>
      <point x="1033.09" y="178" type="line"/>
      <point x="746.09" y="178" type="line"/>
    </contour>
    <contour>
      <point x="854.978" y="272" type="line"/>
      <point x="1044.98" y="272" type="line"/>
      <point x="1082.36" y="508" type="line"/>
    </contour>
    <contour>
      <point x="44" y="531" type="line"/>
      <point x="59.7197" y="605" type="line"/>
      <point x="216.68" y="630" type="line"/>
      <point x="294.604" y="1122" type="line"/>
      <point x="149.604" y="1122" type="line"/>
      <point x="165.801" y="1199" type="line"/>
      <point x="475.086" y="1245" type="line"/>
      <point x="494.086" y="1245" type="line"/>
      <point x="396.204" y="627" type="line"/>
      <point x="546.146" y="614" type="line"/>
      <point x="527.001" y="531" type="line"/>
    </contour>
    <contour>
      <point x="169.313" y="-10" type="line"/>
      <point x="671.027" y="588" type="line"/>
      <point x="1160.55" y="1210" type="line"/>
      <point x="1336.07" y="1207" type="line"/>
      <point x="1329.48" y="1178" type="line"/>
      <point x="835.503" y="591" type="line"/>
      <point x="365.829" y="-32" type="line"/>
    </contour>
  </outline>
</glyph>
<glyph name="onehalf" format="1">
  <advance width="1476"/>
  <unicode hex="00BD"/>
  <outline>
    <contour>
      <point x="821.161" y="109" type="line"/>
      <point x="995.643" y="232" type="line"/>
      <point x="1133.06" y="331.436"/>
      <point x="1221.96" y="399.414"/>
      <point x="1221.96" y="527.712" type="curve" smooth="yes"/>
      <point x="1221.96" y="580.261"/>
      <point x="1203.04" y="624"/>
      <point x="1131.73" y="624" type="curve" smooth="yes"/>
      <point x="1082.73" y="624"/>
      <point x="1038.61" y="598"/>
      <point x="1018.55" y="566" type="curve"/>
      <point x="976.111" y="437" type="line"/>
      <point x="908.903" y="442" type="line"/>
      <point x="920.829" y="612" type="line"/>
      <point x="974.024" y="689"/>
      <point x="1111.2" y="728"/>
      <point x="1212.2" y="728" type="curve" smooth="yes"/>
      <point x="1350.14" y="728"/>
      <point x="1426.49" y="672.729"/>
      <point x="1426.49" y="575.378" type="curve" smooth="yes"/>
      <point x="1426.49" y="393.488"/>
      <point x="1236.42" y="275.9"/>
      <point x="1053.35" y="167" type="curve" smooth="yes"/>
      <point x="979.379" y="123" type="line"/>
      <point x="1249.38" y="123" type="line"/>
      <point x="1352.61" y="276" type="line"/>
      <point x="1406.29" y="255" type="line"/>
      <point x="1347.22" y="2" type="line"/>
      <point x="796.214" y="2" type="line"/>
    </contour>
    <contour>
      <point x="44" y="531" type="line"/>
      <point x="59.7197" y="605" type="line"/>
      <point x="216.68" y="630" type="line"/>
      <point x="294.604" y="1122" type="line"/>
      <point x="149.604" y="1122" type="line"/>
      <point x="165.801" y="1199" type="line"/>
      <point x="475.086" y="1245" type="line"/>
      <point x="494.086" y="1245" type="line"/>
      <point x="396.204" y="627" type="line"/>
      <point x="546.146" y="614" type="line"/>
      <point x="527.001" y="531" type="line"/>
    </contour>
    <contour>
      <point x="149.313" y="-10" type="line"/>
      <point x="651.027" y="588" type="line"/>
      <point x="1140.55" y="1210" type="line"/>
      <point x="1316.07" y="1207" type="line"/>
      <point x="1309.48" y="1178" type="line"/>
      <point x="815.503" y="591" type="line"/>
      <point x="345.829" y="-32" type="line"/>
    </contour>
  </outline>
</glyph>
<glyph name="threequarters" format="1">
  <advance width="1376"/>
  <unicode hex="00BE"/>
  <outline>
    <contour>
      <point x="46" y="546" type="curve"/>
      <point x="107.519" y="745" type="line"/>
      <point x="181.252" y="737" type="line"/>
      <point x="167.87" y="602" type="line"/>
      <point x="182.544" y="581"/>
      <point x="217.534" y="562"/>
      <point x="260.534" y="562" type="curve" smooth="yes"/>
      <point x="354.183" y="562"/>
      <point x="434.837" y="622.22"/>
      <point x="434.837" y="716.143" type="curve" smooth="yes"/>
      <point x="434.837" y="780.666"/>
      <point x="363.162" y="832"/>
      <point x="250.298" y="832" type="curve"/>
      <point x="243.643" y="891" type="line"/>
      <point x="298.355" y="907.291"/>
      <point x="455.061" y="958.102"/>
      <point x="455.061" y="1075.15" type="curve" smooth="yes"/>
      <point x="455.061" y="1124.95"/>
      <point x="427.869" y="1172"/>
      <point x="365.149" y="1172" type="curve" smooth="yes"/>
      <point x="334.149" y="1172"/>
      <point x="302.674" y="1169"/>
      <point x="278.665" y="1150" type="curve"/>
      <point x="229.798" y="993" type="line"/>
      <point x="154.748" y="999" type="line"/>
      <point x="169.832" y="1170" type="line"/>
      <point x="207.801" y="1214"/>
      <point x="330.403" y="1262"/>
      <point x="433.403" y="1262" type="curve" smooth="yes"/>
      <point x="558.11" y="1262"/>
      <point x="649.649" y="1214.21"/>
      <point x="649.649" y="1123.37" type="curve" smooth="yes"/>
      <point x="649.649" y="1001.9"/>
      <point x="541.814" y="938.477"/>
      <point x="438.652" y="910" type="curve"/>
      <point x="437.544" y="903" type="line"/>
      <point x="565.429" y="889.55"/>
      <point x="628.932" y="835.097"/>
      <point x="628.932" y="749.734" type="curve" smooth="yes"/>
      <point x="628.932" y="587.156"/>
      <point x="436.867" y="478"/>
      <point x="243.23" y="478" type="curve" smooth="yes"/>
      <point x="148.23" y="478"/>
      <point x="59.3486" y="504"/>
    </contour>
    <contour>
      <point x="161.938" y="-10" type="line"/>
      <point x="663.652" y="588" type="line"/>
      <point x="1153.17" y="1210" type="line"/>
      <point x="1328.69" y="1207" type="line"/>
      <point x="1322.1" y="1178" type="line"/>
      <point x="828.128" y="591" type="line"/>
      <point x="358.454" y="-32" type="line"/>
    </contour>
    <contour>
      <point x="726.286" y="270" type="line"/>
      <point x="1210.25" y="737" type="line"/>
      <point x="1265.51" y="726" type="line"/>
      <point x="1249.26" y="655"/>
      <point x="1226.89" y="539"/>
      <point x="1209.63" y="430" type="curve" smooth="yes"/>
      <point x="1184.6" y="272" type="line"/>
      <point x="1332.6" y="272" type="line"/>
      <point x="1308.24" y="175" type="line"/>
      <point x="1169.24" y="175" type="line"/>
      <point x="1154.67" y="83" type="line"/>
      <point x="1272.81" y="65" type="line"/>
      <point x="1256.52" y="0" type="line"/>
      <point x="842.522" y="0" type="line"/>
      <point x="855.71" y="58" type="line"/>
      <point x="996.982" y="85" type="line"/>
      <point x="1011.71" y="178" type="line"/>
      <point x="724.715" y="178" type="line"/>
    </contour>
    <contour>
      <point x="833.603" y="272" type="line"/>
      <point x="1023.6" y="272" type="line"/>
      <point x="1060.98" y="508" type="line"/>
    </contour>
  </outline>
</glyph>
<glyph name="AE" format="1">
  <advance width="1919"/>
  <unicode hex="00C6"/>
  <outline>
    <contour>
      <point x="44" y="1" type="line"/>
      <point x="64.8789" y="76" type="line"/>
      <point x="209.59" y="131" type="line"/>
      <point x="1000.18" y="1126" type="line"/>
      <point x="792.835" y="1168" type="line"/>
      <point x="814.872" y="1244" type="line"/>
      <point x="1876.87" y="1244" type="line"/>
      <point x="1794.66" y="927" type="line"/>
      <point x="1710.72" y="940" type="line"/>
      <point x="1702.3" y="1152" type="line"/>
      <point x="1264.3" y="1152" type="line"/>
      <point x="1189.38" y="679" type="line"/>
      <point x="1448.38" y="679" type="line"/>
      <point x="1509.86" y="802" type="line"/>
      <point x="1606.13" y="810" type="line"/>
      <point x="1511" y="424" type="line"/>
      <point x="1423.62" y="409" type="line"/>
      <point x="1417.65" y="586" type="line"/>
      <point x="1174.65" y="586" type="line"/>
      <point x="1097.05" y="96" type="line"/>
      <point x="1561.05" y="96" type="line"/>
      <point x="1698.95" y="329" type="line"/>
      <point x="1776.41" y="313" type="line"/>
      <point x="1696.84" y="0" type="line"/>
      <point x="725.842" y="0" type="line"/>
      <point x="745.562" y="74" type="line"/>
      <point x="920.006" y="121" type="line"/>
      <point x="975.6" y="472" type="line"/>
      <point x="616.6" y="472" type="line"/>
      <point x="343.798" y="126" type="line"/>
      <point x="524.988" y="83" type="line"/>
      <point x="499" y="1" type="line"/>
    </contour>
    <contour>
      <point x="683.804" y="568" type="line"/>
      <point x="990.804" y="568" type="line"/>
      <point x="1068.41" y="1058" type="line"/>
    </contour>
  </outline>
</glyph>
<glyph name="Eth" format="1">
  <advance width="1473"/>
  <unicode hex="00D0"/>
  <outline>
    <contour>
      <point x="136.903" y="555" type="line"/>
      <point x="162.475" y="647" type="line"/>
      <point x="333.534" y="660" type="line"/>
      <point x="403.856" y="1104" type="line"/>
      <point x="236.608" y="1134" type="line"/>
      <point x="257.803" y="1211" type="line"/>
      <point x="459.714" y="1242"/>
      <point x="633.564" y="1260"/>
      <point x="778.564" y="1260" type="curve" smooth="yes"/>
      <point x="1268.78" y="1260"/>
      <point x="1426.83" y="996.305"/>
      <point x="1426.83" y="734.746" type="curve" smooth="yes"/>
      <point x="1426.83" y="320.301"/>
      <point x="1082.76" y="0"/>
      <point x="556" y="0" type="curve" smooth="yes"/>
      <point x="43" y="0" type="line"/>
      <point x="68.7207" y="74" type="line"/>
      <point x="249.432" y="129" type="line"/>
      <point x="319.121" y="569" type="line"/>
    </contour>
    <contour>
      <point x="436.471" y="104" type="line"/>
      <point x="648.471" y="104" type="line" smooth="yes"/>
      <point x="1007.3" y="104"/>
      <point x="1202.8" y="363.691"/>
      <point x="1202.8" y="689.452" type="curve" smooth="yes"/>
      <point x="1202.8" y="943.703"/>
      <point x="1051.05" y="1157"/>
      <point x="725.251" y="1157" type="curve" smooth="yes"/>
      <point x="685.251" y="1157"/>
      <point x="642.934" y="1155"/>
      <point x="602.301" y="1151" type="curve"/>
      <point x="526.435" y="672" type="line"/>
      <point x="787.762" y="693" type="line"/>
      <point x="761.348" y="602" type="line"/>
      <point x="512.021" y="581" type="line"/>
    </contour>
  </outline>
</glyph>
<glyph name="multiply" format="1">
  <advance width="570"/>
  <unicode hex="00D7"/>
  <outline>
    <contour>
      <point x="51" y="310" type="line"/>
      <point x="207" y="462" type="line"/>
      <point x="51" y="619" type="line"/>
      <point x="135" y="685" type="line"/>
      <point x="288" y="532" type="line"/>
      <point x="453" y="692" type="line"/>
      <point x="518" y="608" type="line"/>
      <point x="362" y="458" type="line"/>
      <point x="521" y="297" type="line"/>
      <point x="438" y="231" type="line"/>
      <point x="282" y="388" type="line"/>
      <point x="118" y="228" type="line"/>
    </contour>
  </outline>
</glyph>
<glyph name="Oslash" format="1">
  <advance width="1344"/>
  <unicode hex="00D8"/>
  <outline>
    <contour>
      <point x="747.15" y="1176" type="curve" smooth="yes"/>
      <point x="331.15" y="1176"/>
      <point x="278.15" y="773"/>
      <point x="283.15" y="527" type="curve" smooth="yes"/>
      <point x="288.15" y="294"/>
      <point x="376.15" y="79"/>
      <point x="604.15" y="79" type="curve" smooth="yes"/>
      <point x="1015.15" y="79"/>
      <point x="1076.15" y="487"/>
      <point x="1073.15" y="713" type="curve" smooth="yes"/>
      <point x="1068.15" y="946"/>
      <point x="977.15" y="1176"/>
    </contour>
    <contour>
      <point x="1297.15" y="737" type="curve" smooth="yes"/>
      <point x="1304.15" y="339"/>
      <point x="1009.15" y="-26"/>
      <point x="538.15" y="-26" type="curve" smooth="yes"/>
      <point x="237.15" y="-26"/>
      <point x="59.1504" y="204"/>
      <point x="54.1504" y="505" type="curve" smooth="yes"/>
      <point x="46.1504" y="943"/>
      <point x="358.15" y="1273"/>
      <point x="812.15" y="1273" type="curve" smooth="yes"/>
      <point x="1124.15" y="1273"/>
      <point x="1292.15" y="1029"/>
    </contour>
    <contour>
      <point x="121.069" y="-91" type="line"/>
      <point x="277.315" y="153" type="line"/>
      <point x="319.799" y="177" type="line"/>
      <point x="947.405" y="1159" type="line"/>
      <point x="943.44" y="1198" type="line"/>
      <point x="1023.48" y="1324" type="line"/>
      <point x="1190.3" y="1332" type="line"/>
      <point x="1074.89" y="1154" type="line"/>
      <point x="1019.33" y="1110" type="line"/>
      <point x="371.832" y="100" type="line"/>
      <point x="381.935" y="72" type="line"/>
      <point x="283.001" y="-82" type="line"/>
    </contour>
  </outline>
</glyph>
<glyph name="Thorn" format="1">
  <advance width="1194"/>
  <unicode hex="00DE"/>
  <outline>
    <contour>
      <point x="224.151" y="1168" type="line"/>
      <point x="247.189" y="1244" type="line"/>
      <point x="790.189" y="1244" type="line"/>
      <point x="768.151" y="1168" type="line"/>
      <point x="591.133" y="1130" type="line"/>
      <point x="573.711" y="1020" type="line"/>
      <point x="613.869" y="1021"/>
      <point x="658.345" y="1024"/>
      <point x="698.345" y="1024" type="curve" smooth="yes"/>
      <point x="936.504" y="1024"/>
      <point x="1147.68" y="934.051"/>
      <point x="1147.68" y="701.706" type="curve" smooth="yes"/>
      <point x="1147.68" y="414.663"/>
      <point x="894.299" y="260"/>
      <point x="634.339" y="260" type="curve" smooth="yes"/>
      <point x="598.339" y="260"/>
      <point x="557.655" y="262"/>
      <point x="518.289" y="266" type="curve"/>
      <point x="514.752" y="351" type="line"/>
      <point x="768.934" y="336.753"/>
      <point x="934.369" y="414.531"/>
      <point x="934.369" y="659.014" type="curve" smooth="yes"/>
      <point x="934.369" y="797.109"/>
      <point x="854.23" y="926"/>
      <point x="664.824" y="926" type="curve" smooth="yes"/>
      <point x="624.824" y="926"/>
      <point x="557.714" y="919"/>
      <point x="557.714" y="919" type="curve"/>
      <point x="431.323" y="121" type="line"/>
      <point x="662.305" y="83" type="line"/>
      <point x="636" y="-1" type="line"/>
      <point x="43" y="-1" type="line"/>
      <point x="64.7207" y="73" type="line"/>
      <point x="240.007" y="119" type="line"/>
      <point x="399.5" y="1126" type="line"/>
    </contour>
  </outline>
</glyph>
<glyph name="germandbls" format="1">
  <advance width="1027"/>
  <unicode hex="00DF"/>
  <outline>
    <contour>
      <point x="822" y="162" type="curve" smooth="yes"/>
      <point x="822" y="293.929"/>
      <point x="579.406" y="352.461"/>
      <point x="579.406" y="555" type="curve" smooth="yes"/>
      <point x="579.406" y="727.882"/>
      <point x="826" y="817.594"/>
      <point x="826" y="983" type="curve" smooth="yes"/>
      <point x="826" y="1110.5"/>
      <point x="774.321" y="1187"/>
      <point x="656" y="1187" type="curve" smooth="yes"/>
      <point x="566.249" y="1187"/>
      <point x="503.203" y="1122"/>
      <point x="477.972" y="909" type="curve" smooth="yes"/>
      <point x="335" y="0" type="line"/>
      <point x="43" y="0" type="line"/>
      <point x="66.5625" y="78" type="line"/>
      <point x="192.373" y="111" type="line"/>
      <point x="298.174" y="784" type="line"/>
      <point x="176.174" y="784" type="line"/>
      <point x="195.469" y="859" type="line"/>
      <point x="318.111" y="884" type="line"/>
      <point x="361.858" y="1105"/>
      <point x="536.467" y="1305"/>
      <point x="737.691" y="1305" type="curve" smooth="yes"/>
      <point x="944.38" y="1305"/>
      <point x="980" y="1160"/>
      <point x="980" y="1054" type="curve" smooth="yes"/>
      <point x="980" y="812.601"/>
      <point x="719.177" y="769.599"/>
      <point x="719.177" y="623" type="curve" smooth="yes"/>
      <point x="719.177" y="497.44"/>
      <point x="971.46" y="409.084"/>
      <point x="967" y="224" type="curve" smooth="yes"/>
      <point x="963" y="71"/>
      <point x="803" y="-35"/>
      <point x="673" y="-35" type="curve" smooth="yes"/>
      <point x="521.526" y="-35"/>
      <point x="439" y="23.127"/>
      <point x="439" y="82" type="curve" smooth="yes"/>
      <point x="439" y="145"/>
      <point x="482" y="200"/>
      <point x="561" y="208" type="curve"/>
      <point x="598.465" y="95.2783"/>
      <point x="649.845" y="54"/>
      <point x="713" y="54" type="curve" smooth="yes"/>
      <point x="774" y="54"/>
      <point x="822" y="87.959"/>
    </contour>
  </outline>
</glyph>
<glyph name="ae" format="1">
  <advance width="1171"/>
  <unicode hex="00E6"/>
  <outline>
    <contour>
      <point x="607" y="740" type="line"/>
      <point x="579" y="766"/>
      <point x="514" y="781"/>
      <point x="468" y="781" type="curve" smooth="yes"/>
      <point x="308" y="781"/>
      <point x="208" y="533"/>
      <point x="208" y="320" type="curve" smooth="yes"/>
      <point x="208" y="171"/>
      <point x="250" y="106"/>
      <point x="329" y="106" type="curve" smooth="yes"/>
      <point x="405" y="106"/>
      <point x="476" y="150"/>
      <point x="508" y="208" type="curve"/>
    </contour>
    <contour>
      <point x="248" y="-21" type="curve" smooth="yes"/>
      <point x="126" y="-21"/>
      <point x="47" y="91"/>
      <point x="47" y="274" type="curve" smooth="yes"/>
      <point x="47" y="667"/>
      <point x="336" y="885"/>
      <point x="557" y="885" type="curve" smooth="yes"/>
      <point x="621" y="885"/>
      <point x="690" y="872"/>
      <point x="722" y="855" type="curve"/>
      <point x="737" y="836" type="line"/>
      <point x="733.331" y="797.731" type="line"/>
      <point x="789.178" y="837.39"/>
      <point x="880.854" y="890"/>
      <point x="944" y="890" type="curve" smooth="yes"/>
      <point x="1055.18" y="890"/>
      <point x="1126.23" y="813.355"/>
      <point x="1126.23" y="691.777" type="curve" smooth="yes"/>
      <point x="1126.23" y="455.351"/>
      <point x="845" y="372"/>
      <point x="687" y="396" type="curve"/>
      <point x="682" y="368"/>
      <point x="682" y="342"/>
      <point x="682" y="324" type="curve" smooth="yes"/>
      <point x="682" y="174.97"/>
      <point x="750" y="102"/>
      <point x="864" y="102" type="curve" smooth="yes"/>
      <point x="917" y="102"/>
      <point x="1029" y="152"/>
      <point x="1054" y="177" type="curve"/>
      <point x="1080" y="132" type="line"/>
      <point x="1035" y="63"/>
      <point x="906" y="-30"/>
      <point x="770" y="-30" type="curve" smooth="yes"/>
      <point x="651.582" y="-30"/>
      <point x="586.565" y="35.0576"/>
      <point x="553.256" y="155.678" type="curve"/>
      <point x="482" y="48"/>
      <point x="364.405" y="-21"/>
    </contour>
    <contour>
      <point x="696" y="469" type="curve"/>
      <point x="831.585" y="452.859"/>
      <point x="975.63" y="498"/>
      <point x="975.63" y="663.139" type="curve" smooth="yes"/>
      <point x="975.63" y="734.63"/>
      <point x="942.26" y="798"/>
      <point x="884" y="798" type="curve" smooth="yes"/>
      <point x="792" y="798"/>
      <point x="732" y="692"/>
    </contour>
  </outline>
</glyph>
<glyph name="iacute" format="1">
  <advance width="594"/>
  <unicode hex="00ED"/>
  <outline>
    <contour>
      <point x="185" y="106" type="line"/>
      <point x="285" y="746" type="line"/>
      <point x="155" y="768" type="line"/>
      <point x="165" y="844" type="line"/>
      <point x="439" y="869" type="line"/>
      <point x="459" y="846" type="line"/>
      <point x="343" y="102" type="line"/>
      <point x="469" y="71" type="line"/>
      <point x="452" y="-2" type="line"/>
      <point x="44" y="-2" type="line"/>
      <point x="62" y="73" type="line"/>
    </contour>
    <component base="acute" xOffset="239.257" yOffset="-333"/>
  </outline>
</glyph>
<glyph name="idieresis" format="1">
  <advance width="584"/>
  <unicode hex="00EF"/>
  <outline>
    <contour>
      <point x="249.428" y="106" type="line"/>
      <point x="349.428" y="746" type="line"/>
      <point x="219.428" y="768" type="line"/>
      <point x="229.428" y="844" type="line"/>
      <point x="503.428" y="869" type="line"/>
      <point x="523.428" y="846" type="line"/>
      <point x="407.428" y="102" type="line"/>
      <point x="533.428" y="71" type="line"/>
      <point x="516.428" y="-2" type="line"/>
      <point x="108.428" y="-2" type="line"/>
      <point x="126.428" y="73" type="line"/>
    </contour>
    <component base="dieresis" xOffset="-35.0004" yOffset="-369"/>
  </outline>
</glyph>
<glyph name="eth" format="1">
  <advance width="926"/>
  <unicode hex="00F0"/>
  <outline>
    <contour>
      <point x="230.604" y="380.422" type="curve" smooth="yes"/>
      <point x="230.604" y="194.603"/>
      <point x="300.028" y="70"/>
      <point x="412.67" y="70" type="curve" smooth="yes"/>
      <point x="583.574" y="70"/>
      <point x="676.185" y="262.363"/>
      <point x="676.185" y="509.669" type="curve" smooth="yes"/>
      <point x="676.185" y="693.958"/>
      <point x="596.736" y="853.466"/>
      <point x="499.16" y="856" type="curve"/>
      <point x="323.689" y="856"/>
      <point x="230.604" y="635.225"/>
    </contour>
    <contour>
      <point x="855.965" y="597.668" type="curve" smooth="yes"/>
      <point x="855.965" y="204.143"/>
      <point x="653.242" y="-27"/>
      <point x="375.307" y="-27" type="curve" smooth="yes"/>
      <point x="140.889" y="-27"/>
      <point x="47" y="141.302"/>
      <point x="47" y="340.326" type="curve" smooth="yes"/>
      <point x="47" y="690.627"/>
      <point x="289.935" y="948"/>
      <point x="526.731" y="948" type="curve" smooth="yes"/>
      <point x="566.731" y="948"/>
      <point x="651.355" y="933"/>
      <point x="669.318" y="857" type="curve"/>
      <point x="675.636" y="859" type="line"/>
      <point x="670.546" y="894.936"/>
      <point x="654.065" y="985.425"/>
      <point x="630.6" y="1077.97" type="curve"/>
      <point x="396.877" y="1031" type="line"/>
      <point x="418.756" y="1106" type="line"/>
      <point x="612.138" y="1145.67" type="line"/>
      <point x="593.429" y="1209.19"/>
      <point x="571.807" y="1267.37"/>
      <point x="548.8" y="1302" type="curve"/>
      <point x="665.8" y="1302" type="line"/>
      <point x="695.46" y="1270.96"/>
      <point x="723.235" y="1226.89"/>
      <point x="748.044" y="1173.56" type="curve"/>
      <point x="881.803" y="1201" type="line"/>
      <point x="859.607" y="1124" type="line"/>
      <point x="775.666" y="1107.13" type="line"/>
      <point x="828.778" y="964.468"/>
      <point x="855.724" y="777.748"/>
    </contour>
  </outline>
</glyph>
<glyph name="divide" format="1">
  <advance width="919"/>
  <unicode hex="00F7"/>
  <outline>
    <contour>
      <point x="48" y="454" type="line"/>
      <point x="60" y="560" type="line"/>
      <point x="872" y="560" type="line"/>
      <point x="861" y="454" type="line"/>
    </contour>
    <contour>
      <point x="334" y="228" type="curve" smooth="yes"/>
      <point x="334" y="292"/>
      <point x="389" y="341"/>
      <point x="453" y="341" type="curve" smooth="yes"/>
      <point x="519" y="341"/>
      <point x="574" y="291"/>
      <point x="574" y="227" type="curve" smooth="yes"/>
      <point x="574" y="160"/>
      <point x="519" y="104"/>
      <point x="453" y="104" type="curve" smooth="yes"/>
      <point x="387" y="104"/>
      <point x="334" y="161"/>
    </contour>
    <contour>
      <point x="334" y="790" type="curve" smooth="yes"/>
      <point x="334" y="854"/>
      <point x="389" y="903"/>
      <point x="453" y="903" type="curve" smooth="yes"/>
      <point x="519" y="903"/>
      <point x="574" y="853"/>
      <point x="574" y="789" type="curve" smooth="yes"/>
      <point x="574" y="722"/>
      <point x="519" y="666"/>
      <point x="453" y="666" type="curve" smooth="yes"/>
      <point x="387" y="666"/>
      <point x="334" y="723"/>
    </contour>
  </outline>
</glyph>
<glyph name="ccaron" format="1">
  <advance width="778"/>
  <unicode hex="010D"/>
  <outline>
    <contour>
      <point x="115.729" y="415" type="curve" smooth="yes"/>
      <point x="162.77" y="712"/>
      <point x="400.546" y="900"/>
      <point x="617.546" y="900" type="curve" smooth="yes"/>
      <point x="784.546" y="900"/>
      <point x="846.825" y="826"/>
      <point x="834.313" y="747" type="curve" smooth="yes"/>
      <point x="824.969" y="688"/>
      <point x="774.633" y="648"/>
      <point x="690.683" y="642" type="curve"/>
      <point x="673.295" y="709"/>
      <point x="642.658" y="806"/>
      <point x="555.658" y="806" type="curve" smooth="yes"/>
      <point x="436.658" y="806"/>
      <point x="339.969" y="688"/>
      <point x="311.301" y="507" type="curve" smooth="yes"/>
      <point x="284.851" y="340"/>
      <point x="334.255" y="90"/>
      <point x="542.255" y="90" type="curve" smooth="yes"/>
      <point x="641.255" y="90"/>
      <point x="702.164" y="121"/>
      <point x="753.916" y="151" type="curve"/>
      <point x="769.729" y="93" type="line"/>
      <point x="706.593" y="29"/>
      <point x="569.248" y="-30"/>
      <point x="440.248" y="-30" type="curve" smooth="yes"/>
      <point x="200.248" y="-30"/>
      <point x="77.7168" y="175"/>
    </contour>
    <contour>
      <point x="407.943" y="1174" type="line"/>
      <point x="497.922" y="1237" type="line"/>
      <point x="624.114" y="1093" type="line"/>
      <point x="634.114" y="1093" type="line"/>
      <point x="780.446" y="1234" type="line"/>
      <point x="818.536" y="1203" type="line"/>
      <point x="619.186" y="1024" type="line"/>
      <point x="561.969" y="1010" type="line"/>
    </contour>
  </outline>
</glyph>
<glyph name="Ecaron" format="1">
  <advance width="1142"/>
  <unicode hex="011A"/>
  <outline>
    <contour>
      <point x="234.993" y="1168" type="line"/>
      <point x="258.03" y="1244" type="line"/>
      <point x="1253.03" y="1244" type="line"/>
      <point x="1171.35" y="924" type="line"/>
      <point x="1086.41" y="937" type="line"/>
      <point x="1079.46" y="1152" type="line"/>
      <point x="608.459" y="1152" type="line"/>
      <point x="533.068" y="676" type="line"/>
      <point x="823.068" y="676" type="line"/>
      <point x="884.074" y="796" type="line"/>
      <point x="981.291" y="810" type="line"/>
      <point x="885.68" y="421" type="line"/>
      <point x="798.621" y="408" type="line"/>
      <point x="792.338" y="583" type="line"/>
      <point x="518.338" y="583" type="line"/>
      <point x="441.205" y="96" type="line"/>
      <point x="936.205" y="96" type="line"/>
      <point x="1070.63" y="326" type="line"/>
      <point x="1151.57" y="313" type="line"/>
      <point x="1072" y="0" type="line"/>
      <point x="57" y="0" type="line"/>
      <point x="76.7207" y="74" type="line"/>
      <point x="251.164" y="121" type="line"/>
      <point x="410.341" y="1126" type="line"/>
    </contour>
    <contour>
      <point x="627.854" y="1527" type="line"/>
      <point x="717.673" y="1589" type="line"/>
      <point x="843.865" y="1445" type="line"/>
      <point x="852.865" y="1445" type="line"/>
      <point x="999.039" y="1585" type="line"/>
      <point x="1038.29" y="1555" type="line"/>
      <point x="837.938" y="1376" type="line"/>
      <point x="780.562" y="1361" type="line"/>
    </contour>
  </outline>
</glyph>
<glyph name="Rcaron" format="1">
  <advance width="1208"/>
  <unicode hex="0158"/>
  <outline>
    <contour>
      <point x="50" y="0" type="line"/>
      <point x="72.7207" y="74" type="line"/>
      <point x="247.164" y="121" type="line"/>
      <point x="402.223" y="1100" type="line"/>
      <point x="235.975" y="1130" type="line"/>
      <point x="258.17" y="1207" type="line"/>
      <point x="408.812" y="1230"/>
      <point x="573.456" y="1253"/>
      <point x="721.456" y="1253" type="curve" smooth="yes"/>
      <point x="1018.46" y="1253"/>
      <point x="1211.26" y="1176"/>
      <point x="1174.36" y="943" type="curve" smooth="yes"/>
      <point x="1153.92" y="814"/>
      <point x="1031.48" y="666"/>
      <point x="832.872" y="599" type="curve"/>
      <point x="832.714" y="598" type="line"/>
      <point x="973.276" y="349" type="line" smooth="yes"/>
      <point x="1064.62" y="187"/>
      <point x="1105.06" y="114"/>
      <point x="1223.2" y="77" type="curve" smooth="yes"/>
      <point x="1254.61" y="67" type="line"/>
      <point x="1228.84" y="-1" type="line"/>
      <point x="1183.47" y="-16"/>
      <point x="1142.67" y="-21"/>
      <point x="1105.67" y="-21" type="curve" smooth="yes"/>
      <point x="946.674" y="-21"/>
      <point x="855.521" y="98"/>
      <point x="793.071" y="253" type="curve" smooth="yes"/>
      <point x="679.053" y="537" type="line"/>
      <point x="505.053" y="537" type="line"/>
      <point x="439.956" y="126" type="line"/>
      <point x="621.146" y="83" type="line"/>
      <point x="598" y="0" type="line"/>
    </contour>
    <contour>
      <point x="615.854" y="1527" type="line"/>
      <point x="705.673" y="1589" type="line"/>
      <point x="832.865" y="1445" type="line"/>
      <point x="842.865" y="1445" type="line"/>
      <point x="988.039" y="1585" type="line"/>
      <point x="1027.29" y="1555" type="line"/>
      <point x="825.938" y="1376" type="line"/>
      <point x="768.562" y="1361" type="line"/>
    </contour>
    <contour>
      <point x="519.466" y="628" type="line"/>
      <point x="717.466" y="628" type="line"/>
      <point x="821.692" y="661"/>
      <point x="935.996" y="745"/>
      <point x="958.487" y="887" type="curve" smooth="yes"/>
      <point x="984.462" y="1051"/>
      <point x="902.151" y="1169"/>
      <point x="725.151" y="1169" type="curve" smooth="yes"/>
      <point x="655.151" y="1169"/>
      <point x="604.359" y="1164"/>
      <point x="604.359" y="1164" type="curve"/>
    </contour>
  </outline>
</glyph>
<glyph name="scaron" format="1">
  <advance width="697"/>
  <unicode hex="0161"/>
  <outline>
    <contour>
      <point x="72.332" y="141" type="curve" smooth="yes"/>
      <point x="82.9443" y="208"/>
      <point x="140.972" y="265"/>
      <point x="224.922" y="271" type="curve"/>
      <point x="245.59" y="130"/>
      <point x="305.137" y="64"/>
      <point x="381.137" y="64" type="curve" smooth="yes"/>
      <point x="451.137" y="64"/>
      <point x="517.413" y="91"/>
      <point x="529.134" y="165" type="curve" smooth="yes"/>
      <point x="554.316" y="324"/>
      <point x="130.068" y="354"/>
      <point x="172.832" y="624" type="curve" smooth="yes"/>
      <point x="191.204" y="740"/>
      <point x="312.546" y="900"/>
      <point x="514.546" y="900" type="curve" smooth="yes"/>
      <point x="645.546" y="900"/>
      <point x="750.835" y="845"/>
      <point x="733.254" y="734" type="curve" smooth="yes"/>
      <point x="720.108" y="651"/>
      <point x="658.238" y="595"/>
      <point x="570.288" y="589" type="curve"/>
      <point x="570.099" y="632" type="line" smooth="yes"/>
      <point x="565.54" y="780"/>
      <point x="509.242" y="816"/>
      <point x="450.242" y="816" type="curve" smooth="yes"/>
      <point x="380.242" y="816"/>
      <point x="329.372" y="760"/>
      <point x="319.235" y="696" type="curve" smooth="yes"/>
      <point x="289.617" y="509"/>
      <point x="725.133" y="487"/>
      <point x="682.845" y="220" type="curve" smooth="yes"/>
      <point x="659.403" y="72"/>
      <point x="488.615" y="-34"/>
      <point x="334.615" y="-34" type="curve" smooth="yes"/>
      <point x="156.615" y="-34"/>
      <point x="58.0771" y="51"/>
    </contour>
    <contour>
      <point x="321.567" y="1159" type="line"/>
      <point x="412.229" y="1220" type="line"/>
      <point x="538.58" y="1077" type="line"/>
      <point x="547.58" y="1077" type="line"/>
      <point x="692.754" y="1217" type="line"/>
      <point x="731.844" y="1186" type="line"/>
      <point x="531.493" y="1007" type="line"/>
      <point x="474.275" y="993" type="line"/>
    </contour>
  </outline>
</glyph>
<glyph name="Zcaron" format="1">
  <advance width="1096"/>
  <unicode hex="017D"/>
  <outline>
    <contour>
      <point x="63.4717" y="104" type="line"/>
      <point x="973.983" y="1149" type="line"/>
      <point x="436.983" y="1149" type="line"/>
      <point x="321.021" y="903" type="line"/>
      <point x="233.872" y="921" type="line"/>
      <point x="295.03" y="1244" type="line"/>
      <point x="1223.03" y="1244" type="line"/>
      <point x="1210.99" y="1168" type="line"/>
      <point x="277.839" y="100" type="line"/>
      <point x="847.839" y="100" type="line"/>
      <point x="1010.59" y="351" type="line"/>
      <point x="1101.06" y="335" type="line"/>
      <point x="991" y="0" type="line"/>
      <point x="55" y="0" type="line"/>
    </contour>
    <contour>
      <point x="582.854" y="1527" type="line"/>
      <point x="674.673" y="1589" type="line"/>
      <point x="799.865" y="1445" type="line"/>
      <point x="809.865" y="1445" type="line"/>
      <point x="955.039" y="1585" type="line"/>
      <point x="994.288" y="1555" type="line"/>
      <point x="792.938" y="1376" type="line"/>
      <point x="735.562" y="1361" type="line"/>
    </contour>
  </outline>
</glyph>
<glyph name="zcaron" format="1">
  <advance width="818"/>
  <unicode hex="017E"/>
  <outline>
    <contour>
      <point x="66.7793" y="87" type="line"/>
      <point x="666.54" y="780" type="line"/>
      <point x="329.54" y="780" type="line"/>
      <point x="241.238" y="595" type="line"/>
      <point x="166.298" y="608" type="line"/>
      <point x="216.27" y="873" type="line"/>
      <point x="888.27" y="873" type="line"/>
      <point x="876.549" y="799" type="line"/>
      <point x="263.68" y="99" type="line"/>
      <point x="623.68" y="99" type="line"/>
      <point x="746.556" y="275" type="line"/>
      <point x="812.289" y="267" type="line"/>
      <point x="728" y="0" type="line"/>
      <point x="57" y="0" type="line"/>
    </contour>
    <contour>
      <point x="383.567" y="1159" type="line"/>
      <point x="475.229" y="1220" type="line"/>
      <point x="600.58" y="1077" type="line"/>
      <point x="610.58" y="1077" type="line"/>
      <point x="755.754" y="1217" type="line"/>
      <point x="794.844" y="1186" type="line"/>
      <point x="595.493" y="1007" type="line"/>
      <point x="537.275" y="993" type="line"/>
    </contour>
  </outline>
</glyph>
<glyph name="tilde" format="1">
  <advance width="626"/>
  <unicode hex="02DC"/>
  <outline>
    <contour>
      <point x="80" y="1379" type="line" smooth="yes"/>
      <point x="80" y="1379"/>
      <point x="120" y="1533"/>
      <point x="216" y="1521" type="curve" smooth="yes"/>
      <point x="442" y="1492" type="line" smooth="yes"/>
      <point x="467" y="1489"/>
      <point x="498" y="1532"/>
      <point x="498" y="1532" type="curve"/>
      <point x="547" y="1530" type="line" smooth="yes"/>
      <point x="547" y="1530"/>
      <point x="500" y="1374"/>
      <point x="403" y="1387" type="curve" smooth="yes"/>
      <point x="178" y="1419" type="line" smooth="yes"/>
      <point x="150" y="1423"/>
      <point x="119" y="1370"/>
      <point x="119" y="1370" type="curve"/>
    </contour>
  </outline>
</glyph>
<glyph name="Germandbls" format="1">
  <advance width="1394"/>
  <unicode hex="1E9E"/>
  <outline>
    <contour>
      <point x="44" y="0" type="line"/>
      <point x="63.5625" y="73" type="line"/>
      <point x="234.848" y="119" type="line"/>
      <point x="334.946" y="751" type="line" smooth="yes"/>
      <point x="390.54" y="1102"/>
      <point x="608.98" y="1250"/>
      <point x="904.98" y="1250" type="curve" smooth="yes"/>
      <point x="1089.98" y="1250"/>
      <point x="1378.33" y="1208"/>
      <point x="1350.45" y="1032" type="curve" smooth="yes"/>
      <point x="1338.42" y="956"/>
      <point x="1291.19" y="923"/>
      <point x="1209.07" y="897" type="curve"/>
      <point x="1189.54" y="1001"/>
      <point x="1170.12" y="1112"/>
      <point x="1056.12" y="1112" type="curve" smooth="yes"/>
      <point x="972.123" y="1112"/>
      <point x="871.819" y="1028"/>
      <point x="855.98" y="928" type="curve" smooth="yes"/>
      <point x="809.891" y="637"/>
      <point x="1357.7" y="680"/>
      <point x="1300.05" y="316" type="curve" smooth="yes"/>
      <point x="1264.25" y="90"/>
      <point x="1064.2" y="-24"/>
      <point x="840.199" y="-24" type="curve" smooth="yes"/>
      <point x="698.199" y="-24"/>
      <point x="571.752" y="30"/>
      <point x="531.164" y="121" type="curve"/>
      <point x="584.553" y="376" type="line"/>
      <point x="677.177" y="361" type="line"/>
      <point x="684.143" y="184" type="line"/>
      <point x="711.115" y="127"/>
      <point x="787.037" y="76"/>
      <point x="879.037" y="76" type="curve" smooth="yes"/>
      <point x="983.037" y="76"/>
      <point x="1085.42" y="110"/>
      <point x="1107.6" y="250" type="curve" smooth="yes"/>
      <point x="1147.67" y="503"/>
      <point x="613.124" y="468"/>
      <point x="670.301" y="829" type="curve" smooth="yes"/>
      <point x="696.117" y="992"/>
      <point x="816.865" y="1123"/>
      <point x="961.934" y="1155" type="curve"/>
      <point x="964.409" y="1158" type="line"/>
      <point x="945.726" y="1160"/>
      <point x="896.885" y="1161"/>
      <point x="877.885" y="1161" type="curve" smooth="yes"/>
      <point x="682.885" y="1161"/>
      <point x="567.661" y="1027"/>
      <point x="527.59" y="774" type="curve" smooth="yes"/>
      <point x="407" y="0" type="line"/>
    </contour>
  </outline>
</glyph>
<glyph name="quoteleft" format="1">
  <advance width="427"/>
  <unicode hex="2018"/>
  <outline>
    <contour>
      <point x="59" y="961" type="curve" smooth="yes"/>
      <point x="59" y="1054"/>
      <point x="92" y="1214"/>
      <point x="355" y="1284" type="curve"/>
      <point x="378" y="1215" type="line"/>
      <point x="247" y="1181"/>
      <point x="196" y="1105"/>
      <point x="196" y="1041" type="curve" smooth="yes"/>
      <point x="196" y="985"/>
      <point x="242" y="934"/>
      <point x="312" y="934" type="curve" smooth="yes"/>
      <point x="322" y="934"/>
      <point x="331" y="936"/>
      <point x="341" y="937" type="curve"/>
      <point x="349" y="916"/>
      <point x="357" y="898"/>
      <point x="357" y="875" type="curve" smooth="yes"/>
      <point x="357" y="795"/>
      <point x="284" y="753"/>
      <point x="234" y="753" type="curve" smooth="yes"/>
      <point x="164" y="753"/>
      <point x="59" y="810"/>
    </contour>
  </outline>
</glyph>
<glyph name="quoteright" format="1">
  <advance width="430"/>
  <unicode hex="2019"/>
  <outline>
    <contour>
      <point x="61" y="819" type="line"/>
      <point x="192" y="853"/>
      <point x="242" y="928"/>
      <point x="242" y="992" type="curve" smooth="yes"/>
      <point x="242" y="1048"/>
      <point x="197" y="1100"/>
      <point x="127" y="1100" type="curve" smooth="yes"/>
      <point x="117" y="1100"/>
      <point x="107" y="1098"/>
      <point x="97" y="1097" type="curve"/>
      <point x="89" y="1118"/>
      <point x="82" y="1137"/>
      <point x="82" y="1160" type="curve" smooth="yes"/>
      <point x="82" y="1240"/>
      <point x="155" y="1281"/>
      <point x="205" y="1281" type="curve" smooth="yes"/>
      <point x="275" y="1281"/>
      <point x="380" y="1224"/>
      <point x="380" y="1073" type="curve" smooth="yes"/>
      <point x="380" y="980"/>
      <point x="347" y="820"/>
      <point x="84" y="750" type="curve"/>
    </contour>
  </outline>
</glyph>
<glyph name="quotesinglbase" format="1">
  <advance width="437"/>
  <unicode hex="201A"/>
  <outline>
    <contour>
      <point x="55" y="-244" type="line"/>
      <point x="186" y="-210"/>
      <point x="237" y="-134"/>
      <point x="237" y="-70" type="curve" smooth="yes"/>
      <point x="237" y="-14"/>
      <point x="191" y="36"/>
      <point x="121" y="36" type="curve" smooth="yes"/>
      <point x="111" y="36"/>
      <point x="101" y="35"/>
      <point x="91" y="34" type="curve"/>
      <point x="83" y="55"/>
      <point x="77" y="74"/>
      <point x="77" y="97" type="curve" smooth="yes"/>
      <point x="77" y="177"/>
      <point x="149" y="218"/>
      <point x="199" y="218" type="curve" smooth="yes"/>
      <point x="269" y="218"/>
      <point x="373" y="161"/>
      <point x="373" y="10" type="curve" smooth="yes"/>
      <point x="373" y="-83"/>
      <point x="341" y="-243"/>
      <point x="78" y="-313" type="curve"/>
    </contour>
  </outline>
</glyph>
<glyph name="daggerdbl" format="1">
  <advance width="825"/>
  <unicode hex="2021"/>
  <outline>
    <contour>
      <point x="50" y="712" type="line"/>
      <point x="57" y="827" type="line"/>
      <point x="352" y="819" type="line"/>
      <point x="345" y="1255" type="line"/>
      <point x="478" y="1244" type="line"/>
      <point x="468" y="819" type="line"/>
      <point x="772" y="827" type="line"/>
      <point x="766" y="705" type="line"/>
      <point x="468" y="716" type="line"/>
      <point x="459" y="429" type="line"/>
      <point x="462" y="174" type="line"/>
      <point x="775" y="181" type="line"/>
      <point x="769" y="64" type="line"/>
      <point x="462" y="73" type="line"/>
      <point x="471" y="-363" type="line"/>
      <point x="338" y="-352" type="line"/>
      <point x="348" y="73" type="line"/>
      <point x="60" y="64" type="line"/>
      <point x="68" y="187" type="line"/>
      <point x="348" y="175" type="line"/>
      <point x="355" y="498" type="line"/>
      <point x="352" y="718" type="line"/>
    </contour>
  </outline>
</glyph>
<glyph name="guilsinglright" format="1">
  <advance width="416"/>
  <unicode hex="203A"/>
  <outline>
    <contour>
      <point x="51" y="141" type="line"/>
      <point x="218" y="461" type="line"/>
      <point x="54" y="761" type="line"/>
      <point x="98" y="820" type="line"/>
      <point x="366" y="469" type="line"/>
      <point x="364" y="449" type="line"/>
      <point x="103" y="77" type="line"/>
    </contour>
  </outline>
</glyph>
<glyph name="fraction" format="1">
  <advance width="1736"/>
  <unicode hex="2044"/>
  <outline>
    <contour>
      <point x="121.416" y="-10" type="line"/>
      <point x="623.13" y="588" type="line"/>
      <point x="1112.65" y="1210" type="line"/>
      <point x="1278.17" y="1207" type="line"/>
      <point x="1271.58" y="1178" type="line"/>
      <point x="777.605" y="591" type="line"/>
      <point x="307.932" y="-32" type="line"/>
    </contour>
  </outline>
</glyph>
<glyph name="Euro" format="1">
  <advance width="1210"/>
  <unicode hex="20AC"/>
  <outline>
    <contour>
      <point x="49" y="468" type="line"/>
      <point x="59" y="567" type="line"/>
      <point x="912" y="567" type="line"/>
      <point x="891" y="468" type="line"/>
    </contour>
    <contour>
      <point x="59" y="651" type="line"/>
      <point x="69" y="750" type="line"/>
      <point x="961" y="750" type="line"/>
      <point x="940" y="651" type="line"/>
    </contour>
    <contour>
      <point x="205" y="636" type="curve" smooth="yes"/>
      <point x="205" y="917"/>
      <point x="410" y="1269"/>
      <point x="813" y="1269" type="curve" smooth="yes"/>
      <point x="945" y="1269"/>
      <point x="1046" y="1242"/>
      <point x="1142" y="1169" type="curve"/>
      <point x="1111" y="837" type="line"/>
      <point x="1023" y="850" type="line"/>
      <point x="981" y="1070" type="line"/>
      <point x="935" y="1129"/>
      <point x="885" y="1174"/>
      <point x="756" y="1174" type="curve" smooth="yes"/>
      <point x="530" y="1174"/>
      <point x="417" y="965"/>
      <point x="417" y="666" type="curve" smooth="yes"/>
      <point x="417" y="343"/>
      <point x="560" y="83"/>
      <point x="813" y="83" type="curve" smooth="yes"/>
      <point x="875" y="83"/>
      <point x="950" y="108"/>
      <point x="997" y="174" type="curve"/>
      <point x="1040" y="401" type="line"/>
      <point x="1128" y="414" type="line"/>
      <point x="1159" y="111" type="line"/>
      <point x="1033" y="12"/>
      <point x="927" y="-24"/>
      <point x="763" y="-24" type="curve" smooth="yes"/>
      <point x="425" y="-24"/>
      <point x="205" y="234"/>
    </contour>
  </outline>
</glyph>
<glyph name="lozenge" format="1">
  <advance width="943"/>
  <unicode hex="25CA"/>
  <outline>
    <contour>
      <point x="148" y="474" type="line"/>
      <point x="472" y="799" type="line"/>
      <point x="796" y="472" type="line"/>
      <point x="474" y="135" type="line"/>
    </contour>
  </outline>
</glyph>
<glyph name="uniF001" format="1">
  <advance width="1075"/>
  <unicode hex="F001"/>
  <outline>
    <contour>
      <point x="961" y="1183" type="curve" smooth="yes"/>
      <point x="961" y="1147"/>
      <point x="936" y="1102"/>
      <point x="879" y="1080" type="curve"/>
      <point x="847" y="1116"/>
      <point x="756" y="1178"/>
      <point x="693" y="1178" type="curve" smooth="yes"/>
      <point x="585" y="1178"/>
      <point x="501.64" y="1103.81"/>
      <point x="476" y="956" type="curve" smooth="yes"/>
      <point x="459" y="858" type="line"/>
      <point x="998" y="869" type="line"/>
      <point x="1018" y="846" type="line"/>
      <point x="902" y="102" type="line"/>
      <point x="1028" y="71" type="line"/>
      <point x="1011" y="-2" type="line"/>
      <point x="603" y="-2" type="line"/>
      <point x="621" y="73" type="line"/>
      <point x="744" y="106" type="line"/>
      <point x="844" y="746" type="line"/>
      <point x="446" y="768" type="line"/>
      <point x="342" y="109" type="line"/>
      <point x="550" y="79" type="line"/>
      <point x="532" y="2" type="line"/>
      <point x="43" y="2" type="line"/>
      <point x="60" y="76" type="line"/>
      <point x="184" y="109" type="line"/>
      <point x="285" y="768" type="line"/>
      <point x="166" y="768" type="line"/>
      <point x="183" y="836" type="line"/>
      <point x="306" y="872" type="line"/>
      <point x="353" y="1118"/>
      <point x="597" y="1306"/>
      <point x="754" y="1306" type="curve" smooth="yes"/>
      <point x="856" y="1306"/>
      <point x="961" y="1277"/>
    </contour>
  </outline>
</glyph>
<glyph name="uniF002" format="1">
  <advance width="1121"/>
  <unicode hex="F002"/>
  <outline>
    <contour>
      <point x="1078" y="1172" type="curve"/>
      <point x="892" y="104" type="line"/>
      <point x="1019" y="73" type="line"/>
      <point x="1001" y="0" type="line"/>
      <point x="593" y="0" type="line"/>
      <point x="611" y="74" type="line"/>
      <point x="734" y="107" type="line"/>
      <point x="904" y="1132" type="line"/>
      <point x="876" y="1156"/>
      <point x="774" y="1178"/>
      <point x="713" y="1178" type="curve" smooth="yes"/>
      <point x="605" y="1178"/>
      <point x="506.165" y="1129.89"/>
      <point x="476" y="956" type="curve" smooth="yes"/>
      <point x="459" y="858" type="line"/>
      <point x="750" y="858" type="line"/>
      <point x="726" y="768" type="line"/>
      <point x="446" y="768" type="line"/>
      <point x="342" y="109" type="line"/>
      <point x="550" y="79" type="line"/>
      <point x="532" y="2" type="line"/>
      <point x="43" y="2" type="line"/>
      <point x="60" y="76" type="line"/>
      <point x="184" y="109" type="line"/>
      <point x="285" y="768" type="line"/>
      <point x="166" y="768" type="line"/>
      <point x="183" y="836" type="line"/>
      <point x="306" y="872" type="line"/>
      <point x="353" y="1118"/>
      <point x="597" y="1306"/>
      <point x="754" y="1306" type="curve" smooth="yes"/>
      <point x="956" y="1306"/>
      <point x="1066" y="1212"/>
    </contour>
  </outline>
</glyph>
<glyph name="G.alt" format="1">
  <advance width="1046"/>
  <outline>
    <contour>
      <point x="836" y="340" type="curve"/>
      <point x="819.34" y="340" type="line"/>
      <point x="725.815" y="138.418"/>
      <point x="590.75" y="-33"/>
      <point x="370" y="-33" type="curve" smooth="yes"/>
      <point x="138.532" y="-33"/>
      <point x="14" y="158.974"/>
      <point x="14" y="444" type="curve" smooth="yes"/>
      <point x="14" y="976.369"/>
      <point x="425" y="1351.18"/>
      <point x="1042" y="1246" type="curve"/>
      <point x="962" y="835" type="line"/>
      <point x="876" y="848" type="line"/>
      <point x="844" y="1111" type="line"/>
      <point x="277" y="1236"/>
      <point x="243" y="774"/>
      <point x="243" y="532" type="curve" smooth="yes"/>
      <point x="243" y="279"/>
      <point x="303.468" y="87"/>
      <point x="434" y="87" type="curve" smooth="yes"/>
      <point x="560.452" y="87"/>
      <point x="738.221" y="257.748"/>
      <point x="814" y="448.108" type="curve"/>
      <point x="814" y="463" type="line"/>
      <point x="588" y="456" type="line"/>
      <point x="607" y="532" type="line"/>
      <point x="722.104" y="562.242"/>
      <point x="837.854" y="579.227"/>
      <point x="961.155" y="579.227" type="curve" smooth="yes"/>
      <point x="1012.15" y="579.227"/>
      <point x="1064.3" y="576.881"/>
      <point x="1118" y="572" type="curve"/>
      <point x="1098" y="497" type="line"/>
      <point x="984" y="465" type="line"/>
      <point x="964" y="177" type="line" smooth="yes"/>
      <point x="951.729" y="0.296599"/>
      <point x="892" y="-156.426"/>
      <point x="855.663" y="-222" type="curve" smooth="yes"/>
      <point x="804.141" y="-309.499"/>
      <point x="730.281" y="-379.022"/>
      <point x="638" y="-379.022" type="curve" smooth="yes"/>
      <point x="449.596" y="-379.023"/>
      <point x="384.511" y="-245.35"/>
      <point x="477" y="-128" type="curve"/>
      <point x="527.672" y="-183.333"/>
      <point x="676.311" y="-232.233"/>
      <point x="745" y="-211" type="curve" smooth="yes"/>
      <point x="762.769" y="-207.616"/>
      <point x="771.003" y="-199.235"/>
      <point x="776.832" y="-176" type="curve" smooth="yes"/>
      <point x="796.482" y="-110.914"/>
      <point x="815.118" y="-29.1541"/>
    </contour>
  </outline>
</glyph>
<glyph name="Germandbls.alt" format="1">
  <advance width="1387"/>
  <outline>
    <contour>
      <point x="43" y="0" type="line"/>
      <point x="62.5625" y="73" type="line"/>
      <point x="234.848" y="119" type="line"/>
      <point x="323.385" y="678" type="line" smooth="yes"/>
      <point x="392.599" y="1115"/>
      <point x="607.98" y="1250"/>
      <point x="903.98" y="1250" type="curve" smooth="yes"/>
      <point x="1066.98" y="1250"/>
      <point x="1289.13" y="1232"/>
      <point x="1344.12" y="1213" type="curve"/>
      <point x="1333.88" y="1142" type="line"/>
      <point x="971.946" y="751" type="line"/>
      <point x="1044.08" y="693.052"/>
      <point x="1306.59" y="587.151"/>
      <point x="1306.59" y="361.443" type="curve" smooth="yes"/>
      <point x="1306.59" y="100.224"/>
      <point x="1067.99" y="-24"/>
      <point x="839.199" y="-24" type="curve" smooth="yes"/>
      <point x="697.199" y="-24"/>
      <point x="572.019" y="38"/>
      <point x="531.432" y="129" type="curve"/>
      <point x="586.087" y="392" type="line"/>
      <point x="684.711" y="377" type="line"/>
      <point x="694.41" y="192" type="line"/>
      <point x="721.382" y="135"/>
      <point x="786.037" y="76"/>
      <point x="878.037" y="76" type="curve" smooth="yes"/>
      <point x="980.079" y="76"/>
      <point x="1110.99" y="124.441"/>
      <point x="1110.99" y="279.367" type="curve" smooth="yes"/>
      <point x="1110.99" y="432.724"/>
      <point x="869.263" y="549.479"/>
      <point x="728.208" y="639" type="curve"/>
      <point x="712.811" y="687" type="line"/>
      <point x="1102.18" y="1125" type="line"/>
      <point x="1102.97" y="1130" type="line"/>
      <point x="1063.83" y="1148"/>
      <point x="895.885" y="1161"/>
      <point x="876.885" y="1161" type="curve" smooth="yes"/>
      <point x="681.885" y="1161"/>
      <point x="570.779" y="1053"/>
      <point x="514.869" y="700" type="curve"/>
      <point x="406" y="0" type="line"/>
    </contour>
  </outline>
</glyph>
<glyph name="eight.osf" format="1">
  <advance width="857"/>
  <outline>
    <contour>
      <point x="324.185" y="589" type="curve"/>
      <point x="325.61" y="598" type="line"/>
      <point x="266.123" y="637.048"/>
      <point x="196.881" y="738.861"/>
      <point x="196.881" y="852.689" type="curve" smooth="yes"/>
      <point x="196.881" y="1050.9"/>
      <point x="375.095" y="1201"/>
      <point x="557.116" y="1201" type="curve" smooth="yes"/>
      <point x="711.371" y="1201"/>
      <point x="812.933" y="1114.94"/>
      <point x="812.933" y="988.262" type="curve" smooth="yes"/>
      <point x="812.933" y="837.807"/>
      <point x="733.278" y="726.044"/>
      <point x="596.055" y="635" type="curve"/>
      <point x="594.629" y="626" type="line"/>
      <point x="709.47" y="546.219"/>
      <point x="764.537" y="449.893"/>
      <point x="764.537" y="346.153" type="curve" smooth="yes"/>
      <point x="764.537" y="125.719"/>
      <point x="585.539" y="-27"/>
      <point x="346.62" y="-27" type="curve" smooth="yes"/>
      <point x="184.049" y="-27"/>
      <point x="44" y="63.5547"/>
      <point x="44" y="216.386" type="curve" smooth="yes"/>
      <point x="44" y="372"/>
      <point x="165.896" y="504"/>
    </contour>
    <contour>
      <point x="214.693" y="271.465" type="curve" smooth="yes"/>
      <point x="214.693" y="142"/>
      <point x="293.92" y="66"/>
      <point x="386.35" y="66" type="curve" smooth="yes"/>
      <point x="496.776" y="66"/>
      <point x="597.864" y="121.341"/>
      <point x="597.864" y="269.176" type="curve" smooth="yes"/>
      <point x="597.864" y="367.16"/>
      <point x="499.088" y="461.51"/>
      <point x="377.8" y="545" type="curve"/>
      <point x="293.896" y="504"/>
      <point x="214.693" y="398.431"/>
    </contour>
    <contour>
      <point x="360.67" y="949.405" type="curve" smooth="yes"/>
      <point x="360.67" y="852.714"/>
      <point x="419.362" y="746.819"/>
      <point x="532.965" y="676" type="curve"/>
      <point x="581.132" y="721.122"/>
      <point x="659.234" y="799.6"/>
      <point x="659.234" y="944.094" type="curve" smooth="yes"/>
      <point x="659.234" y="1034.37"/>
      <point x="617.258" y="1124"/>
      <point x="527.921" y="1124" type="curve" smooth="yes"/>
      <point x="436.636" y="1124"/>
      <point x="360.67" y="1052.69"/>
    </contour>
  </outline>
</glyph>
<glyph name="five.osf" format="1">
  <advance width="954"/>
  <outline>
    <contour>
      <point x="163.903" y="-16" type="curve"/>
      <point x="186.816" y="-86"/>
      <point x="247.395" y="-206"/>
      <point x="356.395" y="-206" type="curve" smooth="yes"/>
      <point x="493.828" y="-206"/>
      <point x="630.775" y="-123.861"/>
      <point x="630.775" y="101.286" type="curve" smooth="yes"/>
      <point x="630.775" y="262.259"/>
      <point x="514.857" y="378.347"/>
      <point x="277.493" y="406" type="curve"/>
      <point x="460.952" y="914" type="line"/>
      <point x="911.288" y="974" type="line"/>
      <point x="860.472" y="801" type="line"/>
      <point x="498.828" y="768" type="line"/>
      <point x="433.301" y="550" type="line"/>
      <point x="700.768" y="523.452"/>
      <point x="826.32" y="371.97"/>
      <point x="826.32" y="181.982" type="curve" smooth="yes"/>
      <point x="826.32" y="-78.209"/>
      <point x="575.601" y="-297"/>
      <point x="288.981" y="-297" type="curve" smooth="yes"/>
      <point x="110.459" y="-297"/>
      <point x="42" y="-206.373"/>
      <point x="42" y="-149.729" type="curve" smooth="yes"/>
      <point x="42" y="-70.8047"/>
      <point x="106.159" y="-26.457"/>
    </contour>
  </outline>
</glyph>
<glyph name="four.osf" format="1">
  <advance width="1029"/>
  <outline>
    <contour>
      <point x="43" y="164" type="line"/>
      <point x="800.192" y="986" type="line"/>
      <point x="862.342" y="968" type="line"/>
      <point x="837.494" y="849"/>
      <point x="796.115" y="613"/>
      <point x="767.447" y="432" type="curve" smooth="yes"/>
      <point x="732.444" y="211" type="line"/>
      <point x="986.444" y="211" type="line"/>
      <point x="949.646" y="86" type="line"/>
      <point x="714.646" y="86" type="line"/>
      <point x="655.736" y="-277" type="line"/>
      <point x="477.877" y="-304" type="line"/>
      <point x="540.121" y="89" type="line"/>
      <point x="54.1221" y="89" type="line"/>
    </contour>
    <contour>
      <point x="228.444" y="211" type="line"/>
      <point x="558.444" y="211" type="line"/>
      <point x="632.094" y="676" type="line"/>
    </contour>
  </outline>
</glyph>
<glyph name="nine.osf" format="1">
  <advance width="845"/>
  <outline>
    <contour>
      <point x="498.894" y="972" type="curve" smooth="yes"/>
      <point x="714.921" y="972"/>
      <point x="791.713" y="805.591"/>
      <point x="791.713" y="623.612" type="curve" smooth="yes"/>
      <point x="791.713" y="202.656"/>
      <point x="432.871" y="-168.857"/>
      <point x="58.2803" y="-282" type="curve"/>
      <point x="47" y="-208" type="line"/>
      <point x="358.64" y="-84"/>
      <point x="476.944" y="132"/>
      <point x="548.479" y="319" type="curve"/>
      <point x="536.479" y="319" type="line"/>
      <point x="476.866" y="252"/>
      <point x="392.373" y="230"/>
      <point x="305.373" y="230" type="curve" smooth="yes"/>
      <point x="142.419" y="230"/>
      <point x="63.3945" y="338.898"/>
      <point x="63.3945" y="500.695" type="curve" smooth="yes"/>
      <point x="63.3945" y="779.016"/>
      <point x="275.851" y="972"/>
    </contour>
    <contour>
      <point x="250.135" y="526.874" type="curve" smooth="yes"/>
      <point x="250.135" y="412.444"/>
      <point x="296.021" y="338"/>
      <point x="395.479" y="338" type="curve" smooth="yes"/>
      <point x="465.479" y="338"/>
      <point x="533.18" y="374"/>
      <point x="572.1" y="424" type="curve"/>
      <point x="597.208" y="499.565"/>
      <point x="608.993" y="574.051"/>
      <point x="608.993" y="658.681" type="curve" smooth="yes"/>
      <point x="608.993" y="785.552"/>
      <point x="564.652" y="891"/>
      <point x="471.064" y="891" type="curve" smooth="yes"/>
      <point x="353.049" y="891"/>
      <point x="250.135" y="755.071"/>
    </contour>
  </outline>
</glyph>
<glyph name="one.osf" format="1">
  <advance width="652"/>
  <outline>
    <contour>
      <point x="43" y="0" type="line"/>
      <point x="63.7207" y="74" type="line"/>
      <point x="255.164" y="121" type="line"/>
      <point x="363.024" y="802" type="line"/>
      <point x="170.499" y="802" type="line"/>
      <point x="191.695" y="882" type="line"/>
      <point x="488.416" y="956" type="line"/>
      <point x="556.416" y="956" type="line"/>
      <point x="422.056" y="114" type="line"/>
      <point x="605.671" y="80" type="line"/>
      <point x="583" y="0" type="line"/>
    </contour>
  </outline>
</glyph>
<glyph name="seven.osf" format="1">
  <advance width="831"/>
  <outline>
    <contour>
      <point x="55.7236" y="617" type="line"/>
      <point x="147.673" y="945" type="line"/>
      <point x="785.673" y="945" type="line"/>
      <point x="783.627" y="850" type="line"/>
      <point x="462" y="420"/>
      <point x="264" y="30"/>
      <point x="198.276" y="-301" type="curve"/>
      <point x="122" y="-315"/>
      <point x="44" y="-247.426"/>
      <point x="44" y="-174" type="curve" smooth="yes"/>
      <point x="44" y="-25"/>
      <point x="399" y="471"/>
      <point x="632.49" y="786" type="curve"/>
      <point x="214.49" y="786" type="line"/>
      <point x="121.664" y="604" type="line"/>
    </contour>
  </outline>
</glyph>
<glyph name="six.osf" format="1">
  <advance width="851"/>
  <outline>
    <contour>
      <point x="778.062" y="1229" type="curve"/>
      <point x="803.875" y="1171" type="line"/>
      <point x="524.027" y="1052"/>
      <point x="366.649" y="816"/>
      <point x="295.289" y="618" type="curve"/>
      <point x="305.289" y="618" type="line"/>
      <point x="374.059" y="686"/>
      <point x="462.761" y="722"/>
      <point x="544.762" y="722" type="curve" smooth="yes"/>
      <point x="699.114" y="722"/>
      <point x="782.058" y="592.966"/>
      <point x="782.058" y="442.061" type="curve" smooth="yes"/>
      <point x="782.058" y="177.824"/>
      <point x="553.68" y="-21"/>
      <point x="337.081" y="-21" type="curve" smooth="yes"/>
      <point x="126.255" y="-21"/>
      <point x="49" y="160.069"/>
      <point x="49" y="340.553" type="curve" smooth="yes"/>
      <point x="49" y="759.062"/>
      <point x="421.794" y="1118.93"/>
    </contour>
    <contour>
      <point x="241.825" y="306.292" type="curve" smooth="yes"/>
      <point x="241.825" y="182.31"/>
      <point x="277.792" y="61"/>
      <point x="367.068" y="61" type="curve" smooth="yes"/>
      <point x="497.861" y="61"/>
      <point x="587.953" y="218.141"/>
      <point x="587.953" y="407.774" type="curve" smooth="yes"/>
      <point x="587.953" y="508.341"/>
      <point x="556.033" y="615"/>
      <point x="448.813" y="615" type="curve" smooth="yes"/>
      <point x="374.813" y="615"/>
      <point x="308.687" y="570"/>
      <point x="278.984" y="534" type="curve"/>
      <point x="260.485" y="459.795"/>
      <point x="241.825" y="393.72"/>
    </contour>
  </outline>
</glyph>
<glyph name="three.osf" format="1">
  <advance width="893"/>
  <outline>
    <contour>
      <point x="189.154" y="-9" type="curve"/>
      <point x="198.154" y="-96"/>
      <point x="240.154" y="-204"/>
      <point x="333.154" y="-204" type="curve" smooth="yes"/>
      <point x="526.921" y="-204"/>
      <point x="596.276" y="-71.6465"/>
      <point x="596.276" y="72.6641" type="curve" smooth="yes"/>
      <point x="596.276" y="186.051"/>
      <point x="494.526" y="308.56"/>
      <point x="329.145" y="313" type="curve"/>
      <point x="319.757" y="380" type="line"/>
      <point x="459.65" y="422.332"/>
      <point x="650.67" y="540"/>
      <point x="650.67" y="701.953" type="curve" smooth="yes"/>
      <point x="650.67" y="770.546"/>
      <point x="622.115" y="857"/>
      <point x="547.89" y="857" type="curve" smooth="yes"/>
      <point x="439.89" y="857"/>
      <point x="375.961" y="788"/>
      <point x="324.707" y="698" type="curve"/>
      <point x="250.983" y="725" type="line"/>
      <point x="286.613" y="830"/>
      <point x="449.113" y="991"/>
      <point x="627.113" y="991" type="curve" smooth="yes"/>
      <point x="761.992" y="991"/>
      <point x="845.85" y="875.627"/>
      <point x="845.85" y="754.057" type="curve" smooth="yes"/>
      <point x="845.85" y="566.959"/>
      <point x="660.005" y="453.062"/>
      <point x="558.408" y="412" type="curve"/>
      <point x="556.666" y="401" type="line"/>
      <point x="688.782" y="385.753"/>
      <point x="793.128" y="269.154"/>
      <point x="793.128" y="131.281" type="curve" smooth="yes"/>
      <point x="793.128" y="-95.9727"/>
      <point x="544.787" y="-297"/>
      <point x="290.114" y="-297" type="curve" smooth="yes"/>
      <point x="126.869" y="-297"/>
      <point x="42" y="-213.626"/>
      <point x="42" y="-151.289" type="curve" smooth="yes"/>
      <point x="42" y="-92.3799"/>
      <point x="103.114" y="-17.168"/>
    </contour>
  </outline>
</glyph>
<glyph name="two.osf" format="1">
  <advance width="865"/>
  <outline>
    <contour>
      <point x="53.1553" y="102" type="line"/>
      <point x="363" y="288"/>
      <point x="603.326" y="444"/>
      <point x="603.326" y="698.212" type="curve" smooth="yes"/>
      <point x="603.326" y="796.606"/>
      <point x="555.67" y="867"/>
      <point x="477.319" y="867" type="curve" smooth="yes"/>
      <point x="391.319" y="867"/>
      <point x="286.856" y="782"/>
      <point x="236.909" y="675" type="curve"/>
      <point x="166.503" y="704" type="line"/>
      <point x="197.708" y="800"/>
      <point x="362.325" y="987"/>
      <point x="570.959" y="991" type="curve" smooth="yes"/>
      <point x="573.043" y="991.033"/>
      <point x="575.113" y="991.049"/>
      <point x="577.17" y="991.049" type="curve" smooth="yes"/>
      <point x="738.955" y="991.049"/>
      <point x="814.468" y="869.392"/>
      <point x="814.97" y="739.958" type="curve" smooth="yes"/>
      <point x="816" y="474"/>
      <point x="504" y="297"/>
      <point x="264.282" y="147" type="curve"/>
      <point x="635.282" y="147" type="line"/>
      <point x="737.674" y="301" type="line"/>
      <point x="807.248" y="292" type="line"/>
      <point x="707" y="0" type="line"/>
      <point x="44" y="0" type="line"/>
    </contour>
  </outline>
</glyph>
<glyph name="zero.osf" format="1">
  <advance width="899"/>
  <outline>
    <contour>
      <point x="526.226" y="985.012" type="curve"/>
      <point x="528.98" y="985" type="line" smooth="yes"/>
      <point x="737.121" y="982.436"/>
      <point x="845.53" y="838.654"/>
      <point x="845.53" y="619.194" type="curve" smooth="yes"/>
      <point x="845.53" y="234.553"/>
      <point x="583.738" y="-23"/>
      <point x="368.328" y="-23" type="curve" smooth="yes"/>
      <point x="192.995" y="-23"/>
      <point x="50" y="95.0791"/>
      <point x="50" y="347.967" type="curve" smooth="yes"/>
      <point x="50" y="673.971"/>
      <point x="271.829" y="985.012"/>
    </contour>
    <contour>
      <point x="241.239" y="320.578" type="curve" smooth="yes"/>
      <point x="241.239" y="138.032"/>
      <point x="307.704" y="71"/>
      <point x="384.216" y="71" type="curve" smooth="yes"/>
      <point x="513.554" y="71"/>
      <point x="657.469" y="292.944"/>
      <point x="657.469" y="644.956" type="curve" smooth="yes"/>
      <point x="657.469" y="825.256"/>
      <point x="591.141" y="900"/>
      <point x="514.517" y="900" type="curve" smooth="yes"/>
      <point x="383.067" y="900"/>
      <point x="241.239" y="672.917"/>
    </contour>
  </outline>
</glyph>
